<svg width="382" height="326" viewBox="0 0 382 326" fill="none" xmlns="http://www.w3.org/2000/svg">
<rect width="382" height="326" fill="#9D9D9D"/>
<g id="Onboarding 11">
<rect width="428" height="930" transform="translate(-23 -100)" fill="white"/>
<g id="Frame 14001">
<g id="Delivery-cuate 1" clip-path="url(#clip0_224_12559)">
<g id="freepik--background-complete--inject-99">
<path id="Vector" d="M325.258 80.9281H259.859C259.859 80.9281 266.346 63.2109 276.324 63.2109C286.301 63.2109 289.434 75.4349 289.434 75.4349C289.434 75.4349 296.165 68.7958 301.696 68.7958C307.227 68.7958 312.033 77.6123 312.033 77.6123C312.033 77.6123 319.849 72.8526 325.258 80.9281Z" fill="#EBEBEB"/>
<path id="Vector_2" d="M268.164 35.3773H237.604C237.604 35.3773 244.434 25.4453 249.828 25.4453C255.222 25.4453 256.803 32.0386 256.803 32.0386C256.803 32.0386 260.623 28.9826 264.115 29.5174C267.606 30.0522 268.164 35.3773 268.164 35.3773Z" fill="#EBEBEB"/>
<path id="Vector_3" d="M104.347 89.4233H44.8237C44.8237 89.4233 52.9756 71.2248 61.6929 70.0865C70.4101 68.9481 74.5892 83.6093 74.5892 83.6093C74.5892 83.6093 80.2122 78.4293 84.6358 78.4293C89.0593 78.4293 92.4439 85.2519 92.4439 85.2519C92.4439 85.2519 101.314 80.5762 104.347 89.4233Z" fill="#EBEBEB"/>
<path id="Vector_4" d="M166.101 12.9623H125.884C125.884 12.9623 132.76 -0.224311 140.293 -0.415311C147.826 -0.606311 151.753 9.56253 151.753 9.56253C151.753 9.56253 163.381 0.211169 166.101 12.9623Z" fill="#EBEBEB"/>
<path id="Vector_5" d="M209.588 49.4424H182.451C182.451 49.4424 187.111 40.5418 192.169 40.4196C197.226 40.2973 199.885 47.1504 199.885 47.1504C199.885 47.1504 207.754 40.8398 209.588 49.4424Z" fill="#EBEBEB"/>
<path id="Vector_6" d="M279.509 92.1426H251.708V237.898H279.509V92.1426Z" fill="#DBDBDB"/>
<path id="Vector_7" d="M261.425 96.8809H256.024V102.443H261.425V96.8809Z" fill="#EBEBEB"/>
<path id="Vector_8" d="M268.339 96.8809H262.938V102.443H268.339V96.8809Z" fill="#EBEBEB"/>
<path id="Vector_9" d="M261.425 106.33H256.024V111.892H261.425V106.33Z" fill="#EBEBEB"/>
<path id="Vector_10" d="M268.339 106.33H262.938V111.892H268.339V106.33Z" fill="#EBEBEB"/>
<path id="Vector_11" d="M261.425 115.781H256.024V121.343H261.425V115.781Z" fill="#EBEBEB"/>
<path id="Vector_12" d="M268.339 115.781H262.938V121.343H268.339V115.781Z" fill="#EBEBEB"/>
<path id="Vector_13" d="M261.425 125.225H256.024V130.787H261.425V125.225Z" fill="#EBEBEB"/>
<path id="Vector_14" d="M268.339 125.225H262.938V130.787H268.339V125.225Z" fill="#EBEBEB"/>
<path id="Vector_15" d="M261.425 134.676H256.024V140.238H261.425V134.676Z" fill="#EBEBEB"/>
<path id="Vector_16" d="M268.339 134.676H262.938V140.238H268.339V134.676Z" fill="#EBEBEB"/>
<path id="Vector_17" d="M261.425 144.125H256.024V149.687H261.425V144.125Z" fill="#EBEBEB"/>
<path id="Vector_18" d="M268.339 144.125H262.938V149.687H268.339V144.125Z" fill="#EBEBEB"/>
<path id="Vector_19" d="M261.425 153.576H256.024V159.138H261.425V153.576Z" fill="#EBEBEB"/>
<path id="Vector_20" d="M268.339 153.576H262.938V159.138H268.339V153.576Z" fill="#EBEBEB"/>
<path id="Vector_21" d="M261.425 163.02H256.024V168.581H261.425V163.02Z" fill="#EBEBEB"/>
<path id="Vector_22" d="M268.339 163.02H262.938V168.581H268.339V163.02Z" fill="#EBEBEB"/>
<path id="Vector_23" d="M261.425 172.471H256.024V178.033H261.425V172.471Z" fill="#EBEBEB"/>
<path id="Vector_24" d="M268.339 172.471H262.938V178.033H268.339V172.471Z" fill="#EBEBEB"/>
<path id="Vector_25" d="M261.425 181.922H256.024V187.484H261.425V181.922Z" fill="#EBEBEB"/>
<path id="Vector_26" d="M268.339 181.922H262.938V187.484H268.339V181.922Z" fill="#EBEBEB"/>
<path id="Vector_27" d="M261.425 191.363H256.024V196.925H261.425V191.363Z" fill="#EBEBEB"/>
<path id="Vector_28" d="M268.339 191.363H262.938V196.925H268.339V191.363Z" fill="#EBEBEB"/>
<path id="Vector_29" d="M261.425 200.814H256.024V206.376H261.425V200.814Z" fill="#EBEBEB"/>
<path id="Vector_30" d="M268.339 200.814H262.938V206.376H268.339V200.814Z" fill="#EBEBEB"/>
<path id="Vector_31" d="M261.425 210.266H256.024V215.828H261.425V210.266Z" fill="#EBEBEB"/>
<path id="Vector_32" d="M268.339 210.266H262.938V215.828H268.339V210.266Z" fill="#EBEBEB"/>
<path id="Vector_33" d="M261.425 219.717H256.024V225.279H261.425V219.717Z" fill="#EBEBEB"/>
<path id="Vector_34" d="M269.791 225.277H275.193V219.715H269.791V225.277Z" fill="#EBEBEB"/>
<path id="Vector_35" d="M269.791 215.828H275.193V210.266H269.791V215.828Z" fill="#EBEBEB"/>
<path id="Vector_36" d="M269.791 206.385H275.193V200.823H269.791V206.385Z" fill="#EBEBEB"/>
<path id="Vector_37" d="M269.791 196.934H275.193V191.372H269.791V196.934Z" fill="#EBEBEB"/>
<path id="Vector_38" d="M269.791 187.482H275.193V181.921H269.791V187.482Z" fill="#EBEBEB"/>
<path id="Vector_39" d="M269.791 178.031H275.193V172.469H269.791V178.031Z" fill="#EBEBEB"/>
<path id="Vector_40" d="M269.791 168.59H275.193V163.028H269.791V168.59Z" fill="#EBEBEB"/>
<path id="Vector_41" d="M269.791 159.131H275.193V153.569H269.791V159.131Z" fill="#EBEBEB"/>
<path id="Vector_42" d="M269.791 149.688H275.193V144.126H269.791V149.688Z" fill="#EBEBEB"/>
<path id="Vector_43" d="M269.791 140.244H275.193V134.682H269.791V140.244Z" fill="#EBEBEB"/>
<path id="Vector_44" d="M269.791 130.793H275.193V125.231H269.791V130.793Z" fill="#EBEBEB"/>
<path id="Vector_45" d="M269.791 121.344H275.193V115.782H269.791V121.344Z" fill="#EBEBEB"/>
<path id="Vector_46" d="M269.791 111.893H275.193V106.331H269.791V111.893Z" fill="#EBEBEB"/>
<path id="Vector_47" d="M269.791 102.449H275.193V96.8873H269.791V102.449Z" fill="#EBEBEB"/>
<path id="Vector_48" d="M268.339 219.717H262.938V225.279H268.339V219.717Z" fill="#EBEBEB"/>
<path id="Vector_49" d="M301.428 92.1426H279.509V237.898H301.428V92.1426Z" fill="#A6A6A6"/>
<path id="Vector_50" d="M294.705 225.277H299.167V219.715H294.705V225.277Z" fill="#C7C7C7"/>
<path id="Vector_51" d="M289.006 225.277H293.468V219.715H289.006V225.277Z" fill="#C7C7C7"/>
<path id="Vector_52" d="M294.705 215.828H299.167V210.266H294.705V215.828Z" fill="#C7C7C7"/>
<path id="Vector_53" d="M289.006 215.828H293.468V210.266H289.006V215.828Z" fill="#C7C7C7"/>
<path id="Vector_54" d="M294.705 206.385H299.167V200.823H294.705V206.385Z" fill="#C7C7C7"/>
<path id="Vector_55" d="M289.006 206.385H293.468V200.823H289.006V206.385Z" fill="#C7C7C7"/>
<path id="Vector_56" d="M294.705 196.934H299.167V191.372H294.705V196.934Z" fill="#C7C7C7"/>
<path id="Vector_57" d="M289.006 196.934H293.468V191.372H289.006V196.934Z" fill="#C7C7C7"/>
<path id="Vector_58" d="M294.705 187.482H299.167V181.921H294.705V187.482Z" fill="#C7C7C7"/>
<path id="Vector_59" d="M289.006 187.482H293.468V181.921H289.006V187.482Z" fill="#C7C7C7"/>
<path id="Vector_60" d="M294.705 178.031H299.167V172.469H294.705V178.031Z" fill="#C7C7C7"/>
<path id="Vector_61" d="M289.006 178.031H293.468V172.469H289.006V178.031Z" fill="#C7C7C7"/>
<path id="Vector_62" d="M294.705 168.59H299.167V163.028H294.705V168.59Z" fill="#C7C7C7"/>
<path id="Vector_63" d="M289.006 168.59H293.468V163.028H289.006V168.59Z" fill="#C7C7C7"/>
<path id="Vector_64" d="M294.705 159.131H299.167V153.569H294.705V159.131Z" fill="#C7C7C7"/>
<path id="Vector_65" d="M289.006 159.131H293.468V153.569H289.006V159.131Z" fill="#C7C7C7"/>
<path id="Vector_66" d="M294.705 149.688H299.167V144.126H294.705V149.688Z" fill="#C7C7C7"/>
<path id="Vector_67" d="M289.006 149.688H293.468V144.126H289.006V149.688Z" fill="#C7C7C7"/>
<path id="Vector_68" d="M294.705 140.244H299.167V134.682H294.705V140.244Z" fill="#C7C7C7"/>
<path id="Vector_69" d="M289.006 140.244H293.468V134.682H289.006V140.244Z" fill="#C7C7C7"/>
<path id="Vector_70" d="M294.705 130.793H299.167V125.231H294.705V130.793Z" fill="#C7C7C7"/>
<path id="Vector_71" d="M289.006 130.793H293.468V125.231H289.006V130.793Z" fill="#C7C7C7"/>
<path id="Vector_72" d="M294.705 121.344H299.167V115.782H294.705V121.344Z" fill="#C7C7C7"/>
<path id="Vector_73" d="M289.006 121.344H293.468V115.782H289.006V121.344Z" fill="#C7C7C7"/>
<path id="Vector_74" d="M294.705 111.893H299.167V106.331H294.705V111.893Z" fill="#C7C7C7"/>
<path id="Vector_75" d="M289.006 111.893H293.468V106.331H289.006V111.893Z" fill="#C7C7C7"/>
<path id="Vector_76" d="M294.705 102.449H299.167V96.8873H294.705V102.449Z" fill="#C7C7C7"/>
<path id="Vector_77" d="M287.799 96.8809H283.337V102.443H287.799V96.8809Z" fill="#C7C7C7"/>
<path id="Vector_78" d="M287.799 106.33H283.337V111.892H287.799V106.33Z" fill="#C7C7C7"/>
<path id="Vector_79" d="M287.799 115.781H283.337V121.343H287.799V115.781Z" fill="#C7C7C7"/>
<path id="Vector_80" d="M287.799 125.225H283.337V130.787H287.799V125.225Z" fill="#C7C7C7"/>
<path id="Vector_81" d="M287.799 134.676H283.337V140.238H287.799V134.676Z" fill="#C7C7C7"/>
<path id="Vector_82" d="M287.799 144.125H283.337V149.687H287.799V144.125Z" fill="#C7C7C7"/>
<path id="Vector_83" d="M287.799 153.576H283.337V159.138H287.799V153.576Z" fill="#C7C7C7"/>
<path id="Vector_84" d="M287.799 163.02H283.337V168.581H287.799V163.02Z" fill="#C7C7C7"/>
<path id="Vector_85" d="M287.799 172.471H283.337V178.033H287.799V172.471Z" fill="#C7C7C7"/>
<path id="Vector_86" d="M287.799 181.922H283.337V187.484H287.799V181.922Z" fill="#C7C7C7"/>
<path id="Vector_87" d="M287.799 191.363H283.337V196.925H287.799V191.363Z" fill="#C7C7C7"/>
<path id="Vector_88" d="M287.799 200.814H283.337V206.376H287.799V200.814Z" fill="#C7C7C7"/>
<path id="Vector_89" d="M287.799 210.266H283.337V215.828H287.799V210.266Z" fill="#C7C7C7"/>
<path id="Vector_90" d="M287.799 219.717H283.337V225.279H287.799V219.717Z" fill="#C7C7C7"/>
<path id="Vector_91" d="M289.006 102.449H293.468V96.8873H289.006V102.449Z" fill="#C7C7C7"/>
<path id="Vector_92" d="M108.351 84.2891H75.4604V237.899H108.351V84.2891Z" fill="#EBEBEB"/>
<path id="Vector_93" d="M108.35 80.9277H74.6655V84.2893H108.35V80.9277Z" fill="#C7C7C7"/>
<path id="Vector_94" d="M81.7632 89.248H78.4321V237.907H81.7632V89.248Z" fill="white"/>
<path id="Vector_95" d="M87.6611 89.248H84.3301V237.907H87.6611V89.248Z" fill="white"/>
<path id="Vector_96" d="M93.5669 89.248H90.2358V237.907H93.5669V89.248Z" fill="white"/>
<path id="Vector_97" d="M99.4726 89.248H96.1416V237.907H99.4726V89.248Z" fill="white"/>
<path id="Vector_98" d="M105.371 89.248H102.04V237.907H105.371V89.248Z" fill="white"/>
<path id="Vector_99" d="M81.7632 93.4961H78.4321V100.135H81.7632V93.4961Z" fill="#EBEBEB"/>
<path id="Vector_100" d="M87.6611 93.4961H84.3301V100.135H87.6611V93.4961Z" fill="#EBEBEB"/>
<path id="Vector_101" d="M93.5669 93.4961H90.2358V100.135H93.5669V93.4961Z" fill="#EBEBEB"/>
<path id="Vector_102" d="M99.4726 93.4961H96.1416V100.135H99.4726V93.4961Z" fill="#EBEBEB"/>
<path id="Vector_103" d="M105.371 93.4961H102.04V100.135H105.371V93.4961Z" fill="#EBEBEB"/>
<path id="Vector_104" d="M81.7632 104.283H78.4321V110.922H81.7632V104.283Z" fill="#EBEBEB"/>
<path id="Vector_105" d="M87.6611 104.283H84.3301V110.922H87.6611V104.283Z" fill="#EBEBEB"/>
<path id="Vector_106" d="M93.5669 104.283H90.2358V110.922H93.5669V104.283Z" fill="#EBEBEB"/>
<path id="Vector_107" d="M99.4726 104.283H96.1416V110.922H99.4726V104.283Z" fill="#EBEBEB"/>
<path id="Vector_108" d="M105.371 104.283H102.04V110.922H105.371V104.283Z" fill="#EBEBEB"/>
<path id="Vector_109" d="M81.7632 115.07H78.4321V121.709H81.7632V115.07Z" fill="#EBEBEB"/>
<path id="Vector_110" d="M87.6611 115.07H84.3301V121.709H87.6611V115.07Z" fill="#EBEBEB"/>
<path id="Vector_111" d="M93.5669 115.07H90.2358V121.709H93.5669V115.07Z" fill="#EBEBEB"/>
<path id="Vector_112" d="M99.4726 115.07H96.1416V121.709H99.4726V115.07Z" fill="#EBEBEB"/>
<path id="Vector_113" d="M105.371 115.07H102.04V121.709H105.371V115.07Z" fill="#EBEBEB"/>
<path id="Vector_114" d="M81.7632 125.865H78.4321V132.504H81.7632V125.865Z" fill="#EBEBEB"/>
<path id="Vector_115" d="M87.6611 125.865H84.3301V132.504H87.6611V125.865Z" fill="#EBEBEB"/>
<path id="Vector_116" d="M93.5669 125.865H90.2358V132.504H93.5669V125.865Z" fill="#EBEBEB"/>
<path id="Vector_117" d="M99.4726 125.865H96.1416V132.504H99.4726V125.865Z" fill="#EBEBEB"/>
<path id="Vector_118" d="M105.371 125.865H102.04V132.504H105.371V125.865Z" fill="#EBEBEB"/>
<path id="Vector_119" d="M81.7632 136.654H78.4321V143.293H81.7632V136.654Z" fill="#EBEBEB"/>
<path id="Vector_120" d="M87.6611 136.654H84.3301V143.293H87.6611V136.654Z" fill="#EBEBEB"/>
<path id="Vector_121" d="M93.5669 136.654H90.2358V143.293H93.5669V136.654Z" fill="#EBEBEB"/>
<path id="Vector_122" d="M99.4726 136.654H96.1416V143.293H99.4726V136.654Z" fill="#EBEBEB"/>
<path id="Vector_123" d="M105.371 136.654H102.04V143.293H105.371V136.654Z" fill="#EBEBEB"/>
<path id="Vector_124" d="M81.7632 147.441H78.4321V154.081H81.7632V147.441Z" fill="#EBEBEB"/>
<path id="Vector_125" d="M87.6611 147.441H84.3301V154.081H87.6611V147.441Z" fill="#EBEBEB"/>
<path id="Vector_126" d="M93.5669 147.441H90.2358V154.081H93.5669V147.441Z" fill="#EBEBEB"/>
<path id="Vector_127" d="M99.4726 147.441H96.1416V154.081H99.4726V147.441Z" fill="#EBEBEB"/>
<path id="Vector_128" d="M105.371 147.441H102.04V154.081H105.371V147.441Z" fill="#EBEBEB"/>
<path id="Vector_129" d="M81.7632 158.229H78.4321V164.868H81.7632V158.229Z" fill="#EBEBEB"/>
<path id="Vector_130" d="M87.6611 158.229H84.3301V164.868H87.6611V158.229Z" fill="#EBEBEB"/>
<path id="Vector_131" d="M93.5669 158.229H90.2358V164.868H93.5669V158.229Z" fill="#EBEBEB"/>
<path id="Vector_132" d="M99.4726 158.229H96.1416V164.868H99.4726V158.229Z" fill="#EBEBEB"/>
<path id="Vector_133" d="M105.371 158.229H102.04V164.868H105.371V158.229Z" fill="#EBEBEB"/>
<path id="Vector_134" d="M81.7632 169.025H78.4321V175.665H81.7632V169.025Z" fill="#EBEBEB"/>
<path id="Vector_135" d="M87.6611 169.025H84.3301V175.665H87.6611V169.025Z" fill="#EBEBEB"/>
<path id="Vector_136" d="M93.5669 169.025H90.2358V175.665H93.5669V169.025Z" fill="#EBEBEB"/>
<path id="Vector_137" d="M99.4726 169.025H96.1416V175.665H99.4726V169.025Z" fill="#EBEBEB"/>
<path id="Vector_138" d="M105.371 169.025H102.04V175.665H105.371V169.025Z" fill="#EBEBEB"/>
<path id="Vector_139" d="M81.7632 179.812H78.4321V186.452H81.7632V179.812Z" fill="#EBEBEB"/>
<path id="Vector_140" d="M87.6611 179.812H84.3301V186.452H87.6611V179.812Z" fill="#EBEBEB"/>
<path id="Vector_141" d="M93.5669 179.812H90.2358V186.452H93.5669V179.812Z" fill="#EBEBEB"/>
<path id="Vector_142" d="M99.4726 179.812H96.1416V186.452H99.4726V179.812Z" fill="#EBEBEB"/>
<path id="Vector_143" d="M105.371 179.812H102.04V186.452H105.371V179.812Z" fill="#EBEBEB"/>
<path id="Vector_144" d="M81.7632 190.6H78.4321V197.239H81.7632V190.6Z" fill="#EBEBEB"/>
<path id="Vector_145" d="M87.6611 190.6H84.3301V197.239H87.6611V190.6Z" fill="#EBEBEB"/>
<path id="Vector_146" d="M93.5669 190.6H90.2358V197.239H93.5669V190.6Z" fill="#EBEBEB"/>
<path id="Vector_147" d="M99.4726 190.6H96.1416V197.239H99.4726V190.6Z" fill="#EBEBEB"/>
<path id="Vector_148" d="M105.371 190.6H102.04V197.239H105.371V190.6Z" fill="#EBEBEB"/>
<path id="Vector_149" d="M81.7632 201.395H78.4321V208.034H81.7632V201.395Z" fill="#EBEBEB"/>
<path id="Vector_150" d="M87.6611 201.395H84.3301V208.034H87.6611V201.395Z" fill="#EBEBEB"/>
<path id="Vector_151" d="M93.5669 201.395H90.2358V208.034H93.5669V201.395Z" fill="#EBEBEB"/>
<path id="Vector_152" d="M99.4726 201.395H96.1416V208.034H99.4726V201.395Z" fill="#EBEBEB"/>
<path id="Vector_153" d="M105.371 201.395H102.04V208.034H105.371V201.395Z" fill="#EBEBEB"/>
<path id="Vector_154" d="M81.7632 212.184H78.4321V218.823H81.7632V212.184Z" fill="#EBEBEB"/>
<path id="Vector_155" d="M87.6611 212.184H84.3301V218.823H87.6611V212.184Z" fill="#EBEBEB"/>
<path id="Vector_156" d="M93.5669 212.184H90.2358V218.823H93.5669V212.184Z" fill="#EBEBEB"/>
<path id="Vector_157" d="M99.4726 212.184H96.1416V218.823H99.4726V212.184Z" fill="#EBEBEB"/>
<path id="Vector_158" d="M105.371 212.184H102.04V218.823H105.371V212.184Z" fill="#EBEBEB"/>
<path id="Vector_159" d="M81.7632 222.971H78.4321V229.61H81.7632V222.971Z" fill="#EBEBEB"/>
<path id="Vector_160" d="M87.6611 222.971H84.3301V229.61H87.6611V222.971Z" fill="#EBEBEB"/>
<path id="Vector_161" d="M93.5669 222.971H90.2358V229.61H93.5669V222.971Z" fill="#EBEBEB"/>
<path id="Vector_162" d="M99.4726 222.971H96.1416V229.61H99.4726V222.971Z" fill="#EBEBEB"/>
<path id="Vector_163" d="M105.371 222.971H102.04V229.61H105.371V222.971Z" fill="#EBEBEB"/>
<path id="Vector_164" d="M81.7632 233.758H78.4321V237.899H81.7632V233.758Z" fill="#EBEBEB"/>
<path id="Vector_165" d="M87.6611 233.758H84.3301V237.899H87.6611V233.758Z" fill="#EBEBEB"/>
<path id="Vector_166" d="M93.5669 233.758H90.2358V237.899H93.5669V233.758Z" fill="#EBEBEB"/>
<path id="Vector_167" d="M99.4726 233.758H96.1416V237.899H99.4726V233.758Z" fill="#EBEBEB"/>
<path id="Vector_168" d="M105.371 233.758H102.04V237.899H105.371V233.758Z" fill="#EBEBEB"/>
<path id="Vector_169" d="M129.468 84.2891H108.351V237.899H129.468V84.2891Z" fill="#DBDBDB"/>
<path id="Vector_170" d="M130.384 80.9277H108.351V84.2893H130.384V80.9277Z" fill="#C7C7C7"/>
<path id="Vector_171" d="M114.653 89.248H111.322V237.907H114.653V89.248Z" fill="#C7C7C7"/>
<path id="Vector_172" d="M120.559 89.248H117.228V237.907H120.559V89.248Z" fill="#C7C7C7"/>
<path id="Vector_173" d="M126.465 89.248H123.134V237.907H126.465V89.248Z" fill="#C7C7C7"/>
<path id="Vector_174" d="M114.653 93.4961H111.322V100.135H114.653V93.4961Z" fill="#DBDBDB"/>
<path id="Vector_175" d="M120.559 93.4961H117.228V100.135H120.559V93.4961Z" fill="#DBDBDB"/>
<path id="Vector_176" d="M126.465 93.4961H123.134V100.135H126.465V93.4961Z" fill="#DBDBDB"/>
<path id="Vector_177" d="M114.653 104.283H111.322V110.922H114.653V104.283Z" fill="#DBDBDB"/>
<path id="Vector_178" d="M120.559 104.283H117.228V110.922H120.559V104.283Z" fill="#DBDBDB"/>
<path id="Vector_179" d="M126.465 104.283H123.134V110.922H126.465V104.283Z" fill="#DBDBDB"/>
<path id="Vector_180" d="M114.653 115.07H111.322V121.709H114.653V115.07Z" fill="#DBDBDB"/>
<path id="Vector_181" d="M120.559 115.07H117.228V121.709H120.559V115.07Z" fill="#DBDBDB"/>
<path id="Vector_182" d="M126.465 115.07H123.134V121.709H126.465V115.07Z" fill="#DBDBDB"/>
<path id="Vector_183" d="M114.653 125.865H111.322V132.504H114.653V125.865Z" fill="#DBDBDB"/>
<path id="Vector_184" d="M120.559 125.865H117.228V132.504H120.559V125.865Z" fill="#DBDBDB"/>
<path id="Vector_185" d="M126.465 125.865H123.134V132.504H126.465V125.865Z" fill="#DBDBDB"/>
<path id="Vector_186" d="M114.653 136.654H111.322V143.293H114.653V136.654Z" fill="#DBDBDB"/>
<path id="Vector_187" d="M120.559 136.654H117.228V143.293H120.559V136.654Z" fill="#DBDBDB"/>
<path id="Vector_188" d="M126.465 136.654H123.134V143.293H126.465V136.654Z" fill="#DBDBDB"/>
<path id="Vector_189" d="M114.653 147.441H111.322V154.081H114.653V147.441Z" fill="#DBDBDB"/>
<path id="Vector_190" d="M120.559 147.441H117.228V154.081H120.559V147.441Z" fill="#DBDBDB"/>
<path id="Vector_191" d="M126.465 147.441H123.134V154.081H126.465V147.441Z" fill="#DBDBDB"/>
<path id="Vector_192" d="M114.653 158.229H111.322V164.868H114.653V158.229Z" fill="#DBDBDB"/>
<path id="Vector_193" d="M120.559 158.229H117.228V164.868H120.559V158.229Z" fill="#DBDBDB"/>
<path id="Vector_194" d="M126.465 158.229H123.134V164.868H126.465V158.229Z" fill="#DBDBDB"/>
<path id="Vector_195" d="M114.653 169.025H111.322V175.665H114.653V169.025Z" fill="#DBDBDB"/>
<path id="Vector_196" d="M120.559 169.025H117.228V175.665H120.559V169.025Z" fill="#DBDBDB"/>
<path id="Vector_197" d="M126.465 169.025H123.134V175.665H126.465V169.025Z" fill="#DBDBDB"/>
<path id="Vector_198" d="M114.653 179.812H111.322V186.452H114.653V179.812Z" fill="#DBDBDB"/>
<path id="Vector_199" d="M120.559 179.812H117.228V186.452H120.559V179.812Z" fill="#DBDBDB"/>
<path id="Vector_200" d="M126.465 179.812H123.134V186.452H126.465V179.812Z" fill="#DBDBDB"/>
<path id="Vector_201" d="M114.653 190.6H111.322V197.239H114.653V190.6Z" fill="#DBDBDB"/>
<path id="Vector_202" d="M120.559 190.6H117.228V197.239H120.559V190.6Z" fill="#DBDBDB"/>
<path id="Vector_203" d="M126.465 190.6H123.134V197.239H126.465V190.6Z" fill="#DBDBDB"/>
<path id="Vector_204" d="M114.653 201.395H111.322V208.034H114.653V201.395Z" fill="#DBDBDB"/>
<path id="Vector_205" d="M120.559 201.395H117.228V208.034H120.559V201.395Z" fill="#DBDBDB"/>
<path id="Vector_206" d="M126.465 201.395H123.134V208.034H126.465V201.395Z" fill="#DBDBDB"/>
<path id="Vector_207" d="M114.653 212.184H111.322V218.823H114.653V212.184Z" fill="#DBDBDB"/>
<path id="Vector_208" d="M120.559 212.184H117.228V218.823H120.559V212.184Z" fill="#DBDBDB"/>
<path id="Vector_209" d="M126.465 212.184H123.134V218.823H126.465V212.184Z" fill="#DBDBDB"/>
<path id="Vector_210" d="M114.653 222.971H111.322V229.61H114.653V222.971Z" fill="#DBDBDB"/>
<path id="Vector_211" d="M120.559 222.971H117.228V229.61H120.559V222.971Z" fill="#DBDBDB"/>
<path id="Vector_212" d="M126.465 222.971H123.134V229.61H126.465V222.971Z" fill="#DBDBDB"/>
<path id="Vector_213" d="M114.653 233.758H111.322V237.899H114.653V233.758Z" fill="#DBDBDB"/>
<path id="Vector_214" d="M120.559 233.758H117.228V237.899H120.559V233.758Z" fill="#DBDBDB"/>
<path id="Vector_215" d="M126.465 233.758H123.134V237.899H126.465V233.758Z" fill="#DBDBDB"/>
<path id="Vector_216" d="M66.9187 140.742H34.166V237.9H66.9187V140.742Z" fill="#EBEBEB"/>
<path id="Vector_217" d="M66.9111 132.506H38.8188V140.742H66.9111V132.506Z" fill="#C7C7C7"/>
<path id="Vector_218" d="M63.3279 145.043H37.7568V237.9H63.3279V145.043Z" fill="#DBDBDB"/>
<path id="Vector_219" d="M63.3279 153.904H37.7568V156.097H63.3279V153.904Z" fill="white"/>
<path id="Vector_220" d="M63.3279 162.988H37.7568V165.181H63.3279V162.988Z" fill="white"/>
<path id="Vector_221" d="M63.3279 172.08H37.7568V174.273H63.3279V172.08Z" fill="white"/>
<path id="Vector_222" d="M63.3279 181.172H37.7568V183.365H63.3279V181.172Z" fill="white"/>
<path id="Vector_223" d="M63.3279 190.256H37.7568V192.449H63.3279V190.256Z" fill="white"/>
<path id="Vector_224" d="M63.3279 199.348H37.7568V201.54H63.3279V199.348Z" fill="white"/>
<path id="Vector_225" d="M63.3279 208.439H37.7568V210.632H63.3279V208.439Z" fill="white"/>
<path id="Vector_226" d="M63.3279 217.523H37.7568V219.716H63.3279V217.523Z" fill="white"/>
<path id="Vector_227" d="M63.3279 226.615H37.7568V228.808H63.3279V226.615Z" fill="white"/>
<path id="Vector_228" d="M63.3279 235.707H37.7568V237.9H63.3279V235.707Z" fill="white"/>
<path id="Vector_229" d="M87.4319 140.742H66.9185V237.9H87.4319V140.742Z" fill="#DBDBDB"/>
<path id="Vector_230" d="M84.3529 132.506H66.9185V140.742H84.3529V132.506Z" fill="#A6A6A6"/>
<path id="Vector_231" d="M85.5222 145.043H69.7456V237.9H85.5222V145.043Z" fill="#C7C7C7"/>
<path id="Vector_232" d="M85.5222 153.904H69.7456V156.097H85.5222V153.904Z" fill="white"/>
<path id="Vector_233" d="M85.5222 162.988H69.7456V165.181H85.5222V162.988Z" fill="white"/>
<path id="Vector_234" d="M85.5222 172.08H69.7456V174.273H85.5222V172.08Z" fill="white"/>
<path id="Vector_235" d="M85.5222 181.172H69.7456V183.365H85.5222V181.172Z" fill="white"/>
<path id="Vector_236" d="M85.5222 190.256H69.7456V192.449H85.5222V190.256Z" fill="white"/>
<path id="Vector_237" d="M85.5222 199.348H69.7456V201.54H85.5222V199.348Z" fill="white"/>
<path id="Vector_238" d="M85.5222 208.439H69.7456V210.632H85.5222V208.439Z" fill="white"/>
<path id="Vector_239" d="M85.5222 217.523H69.7456V219.716H85.5222V217.523Z" fill="white"/>
<path id="Vector_240" d="M85.5222 226.615H69.7456V228.808H85.5222V226.615Z" fill="white"/>
<path id="Vector_241" d="M85.5222 235.707H69.7456V237.9H85.5222V235.707Z" fill="white"/>
<path id="Vector_242" d="M149.958 181.02H124.639V237.899H149.958V181.02Z" fill="#DBDBDB"/>
<path id="Vector_243" d="M133.097 185.947H128.62V189.431H133.097V185.947Z" fill="#C7C7C7"/>
<path id="Vector_244" d="M133.097 193.389H128.62V196.873H133.097V193.389Z" fill="#C7C7C7"/>
<path id="Vector_245" d="M133.097 200.83H128.62V204.314H133.097V200.83Z" fill="#C7C7C7"/>
<path id="Vector_246" d="M133.097 208.271H128.62V211.755H133.097V208.271Z" fill="#C7C7C7"/>
<path id="Vector_247" d="M133.097 215.721H128.62V219.205H133.097V215.721Z" fill="#C7C7C7"/>
<path id="Vector_248" d="M133.097 223.162H128.62V226.646H133.097V223.162Z" fill="#C7C7C7"/>
<path id="Vector_249" d="M133.097 230.604H128.62V234.087H133.097V230.604Z" fill="#C7C7C7"/>
<path id="Vector_250" d="M139.552 185.947H135.067V189.431H139.552V185.947Z" fill="#C7C7C7"/>
<path id="Vector_251" d="M139.552 193.389H135.067V196.873H139.552V193.389Z" fill="#C7C7C7"/>
<path id="Vector_252" d="M139.552 200.83H135.067V204.314H139.552V200.83Z" fill="#C7C7C7"/>
<path id="Vector_253" d="M139.552 208.271H135.067V211.755H139.552V208.271Z" fill="#C7C7C7"/>
<path id="Vector_254" d="M139.552 215.721H135.067V219.205H139.552V215.721Z" fill="#C7C7C7"/>
<path id="Vector_255" d="M139.552 223.162H135.067V226.646H139.552V223.162Z" fill="#C7C7C7"/>
<path id="Vector_256" d="M139.552 230.604H135.067V234.087H139.552V230.604Z" fill="#C7C7C7"/>
<path id="Vector_257" d="M145.985 185.947H141.5V189.431H145.985V185.947Z" fill="#C7C7C7"/>
<path id="Vector_258" d="M145.985 193.389H141.5V196.873H145.985V193.389Z" fill="#C7C7C7"/>
<path id="Vector_259" d="M145.985 200.83H141.5V204.314H145.985V200.83Z" fill="#C7C7C7"/>
<path id="Vector_260" d="M145.985 208.271H141.5V211.755H145.985V208.271Z" fill="#C7C7C7"/>
<path id="Vector_261" d="M145.985 215.721H141.5V219.205H145.985V215.721Z" fill="#C7C7C7"/>
<path id="Vector_262" d="M145.985 223.162H141.5V226.646H145.985V223.162Z" fill="#C7C7C7"/>
<path id="Vector_263" d="M145.985 230.604H141.5V234.087H145.985V230.604Z" fill="#C7C7C7"/>
<path id="Vector_264" d="M167.721 181.02H149.958V237.899H167.721V181.02Z" fill="#A6A6A6"/>
<path id="Vector_265" d="M162.266 233.537H165.91V230.053H162.266V233.537Z" fill="#C7C7C7"/>
<path id="Vector_266" d="M162.266 226.088H165.91V222.604H162.266V226.088Z" fill="#C7C7C7"/>
<path id="Vector_267" d="M162.266 218.646H165.91V215.163H162.266V218.646Z" fill="#C7C7C7"/>
<path id="Vector_268" d="M162.266 211.197H165.91V207.713H162.266V211.197Z" fill="#C7C7C7"/>
<path id="Vector_269" d="M162.266 203.764H165.91V200.28H162.266V203.764Z" fill="#C7C7C7"/>
<path id="Vector_270" d="M162.266 196.314H165.91V192.831H162.266V196.314Z" fill="#C7C7C7"/>
<path id="Vector_271" d="M162.266 188.873H165.91V185.389H162.266V188.873Z" fill="#C7C7C7"/>
<path id="Vector_272" d="M157.017 233.537H160.662V230.053H157.017V233.537Z" fill="#C7C7C7"/>
<path id="Vector_273" d="M157.017 226.088H160.662V222.604H157.017V226.088Z" fill="#C7C7C7"/>
<path id="Vector_274" d="M157.017 218.646H160.662V215.163H157.017V218.646Z" fill="#C7C7C7"/>
<path id="Vector_275" d="M157.017 211.197H160.662V207.713H157.017V211.197Z" fill="#C7C7C7"/>
<path id="Vector_276" d="M157.017 203.764H160.662V200.28H157.017V203.764Z" fill="#C7C7C7"/>
<path id="Vector_277" d="M157.017 196.314H160.662V192.831H157.017V196.314Z" fill="#C7C7C7"/>
<path id="Vector_278" d="M157.017 188.873H160.662V185.389H157.017V188.873Z" fill="#C7C7C7"/>
<path id="Vector_279" d="M151.784 233.537H155.428V230.053H151.784V233.537Z" fill="#C7C7C7"/>
<path id="Vector_280" d="M151.784 226.088H155.428V222.604H151.784V226.088Z" fill="#C7C7C7"/>
<path id="Vector_281" d="M151.784 218.646H155.428V215.163H151.784V218.646Z" fill="#C7C7C7"/>
<path id="Vector_282" d="M151.784 211.197H155.428V207.713H151.784V211.197Z" fill="#C7C7C7"/>
<path id="Vector_283" d="M151.784 203.764H155.428V200.28H151.784V203.764Z" fill="#C7C7C7"/>
<path id="Vector_284" d="M151.784 196.314H155.428V192.831H151.784V196.314Z" fill="#C7C7C7"/>
<path id="Vector_285" d="M151.784 188.873H155.428V185.389H151.784V188.873Z" fill="#C7C7C7"/>
<path id="Vector_286" d="M320.834 115.781H303.338V136.447H320.834V115.781Z" fill="#DBDBDB"/>
<path id="Vector_287" d="M331.927 115.781H320.834V137.204H331.927V115.781Z" fill="#C7C7C7"/>
<path id="Vector_288" d="M332.661 124.904H321.652V137.205H332.661V124.904Z" fill="#DBDBDB"/>
<path id="Vector_289" d="M339.529 124.904H332.661V137.205H339.529V124.904Z" fill="#C7C7C7"/>
<path id="Vector_290" d="M324.914 135.096H296.631V237.9H324.914V135.096Z" fill="#EBEBEB"/>
<path id="Vector_291" d="M308.755 139.52H299.862V143.156H308.755V139.52Z" fill="white"/>
<path id="Vector_292" d="M320.131 139.52H311.238V143.156H320.131V139.52Z" fill="white"/>
<path id="Vector_293" d="M308.755 145.691H299.862V149.328H308.755V145.691Z" fill="white"/>
<path id="Vector_294" d="M320.131 145.691H311.238V149.328H320.131V145.691Z" fill="white"/>
<path id="Vector_295" d="M308.755 151.857H299.862V155.494H308.755V151.857Z" fill="white"/>
<path id="Vector_296" d="M320.131 151.857H311.238V155.494H320.131V151.857Z" fill="white"/>
<path id="Vector_297" d="M308.755 158.031H299.862V161.668H308.755V158.031Z" fill="white"/>
<path id="Vector_298" d="M320.131 158.031H311.238V161.668H320.131V158.031Z" fill="white"/>
<path id="Vector_299" d="M308.755 164.195H299.862V167.832H308.755V164.195Z" fill="white"/>
<path id="Vector_300" d="M320.131 164.195H311.238V167.832H320.131V164.195Z" fill="white"/>
<path id="Vector_301" d="M308.755 170.369H299.862V174.006H308.755V170.369Z" fill="white"/>
<path id="Vector_302" d="M320.131 170.369H311.238V174.006H320.131V170.369Z" fill="white"/>
<path id="Vector_303" d="M308.755 176.543H299.862V180.18H308.755V176.543Z" fill="white"/>
<path id="Vector_304" d="M320.131 176.543H311.238V180.18H320.131V176.543Z" fill="white"/>
<path id="Vector_305" d="M308.755 182.707H299.862V186.344H308.755V182.707Z" fill="white"/>
<path id="Vector_306" d="M320.131 182.707H311.238V186.344H320.131V182.707Z" fill="white"/>
<path id="Vector_307" d="M308.755 188.881H299.862V192.517H308.755V188.881Z" fill="white"/>
<path id="Vector_308" d="M320.131 188.881H311.238V192.517H320.131V188.881Z" fill="white"/>
<path id="Vector_309" d="M308.755 195.055H299.862V198.691H308.755V195.055Z" fill="white"/>
<path id="Vector_310" d="M320.131 195.055H311.238V198.691H320.131V195.055Z" fill="white"/>
<path id="Vector_311" d="M308.755 201.219H299.862V204.855H308.755V201.219Z" fill="white"/>
<path id="Vector_312" d="M320.131 201.219H311.238V204.855H320.131V201.219Z" fill="white"/>
<path id="Vector_313" d="M308.755 207.393H299.862V211.029H308.755V207.393Z" fill="white"/>
<path id="Vector_314" d="M320.131 207.393H311.238V211.029H320.131V207.393Z" fill="white"/>
<path id="Vector_315" d="M308.755 213.566H299.862V217.203H308.755V213.566Z" fill="white"/>
<path id="Vector_316" d="M320.131 213.566H311.238V217.203H320.131V213.566Z" fill="white"/>
<path id="Vector_317" d="M308.755 219.73H299.862V223.367H308.755V219.73Z" fill="white"/>
<path id="Vector_318" d="M320.131 219.73H311.238V223.367H320.131V219.73Z" fill="white"/>
<path id="Vector_319" d="M347.834 135.096H324.914V237.9H347.834V135.096Z" fill="#C7C7C7"/>
<path id="Vector_320" d="M338.23 223.367H345.534V219.731H338.23V223.367Z" fill="#EBEBEB"/>
<path id="Vector_321" d="M328.894 223.367H336.198V219.731H328.894V223.367Z" fill="#EBEBEB"/>
<path id="Vector_322" d="M338.23 217.195H345.534V213.559H338.23V217.195Z" fill="#EBEBEB"/>
<path id="Vector_323" d="M328.894 217.195H336.198V213.559H328.894V217.195Z" fill="#EBEBEB"/>
<path id="Vector_324" d="M338.23 211.029H345.534V207.393H338.23V211.029Z" fill="#EBEBEB"/>
<path id="Vector_325" d="M328.894 211.029H336.198V207.393H328.894V211.029Z" fill="#EBEBEB"/>
<path id="Vector_326" d="M338.23 204.855H345.534V201.219H338.23V204.855Z" fill="#EBEBEB"/>
<path id="Vector_327" d="M328.894 204.855H336.198V201.219H328.894V204.855Z" fill="#EBEBEB"/>
<path id="Vector_328" d="M338.23 198.684H345.534V195.047H338.23V198.684Z" fill="#EBEBEB"/>
<path id="Vector_329" d="M328.894 198.684H336.198V195.047H328.894V198.684Z" fill="#EBEBEB"/>
<path id="Vector_330" d="M338.23 192.518H345.534V188.881H338.23V192.518Z" fill="#EBEBEB"/>
<path id="Vector_331" d="M328.894 192.518H336.198V188.881H328.894V192.518Z" fill="#EBEBEB"/>
<path id="Vector_332" d="M338.23 186.352H345.534V182.715H338.23V186.352Z" fill="#EBEBEB"/>
<path id="Vector_333" d="M328.894 186.352H336.198V182.715H328.894V186.352Z" fill="#EBEBEB"/>
<path id="Vector_334" d="M338.23 180.172H345.534V176.535H338.23V180.172Z" fill="#EBEBEB"/>
<path id="Vector_335" d="M328.894 180.172H336.198V176.535H328.894V180.172Z" fill="#EBEBEB"/>
<path id="Vector_336" d="M338.23 174.006H345.534V170.369H338.23V174.006Z" fill="#EBEBEB"/>
<path id="Vector_337" d="M328.894 174.006H336.198V170.369H328.894V174.006Z" fill="#EBEBEB"/>
<path id="Vector_338" d="M338.23 167.84H345.534V164.203H338.23V167.84Z" fill="#EBEBEB"/>
<path id="Vector_339" d="M328.894 167.84H336.198V164.203H328.894V167.84Z" fill="#EBEBEB"/>
<path id="Vector_340" d="M338.23 161.66H345.534V158.024H338.23V161.66Z" fill="#EBEBEB"/>
<path id="Vector_341" d="M328.894 161.66H336.198V158.024H328.894V161.66Z" fill="#EBEBEB"/>
<path id="Vector_342" d="M338.23 155.494H345.534V151.857H338.23V155.494Z" fill="#EBEBEB"/>
<path id="Vector_343" d="M328.894 155.494H336.198V151.857H328.894V155.494Z" fill="#EBEBEB"/>
<path id="Vector_344" d="M338.23 149.32H345.534V145.684H338.23V149.32Z" fill="#EBEBEB"/>
<path id="Vector_345" d="M328.894 149.32H336.198V145.684H328.894V149.32Z" fill="#EBEBEB"/>
<path id="Vector_346" d="M338.23 143.148H345.534V139.512H338.23V143.148Z" fill="#EBEBEB"/>
<path id="Vector_347" d="M328.894 143.148H336.198V139.512H328.894V143.148Z" fill="#EBEBEB"/>
<path id="Vector_348" d="M222.744 170.912H189.38V237.9H222.744V170.912Z" fill="#C7C7C7"/>
<path id="Vector_349" d="M200.535 176.711H194.629V180.814H200.535V176.711Z" fill="#DBDBDB"/>
<path id="Vector_350" d="M200.535 185.48H194.629V189.583H200.535V185.48Z" fill="#DBDBDB"/>
<path id="Vector_351" d="M200.535 194.244H194.629V198.347H200.535V194.244Z" fill="#DBDBDB"/>
<path id="Vector_352" d="M200.535 203.008H194.629V207.11H200.535V203.008Z" fill="#DBDBDB"/>
<path id="Vector_353" d="M200.535 211.777H194.629V215.88H200.535V211.777Z" fill="#DBDBDB"/>
<path id="Vector_354" d="M200.535 220.541H194.629V224.644H200.535V220.541Z" fill="#DBDBDB"/>
<path id="Vector_355" d="M200.535 229.305H194.629V233.407H200.535V229.305Z" fill="#DBDBDB"/>
<path id="Vector_356" d="M209.03 176.711H203.125V180.814H209.03V176.711Z" fill="#DBDBDB"/>
<path id="Vector_357" d="M209.03 185.48H203.125V189.583H209.03V185.48Z" fill="#DBDBDB"/>
<path id="Vector_358" d="M209.03 194.244H203.125V198.347H209.03V194.244Z" fill="#DBDBDB"/>
<path id="Vector_359" d="M209.03 203.008H203.125V207.11H209.03V203.008Z" fill="#DBDBDB"/>
<path id="Vector_360" d="M209.03 211.777H203.125V215.88H209.03V211.777Z" fill="#DBDBDB"/>
<path id="Vector_361" d="M209.03 220.541H203.125V224.644H209.03V220.541Z" fill="#DBDBDB"/>
<path id="Vector_362" d="M209.03 229.305H203.125V233.407H209.03V229.305Z" fill="#DBDBDB"/>
<path id="Vector_363" d="M217.503 176.711H211.598V180.814H217.503V176.711Z" fill="#DBDBDB"/>
<path id="Vector_364" d="M217.503 185.48H211.598V189.583H217.503V185.48Z" fill="#DBDBDB"/>
<path id="Vector_365" d="M217.503 194.244H211.598V198.347H217.503V194.244Z" fill="#DBDBDB"/>
<path id="Vector_366" d="M217.503 203.008H211.598V207.11H217.503V203.008Z" fill="#DBDBDB"/>
<path id="Vector_367" d="M217.503 211.777H211.598V215.88H217.503V211.777Z" fill="#DBDBDB"/>
<path id="Vector_368" d="M217.503 220.541H211.598V224.644H217.503V220.541Z" fill="#DBDBDB"/>
<path id="Vector_369" d="M217.503 229.305H211.598V233.407H217.503V229.305Z" fill="#DBDBDB"/>
<path id="Vector_370" d="M222.744 163.936H200.535V170.919H222.744V163.936Z" fill="#DBDBDB"/>
<path id="Vector_371" d="M222.744 159.611H208.664V163.936H222.744V159.611Z" fill="#EBEBEB"/>
<path id="Vector_372" d="M246.153 170.912H222.744V237.9H246.153V170.912Z" fill="#A6A6A6"/>
<path id="Vector_373" d="M238.956 232.758H243.762V228.655H238.956V232.758Z" fill="#C7C7C7"/>
<path id="Vector_374" d="M238.956 223.994H243.762V219.891H238.956V223.994Z" fill="#C7C7C7"/>
<path id="Vector_375" d="M238.956 215.223H243.762V211.12H238.956V215.223Z" fill="#C7C7C7"/>
<path id="Vector_376" d="M238.956 206.453H243.762V202.35H238.956V206.453Z" fill="#C7C7C7"/>
<path id="Vector_377" d="M238.956 197.697H243.762V193.595H238.956V197.697Z" fill="#C7C7C7"/>
<path id="Vector_378" d="M238.956 188.926H243.762V184.823H238.956V188.926Z" fill="#C7C7C7"/>
<path id="Vector_379" d="M238.956 180.164H243.762V176.061H238.956V180.164Z" fill="#C7C7C7"/>
<path id="Vector_380" d="M232.042 232.758H236.848V228.655H232.042V232.758Z" fill="#C7C7C7"/>
<path id="Vector_381" d="M232.042 223.994H236.848V219.891H232.042V223.994Z" fill="#C7C7C7"/>
<path id="Vector_382" d="M232.042 215.223H236.848V211.12H232.042V215.223Z" fill="#C7C7C7"/>
<path id="Vector_383" d="M232.042 206.453H236.848V202.35H232.042V206.453Z" fill="#C7C7C7"/>
<path id="Vector_384" d="M232.042 197.697H236.848V193.595H232.042V197.697Z" fill="#C7C7C7"/>
<path id="Vector_385" d="M232.042 188.926H236.848V184.823H232.042V188.926Z" fill="#C7C7C7"/>
<path id="Vector_386" d="M232.042 180.164H236.848V176.061H232.042V180.164Z" fill="#C7C7C7"/>
<path id="Vector_387" d="M225.143 232.758H229.949V228.655H225.143V232.758Z" fill="#C7C7C7"/>
<path id="Vector_388" d="M225.143 223.994H229.949V219.891H225.143V223.994Z" fill="#C7C7C7"/>
<path id="Vector_389" d="M225.143 215.223H229.949V211.12H225.143V215.223Z" fill="#C7C7C7"/>
<path id="Vector_390" d="M225.143 206.453H229.949V202.35H225.143V206.453Z" fill="#C7C7C7"/>
<path id="Vector_391" d="M225.143 197.697H229.949V193.595H225.143V197.697Z" fill="#C7C7C7"/>
<path id="Vector_392" d="M225.143 188.926H229.949V184.823H225.143V188.926Z" fill="#C7C7C7"/>
<path id="Vector_393" d="M225.143 180.164H229.949V176.061H225.143V180.164Z" fill="#C7C7C7"/>
<path id="Vector_394" d="M242.608 163.936H222.744V170.919H242.608V163.936Z" fill="#C7C7C7"/>
<path id="Vector_395" d="M233.509 159.611H222.744V163.936H233.509V159.611Z" fill="#DBDBDB"/>
</g>
<g id="freepik--Shadow--inject-99">
<path id="Vector_396" d="M191 331.75C271.009 331.75 335.869 326.479 335.869 319.976C335.869 313.474 271.009 308.203 191 308.203C110.99 308.203 46.1299 313.474 46.1299 319.976C46.1299 326.479 110.99 331.75 191 331.75Z" fill="#EBEBEB"/>
</g>
<g id="freepik--Floor--inject-99">
<path id="Vector_397" d="M29.8799 243.452L70.158 243.269L110.444 243.2L191 243.07L271.556 243.2L311.842 243.261L352.12 243.452L311.842 243.636L271.556 243.704L191 243.834L110.444 243.704L70.158 243.636L29.8799 243.452Z" fill="#263238"/>
<path id="Vector_398" d="M350.393 237.898H31.5991V243.453H350.393V237.898Z" fill="#C7C7C7"/>
<path id="Vector_399" d="M53.9535 237.898C54.4526 239.716 54.4526 241.635 53.9535 243.453C53.685 242.553 53.5562 241.618 53.5715 240.679C53.5589 239.739 53.6877 238.801 53.9535 237.898Z" fill="#263238"/>
<path id="Vector_400" d="M78.8675 237.898C79.1333 238.801 79.2621 239.739 79.2495 240.679C79.2649 241.618 79.136 242.553 78.8675 243.453C78.3684 241.635 78.3684 239.716 78.8675 237.898Z" fill="#263238"/>
<path id="Vector_401" d="M103.789 237.898C104.288 239.716 104.288 241.635 103.789 243.453C103.52 242.553 103.392 241.618 103.407 240.679C103.394 239.739 103.523 238.801 103.789 237.898Z" fill="#263238"/>
<path id="Vector_402" d="M128.703 237.898C128.969 238.801 129.098 239.739 129.085 240.679C129.101 241.618 128.972 242.553 128.703 243.453C128.204 241.635 128.204 239.716 128.703 237.898Z" fill="#263238"/>
<path id="Vector_403" d="M153.625 237.898C154.124 239.716 154.124 241.635 153.625 243.453C153.356 242.553 153.228 241.618 153.243 240.679C153.23 239.739 153.359 238.801 153.625 237.898Z" fill="#263238"/>
<path id="Vector_404" d="M178.539 237.898C178.805 238.801 178.933 239.739 178.921 240.679C178.936 241.618 178.807 242.553 178.539 243.453C178.04 241.635 178.04 239.716 178.539 237.898Z" fill="#263238"/>
<path id="Vector_405" d="M203.461 237.898C203.96 239.716 203.96 241.635 203.461 243.453C203.192 242.553 203.063 241.618 203.079 240.679C203.066 239.739 203.195 238.801 203.461 237.898Z" fill="#263238"/>
<path id="Vector_406" d="M228.375 237.898C228.641 238.801 228.769 239.739 228.757 240.679C228.772 241.618 228.643 242.553 228.375 243.453C227.876 241.635 227.876 239.716 228.375 237.898Z" fill="#263238"/>
<path id="Vector_407" d="M253.296 237.898C253.795 239.716 253.795 241.635 253.296 243.453C253.028 242.553 252.899 241.618 252.914 240.679C252.902 239.739 253.03 238.801 253.296 237.898Z" fill="#263238"/>
<path id="Vector_408" d="M278.21 237.898C278.476 238.801 278.605 239.739 278.592 240.679C278.608 241.618 278.479 242.553 278.21 243.453C277.711 241.635 277.711 239.716 278.21 237.898Z" fill="#263238"/>
<path id="Vector_409" d="M303.132 237.898C303.631 239.716 303.631 241.635 303.132 243.453C302.864 242.553 302.735 241.618 302.75 240.679C302.738 239.739 302.866 238.801 303.132 237.898Z" fill="#263238"/>
<path id="Vector_410" d="M328.046 237.898C328.312 238.801 328.441 239.739 328.428 240.679C328.444 241.618 328.315 242.553 328.046 243.453C327.547 241.635 327.547 239.716 328.046 237.898Z" fill="#263238"/>
</g>
<g id="freepik--Plants--inject-99">
<path id="Vector_411" d="M67.5534 237.9C67.5534 237.9 66.9116 234.897 65.6281 234.439C64.3446 233.981 63.5576 235.325 63.5576 235.325C63.5576 235.325 63.2597 232.453 61.4337 231.597C59.6078 230.741 58.2478 232.498 58.2478 232.498C58.2478 232.498 56.8497 228.885 54.3514 228.885C51.8532 228.885 50.6002 234.233 50.6002 234.233C50.6002 234.233 49.1257 232.651 47.613 233.545C46.1002 234.439 46.085 237.953 46.085 237.953L67.5534 237.9Z" fill="#37474F"/>
<path id="Vector_412" d="M280.587 237.9C280.587 237.9 279.945 234.897 278.662 234.439C277.378 233.981 276.599 235.325 276.599 235.325C276.599 235.325 276.293 232.453 274.475 231.597C272.657 230.741 271.289 232.498 271.289 232.498C271.289 232.498 269.891 228.885 267.4 228.885C264.91 228.885 263.641 234.233 263.641 234.233C263.641 234.233 262.175 232.651 260.662 233.545C259.149 234.439 259.134 237.953 259.134 237.953L280.587 237.9Z" fill="#455A64"/>
<path id="Vector_413" d="M124.303 237.9H101.727C101.727 237.9 102.491 234.722 103.966 234.493C104.423 234.448 104.883 234.545 105.282 234.772C105.682 234.999 106.001 235.345 106.196 235.761C106.196 235.761 106.128 231.322 108.924 230.566C111.72 229.809 114.058 233.729 114.058 233.729C114.058 233.729 115.815 231.49 118.199 231.635C120.583 231.78 121.201 235.455 121.201 235.455C121.201 235.455 123.341 234.179 124.303 237.9Z" fill="#37474F"/>
<path id="Vector_414" d="M47.4906 237.9H35.6104C35.6104 237.9 35.6103 236.135 36.8022 235.661C37.1198 235.524 37.4733 235.494 37.8095 235.576C38.1457 235.657 38.4464 235.845 38.6664 236.112C38.6664 236.112 39.14 232.857 41.3174 232.857C43.4948 232.857 44.5415 235.661 44.5415 235.661C44.7262 235.394 44.9852 235.186 45.2866 235.064C45.588 234.941 45.9186 234.91 46.2376 234.974C47.4447 235.126 47.4906 237.9 47.4906 237.9Z" fill="#455A64"/>
<path id="Vector_415" d="M133.624 237.9H121.744C121.744 237.9 121.744 236.135 122.935 235.661C123.253 235.524 123.607 235.494 123.943 235.576C124.279 235.657 124.58 235.845 124.8 236.112C124.8 236.112 125.281 232.857 127.458 232.857C129.636 232.857 130.675 235.661 130.675 235.661C130.86 235.394 131.119 235.186 131.42 235.064C131.721 234.941 132.052 234.91 132.371 234.974C133.578 235.126 133.624 237.9 133.624 237.9Z" fill="#455A64"/>
<path id="Vector_416" d="M329.055 237.9H317.175C317.175 237.9 317.175 236.135 318.367 235.661C318.684 235.524 319.038 235.494 319.374 235.576C319.71 235.657 320.011 235.845 320.231 236.112C320.231 236.112 320.704 232.857 322.882 232.857C325.059 232.857 326.106 235.661 326.106 235.661C326.29 235.393 326.549 235.185 326.851 235.062C327.152 234.94 327.483 234.909 327.802 234.974C329.009 235.126 329.055 237.9 329.055 237.9Z" fill="#455A64"/>
<path id="Vector_417" d="M346.39 237.899H326.801C326.801 237.899 326.847 234.981 328.772 234.209C329.296 233.989 329.877 233.945 330.428 234.082C330.978 234.22 331.47 234.533 331.828 234.973C331.828 234.973 332.592 229.625 336.206 229.625C339.82 229.625 341.508 234.232 341.508 234.232C341.813 233.79 342.239 233.447 342.736 233.245C343.233 233.043 343.778 232.99 344.305 233.094C346.314 233.33 346.39 237.899 346.39 237.899Z" fill="#37474F"/>
</g>
<g id="freepik--Chronometer--inject-99">
<path id="Vector_418" d="M258.117 12.9395H245.053V20.3426H258.117V12.9395Z" fill="#263238"/>
<path id="Vector_419" d="M259.959 10.4492H243.204V15.293H259.959V10.4492Z" fill="#455A64"/>
<path id="Vector_420" d="M228.906 20.2563L225.346 23.8164L230.97 29.4402L234.53 25.8801L228.906 20.2563Z" fill="#263238"/>
<path id="Vector_421" d="M228.064 17.3145L222.408 22.9707L226.082 26.6443L231.738 20.9881L228.064 17.3145Z" fill="#455A64"/>
<path id="Vector_422" d="M268.639 25.8735L272.199 29.4336L277.823 23.8098L274.263 20.2497L268.639 25.8735Z" fill="#263238"/>
<path id="Vector_423" d="M271.416 20.9903L277.072 26.6465L280.746 22.9729L275.09 17.3167L271.416 20.9903Z" fill="#455A64"/>
<path id="Vector_424" d="M282.488 58.4124C286.493 41.3355 275.896 24.2451 258.819 20.2397C241.743 16.2344 224.652 26.8309 220.647 43.9078C216.641 60.9846 227.238 78.0751 244.315 82.0804C261.392 86.0858 278.482 75.4892 282.488 58.4124Z" fill="#455A64"/>
<path id="Vector_425" d="M251.195 80.9442C267.93 80.9442 281.496 67.3783 281.496 50.644C281.496 33.9096 267.93 20.3438 251.195 20.3438C234.461 20.3438 220.895 33.9096 220.895 50.644C220.895 67.3783 234.461 80.9442 251.195 80.9442Z" fill="#263238"/>
<path id="Vector_426" d="M278.056 54.8949C280.195 40.2697 270.072 26.6798 255.447 24.541C240.822 22.4022 227.232 32.5244 225.093 47.1496C222.955 61.7748 233.077 75.3647 247.702 77.5035C262.327 79.6423 275.917 69.5201 278.056 54.8949Z" fill="white"/>
<path id="Vector_427" opacity="0.5" d="M278.348 51.033H251.608V24.293C258.7 24.293 265.501 27.1102 270.516 32.1249C275.531 37.1397 278.348 43.9411 278.348 51.033Z" fill="#FA9B0D"/>
<path id="Vector_428" d="M251.845 26.2109H251.325V30.2678H251.845V26.2109Z" fill="#C7C7C7"/>
<path id="Vector_429" d="M239.392 29.3887L238.942 29.6484L240.97 33.1618L241.42 32.902L239.392 29.3887Z" fill="#C7C7C7"/>
<path id="Vector_430" d="M230.207 38.386L229.947 38.8359L233.46 40.8644L233.72 40.4144L230.207 38.386Z" fill="#C7C7C7"/>
<path id="Vector_431" d="M230.82 50.7734H226.763V51.293H230.82V50.7734Z" fill="#C7C7C7"/>
<path id="Vector_432" d="M234.381 61.4481L230.851 63.4766L231.111 63.9285L234.64 61.9001L234.381 61.4481Z" fill="#C7C7C7"/>
<path id="Vector_433" d="M240.973 68.888L238.946 72.4023L239.396 72.6619L241.423 69.1475L240.973 68.888Z" fill="#C7C7C7"/>
<path id="Vector_434" d="M251.845 71.7988H251.325V75.8557H251.845V71.7988Z" fill="#C7C7C7"/>
<path id="Vector_435" d="M262.185 68.8731L261.735 69.1328L263.763 72.6461L264.213 72.3864L262.185 68.8731Z" fill="#C7C7C7"/>
<path id="Vector_436" d="M269.692 61.1712L269.432 61.6211L272.945 63.6495L273.205 63.1996L269.692 61.1712Z" fill="#C7C7C7"/>
<path id="Vector_437" d="M276.407 50.7734H272.351V51.293H276.407V50.7734Z" fill="#C7C7C7"/>
<path id="Vector_438" d="M272.946 38.3817L269.433 40.4102L269.693 40.8601L273.206 38.8317L272.946 38.3817Z" fill="#C7C7C7"/>
<path id="Vector_439" d="M263.765 29.4L261.738 32.9141L262.188 33.1737L264.215 29.6596L263.765 29.4Z" fill="#C7C7C7"/>
<path id="Vector_440" d="M251.768 31.6658L252.96 52.6224L250.271 52.5842L251.043 31.6582L251.768 31.6658Z" fill="#FA9B0D"/>
<path id="Vector_441" d="M252.502 51.0338C252.502 51.217 252.447 51.396 252.345 51.5482C252.243 51.7004 252.099 51.8189 251.929 51.8886C251.76 51.9584 251.574 51.9762 251.394 51.9399C251.215 51.9036 251.05 51.8148 250.921 51.6848C250.792 51.5547 250.704 51.3893 250.67 51.2095C250.635 51.0296 250.654 50.8435 250.725 50.6748C250.797 50.506 250.916 50.3621 251.069 50.2615C251.222 50.1608 251.402 50.1079 251.585 50.1094C251.706 50.1094 251.826 50.1334 251.938 50.1799C252.049 50.2265 252.151 50.2947 252.236 50.3806C252.321 50.4666 252.388 50.5685 252.434 50.6807C252.48 50.7928 252.503 50.9128 252.502 51.0338Z" fill="#FA9B0D"/>
<path id="Vector_442" d="M270.983 51.3469L250.026 52.5311L250.065 49.8418L270.991 50.6134L270.983 51.3469Z" fill="#263238"/>
<path id="Vector_443" d="M252.502 51.0338C252.502 51.217 252.447 51.396 252.345 51.5482C252.243 51.7004 252.099 51.8189 251.929 51.8886C251.76 51.9584 251.574 51.9762 251.394 51.9399C251.215 51.9036 251.05 51.8148 250.921 51.6848C250.792 51.5547 250.704 51.3893 250.67 51.2095C250.635 51.0296 250.654 50.8435 250.725 50.6748C250.797 50.506 250.916 50.3621 251.069 50.2615C251.222 50.1608 251.402 50.1079 251.585 50.1094C251.706 50.1094 251.826 50.1334 251.938 50.1799C252.049 50.2265 252.151 50.2947 252.236 50.3806C252.321 50.4666 252.388 50.5685 252.434 50.6807C252.48 50.7928 252.503 50.9128 252.502 51.0338Z" fill="#FA9B0D"/>
</g>
<g id="freepik--Character--inject-99">
<path id="Vector_444" d="M142.768 108.556C146.703 123.568 151.83 133.37 155.268 136.762C163.503 144.891 181.244 146.694 191.221 150.835C194.468 152.188 203.445 131.59 200.122 129.787C197.67 128.45 169.188 124.844 166.766 124.103C165.52 123.721 156.07 111.413 150.722 104.491C142.104 93.3978 140.614 100.358 142.768 108.556Z" fill="#F7A9A0"/>
<path id="Vector_445" d="M206.815 153.721C205.287 153.683 205.233 154.485 207.365 156.25C209.496 158.015 219.421 163.126 217.335 166.45C215.249 169.773 201.352 162.316 198.029 159.123C194.705 155.929 190.435 149.604 190.435 149.604C193.437 150.513 200.932 152.018 206.815 153.721Z" fill="#F7A9A0"/>
<path id="Vector_446" d="M197.723 129.137C212.514 131.429 218.397 134.324 224.876 141.888C225.615 142.705 226.062 143.745 226.144 144.845C229.108 148.176 228.436 150.582 228.436 150.582C230.239 154.532 229.2 156.893 229.2 156.893C229.2 156.893 232.638 160.843 230.591 163.318C228.299 166.099 223.928 160.002 219.474 158.123C209.26 153.806 193.498 150.536 190.442 149.589L197.723 129.137Z" fill="#F7A9A0"/>
<path id="Vector_447" d="M211.918 146.097C214.924 147.321 217.842 148.75 220.651 150.376C223.612 152.342 226.421 154.528 229.055 156.916C229.072 156.926 229.093 156.93 229.114 156.927C229.134 156.924 229.153 156.914 229.167 156.899C229.181 156.884 229.19 156.864 229.192 156.844C229.193 156.823 229.188 156.803 229.177 156.786C224.542 151.672 218.594 147.927 211.979 145.96C211.826 145.914 211.765 146.029 211.918 146.097Z" fill="#263238"/>
<path id="Vector_448" d="M213.622 139.55C216.456 141.002 221.407 143.592 228.337 150.666C228.337 150.666 228.405 150.666 228.383 150.666C224.622 145.634 219.535 141.748 213.691 139.443C213.507 139.336 213.439 139.451 213.622 139.55Z" fill="#263238"/>
<path id="Vector_449" d="M214.608 136.051C219.321 138.709 221.957 140.978 226.106 144.86C226.106 144.86 226.167 144.86 226.144 144.821C221.904 139.916 219.81 138.618 214.684 135.875C214.501 135.783 214.424 135.944 214.608 136.051Z" fill="#263238"/>
<path id="Vector_450" d="M159.546 115.362L145.924 128.128C145.924 128.128 140.423 108.325 140.461 102.06C140.461 94.9934 144.098 96.552 148.865 101.296C153.632 106.041 159.546 115.362 159.546 115.362Z" fill="#FA9B0D"/>
<path id="Vector_451" opacity="0.1" d="M159.546 115.362L145.924 128.128C145.924 128.128 140.423 108.325 140.461 102.06C140.461 94.9934 144.098 96.552 148.865 101.296C153.632 106.041 159.546 115.362 159.546 115.362Z" fill="black"/>
<path id="Vector_452" d="M156.758 113.344C154.802 114.735 149.523 119.731 148.636 120.549C148.17 120.984 146.398 122.78 145.932 123.207C145.871 123.261 145.932 123.345 146.024 123.291C146.917 122.482 147.895 121.763 148.789 120.946C149.683 120.129 155.245 115.247 156.819 113.413C156.857 113.375 156.804 113.314 156.758 113.344Z" fill="#263238"/>
<path id="Vector_453" d="M231.737 268.56C229.888 269.163 176.652 267.032 174.658 265.741C174.414 265.595 173.466 255.358 173.466 255.358L179.624 216.02L214.577 216.486L207.831 250.102C207.831 250.102 215.532 253.647 221.881 256.741C225.793 258.635 229.192 260.37 229.972 261.004C232.019 262.639 233.593 267.964 231.737 268.56Z" fill="#F7A9A0"/>
<path id="Vector_454" d="M231.744 268.559C229.895 269.163 176.644 267.031 174.658 265.748C174.421 265.595 173.458 255.357 173.458 255.357L175.361 243.24L208.893 244.768L207.808 250.07C207.808 250.07 215.501 253.615 221.858 256.702C225.77 258.597 229.169 260.331 229.949 260.965C232.011 262.646 233.585 267.971 231.744 268.559Z" fill="#EBEBEB"/>
<path id="Vector_455" d="M231.713 268.613C229.826 269.202 176.239 267.956 174.23 266.612C173.466 266.115 173.183 258.292 173.122 248.833V248.543L207.708 248.963V249.544C207.708 249.544 228.008 259.201 230.063 260.912C232.118 262.623 233.6 268.048 231.713 268.613Z" fill="#C7C7C7"/>
<path id="Vector_456" d="M228.657 268.766C216.93 268.888 175.941 267.788 174.23 266.619C173.466 266.123 173.183 258.299 173.122 248.841V248.551L194.781 248.811L228.657 268.766Z" fill="#A6A6A6"/>
<path id="Vector_457" d="M231.156 266.534C222.125 266.099 185.667 265.205 176.713 265.464C176.637 265.464 176.637 265.518 176.713 265.526C185.652 266.144 222.11 266.74 231.148 266.679C231.339 266.679 231.347 266.542 231.156 266.534Z" fill="#263238"/>
<path id="Vector_458" d="M210.581 249.728C207.044 248.964 202.681 249.422 199.885 251.897C199.778 251.989 199.885 252.142 200.03 252.104C203.453 251.088 206.975 250.443 210.535 250.178C210.59 250.176 210.642 250.153 210.682 250.116C210.721 250.078 210.746 250.027 210.752 249.973C210.757 249.918 210.743 249.864 210.712 249.819C210.681 249.774 210.634 249.741 210.581 249.728Z" fill="#263238"/>
<path id="Vector_459" d="M213.11 251.332C209.573 250.568 205.21 251.034 202.414 253.501C202.307 253.593 202.414 253.746 202.559 253.715C205.99 252.703 209.519 252.063 213.087 251.805C213.15 251.808 213.211 251.786 213.258 251.744C213.304 251.702 213.332 251.643 213.335 251.58C213.338 251.517 213.316 251.456 213.274 251.409C213.232 251.363 213.173 251.335 213.11 251.332Z" fill="#263238"/>
<path id="Vector_460" d="M215.639 252.935C212.101 252.171 207.739 252.637 204.943 255.105C204.836 255.204 204.943 255.349 205.088 255.319C208.511 254.301 212.032 253.653 215.593 253.386C215.648 253.383 215.7 253.361 215.739 253.323C215.779 253.285 215.804 253.235 215.809 253.18C215.815 253.126 215.801 253.071 215.769 253.026C215.738 252.981 215.692 252.949 215.639 252.935Z" fill="#263238"/>
<path id="Vector_461" d="M210.765 245.013L171.747 243.24C171.747 243.24 185.232 188.484 183.795 186.704C182.267 184.794 125.777 198.928 114.485 184.916C102.918 170.561 108.717 149.895 108.717 149.895H147.246C147.246 149.895 146.482 155.067 147.001 157.535C147.001 157.535 201.245 149.237 213.041 155.487C215.333 156.717 223.737 163.624 223.875 170.171C224.616 199.088 210.765 245.013 210.765 245.013Z" fill="#455A64"/>
<path id="Vector_462" d="M211.154 237.945C206.524 237.364 201.887 237.013 197.234 236.662C192.581 236.31 187.929 236.035 183.276 235.859C180.648 235.752 178.02 235.775 175.391 235.684C175.378 235.688 175.366 235.697 175.358 235.709C175.35 235.72 175.345 235.734 175.345 235.749C175.345 235.763 175.35 235.777 175.358 235.788C175.366 235.8 175.378 235.809 175.391 235.813C177.729 235.982 180.059 236.28 182.397 236.463L189.319 236.967C193.972 237.273 198.625 237.532 203.277 237.815C205.898 237.976 208.518 238.06 211.147 238.121C211.166 238.116 211.183 238.105 211.195 238.09C211.208 238.074 211.215 238.056 211.216 238.036C211.217 238.016 211.211 237.996 211.2 237.98C211.189 237.964 211.173 237.951 211.154 237.945Z" fill="#263238"/>
<path id="Vector_463" d="M189.808 182.816C182.313 183.06 174.857 183.71 167.4 184.443C159.943 185.177 152.441 185.971 144.923 186.46C141.195 186.697 137.451 186.85 133.708 186.873C130.598 187.006 127.486 186.682 124.471 185.91C121.477 185.035 118.919 183.073 117.297 180.409C115.666 177.71 114.598 174.708 114.157 171.585C113.171 165.267 114.157 158.811 115.31 152.577C115.456 151.813 115.601 151.049 115.738 150.224C115.738 150.155 115.639 150.124 115.616 150.224C114.088 156.511 112.659 162.983 113.118 169.477C113.305 172.663 114.082 175.787 115.41 178.69C116.607 181.511 118.666 183.881 121.293 185.459C123.974 186.987 127.145 187.438 130.224 187.591C133.815 187.774 137.451 187.591 141.042 187.43C148.728 187.056 156.383 186.262 164.023 185.467C171.663 184.672 179.265 183.893 186.943 183.511C187.791 183.465 188.639 183.435 189.487 183.404C188.326 190.28 178.493 231.215 177.943 234.455C177.89 234.776 178.195 234.875 178.279 234.546C179.96 228.167 189.503 187.178 190.137 183.175C190.147 183.128 190.146 183.08 190.133 183.034C190.121 182.988 190.098 182.946 190.065 182.91C190.033 182.875 189.993 182.848 189.948 182.832C189.903 182.815 189.855 182.81 189.808 182.816Z" fill="#263238"/>
<path id="Vector_464" d="M219.887 270.156H136.504V279.378H219.887V270.156Z" fill="#FA9B0D"/>
<path id="Vector_465" d="M63.2285 189.256H67.9577L98.5177 224.217H93.7885L63.2285 189.256Z" fill="#A6A6A6"/>
<path id="Vector_466" d="M122.79 186.482H57.0708V189.248H122.79V186.482Z" fill="#A6A6A6"/>
<path id="Vector_467" d="M81.0601 189.256H85.7892L116.349 224.217H111.62L81.0601 189.256Z" fill="#A6A6A6"/>
<path id="Vector_468" d="M111.467 253.707C135.213 253.707 148.972 270.202 148.972 289.615C148.972 309.028 136.229 325.149 113.072 325.149C87.4473 325.149 75.208 304.765 75.208 289.439C75.208 274.113 87.432 253.707 111.467 253.707Z" fill="#37474F"/>
<path id="Vector_469" d="M107.816 253.707C130.392 253.707 143.464 270.202 143.464 289.615C143.464 309.028 131.355 325.149 109.329 325.149C84.9647 325.149 73.3442 304.735 73.3442 289.409C73.3442 274.083 84.9647 253.707 107.816 253.707Z" fill="#263238"/>
<path id="Vector_470" d="M108.045 267.65C121.797 267.65 129.766 277.705 129.766 289.531C129.766 301.358 122.385 311.175 108.969 311.175C94.1173 311.175 87.0273 298.753 87.0273 289.409C87.0273 280.065 94.1173 267.65 108.045 267.65Z" fill="#C7C7C7"/>
<path id="Vector_471" d="M178.685 210.181V207.057L98.7777 209.631V216.66C98.7777 216.66 75.6362 242.216 73.2983 268.78L153.427 270.476L166.3 270.155H182.107V254.096C182.107 254.096 170.158 245.387 172.252 227.593C172.947 221.687 178.685 210.181 178.685 210.181Z" fill="#FA9B0D"/>
<path id="Vector_472" d="M145.962 266.757C145.13 268.285 132.974 270.478 109.932 271.097C89.1895 271.654 73.6956 271.196 72.4961 269.859C71.2966 268.522 74.3526 244.876 88.3949 232.072C102.437 219.267 122.317 217.426 135.427 225.066C146.956 231.766 155.558 248.795 145.962 266.757Z" fill="#FA9B0D"/>
<path id="Vector_473" opacity="0.1" d="M149.874 244.371C148.642 238.772 145.8 233.655 141.699 229.649C137.587 225.529 132.453 222.579 126.824 221.1C120.545 219.533 113.968 219.604 107.724 221.306C104.599 222.126 101.577 223.297 98.7163 224.798C95.6958 226.421 92.8491 228.348 90.2206 230.551C89.5178 231.131 88.8072 231.712 88.112 232.308C88.0509 232.354 88.112 232.438 88.2037 232.392C90.8483 230.066 93.7113 228.002 96.7528 226.226C99.5282 224.641 102.473 223.373 105.531 222.445C111.595 220.548 118.034 220.186 124.272 221.39C129.91 222.523 135.135 225.164 139.392 229.03C143.493 232.723 146.51 237.464 148.117 242.744C150.027 249.177 149.4 256.259 147.498 262.608C147.246 263.464 146.971 264.304 146.688 265.145C146.688 265.236 146.795 265.267 146.825 265.183C149.392 258.589 151.31 251.484 149.874 244.371Z" fill="black"/>
<path id="Vector_474" d="M94.3312 273.534C80.4188 273.534 73.0538 273.106 69.3179 271.624L71.0521 267.261C75.4222 268.996 89.1055 268.965 111.124 268.713C127.39 268.522 139.392 266.986 146.879 264.129L148.552 268.514C140.454 271.57 128.23 273.19 111.177 273.389C104.706 273.48 99.1291 273.534 94.3312 273.534Z" fill="#DBDBDB"/>
<path id="Vector_475" d="M179.998 209.112C179.998 209.112 180.533 191.632 179.998 190.944C179.463 190.257 98.571 188.798 96.1492 189.011C93.7273 189.225 93.4828 209.639 93.6662 210.594C93.8495 211.549 177.89 209.296 179.998 209.112Z" fill="#37474F"/>
<path id="Vector_476" d="M187.577 191.295C187.341 191.02 177.088 190.73 176.522 190.715C175.957 190.7 175.758 209.334 176.064 209.318C176.369 209.303 187.203 209.456 187.562 209.058C187.921 208.661 188.089 191.891 187.577 191.295Z" fill="#455A64"/>
<path id="Vector_477" d="M130.919 189.027C130.629 189.329 130.44 189.714 130.376 190.128C130.28 190.563 130.212 191.005 130.17 191.449C130.071 192.335 130.017 193.237 129.972 194.131C129.895 195.934 129.849 197.745 129.819 199.563C129.788 201.381 129.742 203.184 129.819 204.98C129.826 205.869 129.887 206.757 130.002 207.638C130.048 208.064 130.148 208.483 130.3 208.884C130.356 209.063 130.455 209.227 130.588 209.36C130.721 209.493 130.884 209.592 131.064 209.648C130.862 209.642 130.667 209.578 130.5 209.465C130.334 209.351 130.203 209.192 130.124 209.006C129.911 208.606 129.744 208.183 129.628 207.745C129.412 206.85 129.271 205.937 129.208 205.018C129.066 203.188 129.021 201.352 129.07 199.517C129.116 197.691 129.192 195.858 129.399 194.032C129.498 193.118 129.643 192.21 129.834 191.312C129.941 190.867 130.071 190.429 130.224 189.998C130.346 189.623 130.56 189.157 130.919 189.027Z" fill="#455A64"/>
<path id="Vector_478" d="M60.1115 186.445H136.504V138.955H60.1115V186.445Z" fill="#37474F"/>
<path id="Vector_479" d="M60.1114 186.445H115.303V138.955H60.1114L60.1114 186.445Z" fill="#263238"/>
<path id="Vector_480" d="M90.679 138.947H84.7427V186.438H90.679V138.947Z" fill="#FA9B0D"/>
<path id="Vector_481" d="M115.31 134.553H58.5605V138.946H115.31V134.553Z" fill="#37474F"/>
<path id="Vector_482" d="M138.215 134.553H115.303V138.946H138.215V134.553Z" fill="#263238"/>
<path id="Vector_483" d="M91.1759 134.553H84.2388V138.946H91.1759V134.553Z" fill="#FA9B0D"/>
<path id="Vector_484" d="M68.2024 134.752H123.967V100.082H68.2024V134.752Z" fill="#37474F"/>
<path id="Vector_485" d="M68.2021 134.752H108.488V100.082H68.2021V134.752Z" fill="#263238"/>
<path id="Vector_486" d="M90.5111 100.09H86.1792V134.76H90.5111V100.09Z" fill="#FA9B0D"/>
<path id="Vector_487" d="M108.488 96.8809H67.064V100.09H108.488V96.8809Z" fill="#37474F"/>
<path id="Vector_488" d="M125.212 96.8809H108.488V100.09H125.212V96.8809Z" fill="#263238"/>
<path id="Vector_489" d="M90.8778 96.8809H85.8125V100.09H90.8778V96.8809Z" fill="#FA9B0D"/>
<path id="Vector_490" d="M285.873 253.416C309.626 253.416 323.378 269.911 323.378 289.324C323.378 308.737 310.635 324.835 287.47 324.835C261.838 324.835 249.599 304.451 249.599 289.133C249.599 273.815 261.838 253.416 285.873 253.416Z" fill="#37474F"/>
<path id="Vector_491" d="M282.222 253.416C304.798 253.416 317.877 269.911 317.877 289.324C317.877 308.737 305.76 324.835 283.742 324.835C259.378 324.835 247.742 304.451 247.742 289.133C247.742 273.815 259.378 253.416 282.222 253.416Z" fill="#263238"/>
<path id="Vector_492" d="M282.451 267.359C296.203 267.359 304.179 277.414 304.179 289.24C304.179 301.067 296.799 310.884 283.375 310.884C268.531 310.884 261.441 298.462 261.441 289.126C261.441 279.79 268.531 267.359 282.451 267.359Z" fill="#C7C7C7"/>
<path id="Vector_493" d="M247.452 172.319H238.108L231.706 162.922H242.654L247.452 172.319Z" fill="#FA9B0D"/>
<path id="Vector_494" d="M231.706 162.922L235.457 168.423L238.108 172.319H247.452L244.923 167.368L242.647 162.922H231.706Z" fill="#FA9B0D"/>
<path id="Vector_495" opacity="0.1" d="M231.706 162.922L235.457 168.423L244.923 167.368L242.647 162.922H231.706Z" fill="black"/>
<path id="Vector_496" d="M270.158 242.446L261.059 244.54L252.716 236.808L263.381 234.363L270.158 242.446Z" fill="#FA9B0D"/>
<path id="Vector_497" d="M252.716 236.808L257.598 241.339L261.051 244.54L270.166 242.446L266.59 238.191L263.381 234.363L252.716 236.808Z" fill="#FA9B0D"/>
<path id="Vector_498" opacity="0.1" d="M252.716 236.808L257.598 241.339L266.59 238.191L263.381 234.363L252.716 236.808Z" fill="black"/>
<path id="Vector_499" d="M321.315 258.001L312.476 262.646C312.476 262.646 286.874 258.001 270.456 261.515C254.037 265.03 249.606 273.801 249.606 273.801H241.309C241.309 273.801 248.43 248.504 260.508 239.321C272.587 230.138 292 232.193 302.735 237.977C313.469 243.76 321.315 258.001 321.315 258.001Z" fill="#FA9B0D"/>
<path id="Vector_500" opacity="0.1" d="M311.544 260.896C309.832 259.108 307.977 257.462 305.997 255.975C304.036 254.451 301.962 253.077 299.794 251.865C295.59 249.529 290.98 248.015 286.21 247.403C276.874 246.257 267.11 248.977 260.234 256.151C256.368 260.216 253.618 265.205 251.005 270.239C250.966 270.316 251.073 270.377 251.112 270.3C253.325 265.874 256.121 261.762 259.424 258.076C262.607 254.601 266.568 251.931 270.983 250.284C279.792 247.052 289.319 248.29 297.784 252.194C300.208 253.292 302.548 254.569 304.783 256.014C307.068 257.553 309.274 259.208 311.391 260.972C311.405 260.984 311.422 260.992 311.44 260.995C311.459 260.997 311.477 260.994 311.494 260.986C311.51 260.978 311.524 260.965 311.533 260.949C311.542 260.932 311.546 260.914 311.544 260.896Z" fill="black"/>
<path id="Vector_501" d="M214.401 167.261C214.264 167.582 195.813 170.974 195.813 170.974C195.813 170.974 192.757 168.911 194.644 166.298L213.156 162.303C213.867 162.887 214.373 163.684 214.597 164.576C214.821 165.469 214.752 166.41 214.401 167.261Z" fill="#263238"/>
<path id="Vector_502" d="M253.129 143.408V165.296C253.129 165.296 241.31 164.265 238.162 164.158C235.014 164.051 221.025 165.862 221.025 165.862L219.94 160.957C219.94 160.957 230.728 157.19 235.312 154.249C239.896 151.308 245.175 145.685 248.01 144.439C249.614 143.706 251.366 143.353 253.129 143.408Z" fill="#FA9B0D"/>
<path id="Vector_503" d="M221.071 160.338C221.773 161.061 222.303 161.933 222.621 162.889C222.939 163.846 223.035 164.862 222.904 165.862C222.904 165.862 214.095 167.474 213.988 167.474C214.062 166.437 213.81 165.404 213.27 164.517C212.729 163.63 211.925 162.933 210.971 162.523L221.071 160.338Z" fill="#DBDBDB"/>
<path id="Vector_504" d="M253.243 165.297C256.441 165.297 259.034 160.399 259.034 154.356C259.034 148.314 256.441 143.416 253.243 143.416C250.044 143.416 247.452 148.314 247.452 154.356C247.452 160.399 250.044 165.297 253.243 165.297Z" fill="#DBDBDB"/>
<path id="Vector_505" d="M253.602 164.12C256.34 164.12 258.56 159.748 258.56 154.356C258.56 148.963 256.34 144.592 253.602 144.592C250.863 144.592 248.644 148.963 248.644 154.356C248.644 159.748 250.863 164.12 253.602 164.12Z" fill="white"/>
<path id="Vector_506" d="M255.107 172.35C257.033 175.169 264.741 213.506 266.254 215.432C267.767 217.357 270.662 217.494 270.662 217.494L275.758 230.161C275.758 230.161 263.099 234.157 256.07 239.933C246.986 247.397 238.59 272.143 238.59 272.143C237.214 273.106 220.147 280.127 215.463 280.402C215.463 280.402 237.23 256.504 239.002 223.431C239.69 210.618 231.805 192.573 231.293 183.634C230.728 174.038 233.631 172.35 238.727 172.35H255.107Z" fill="#FA9B0D"/>
<path id="Vector_507" d="M214.417 283.129L211.009 279.905C230.109 259.69 237.153 227.838 236.596 219.144C236.305 214.69 234.877 209.709 233.356 204.429C231.737 198.799 229.903 192.419 229.124 185.49C228.398 179.057 229.124 174.901 231.316 172.418C233.509 169.935 236.519 169.942 238.521 169.95H256.704V174.641H238.513C236.764 174.641 235.572 174.702 234.816 175.55C234.059 176.398 233.074 178.606 233.792 184.97C234.556 191.502 236.229 197.416 237.872 203.131C239.461 208.662 240.928 213.88 241.279 218.838C241.875 228.121 234.548 261.913 214.417 283.129Z" fill="#DBDBDB"/>
<path id="Vector_508" d="M266.346 225.89C267.415 229.832 270.785 232.338 273.871 231.498C276.958 230.657 278.6 226.784 277.523 222.849C276.446 218.915 273.077 216.393 269.99 217.234C266.903 218.074 265.268 221.955 266.346 225.89Z" fill="#DBDBDB"/>
<path id="Vector_509" d="M267.492 225.577C268.447 229.091 271.365 231.353 274.008 230.634C276.652 229.916 278.012 226.486 277.064 222.994C276.117 219.503 273.191 217.219 270.555 217.937C267.919 218.655 266.537 222.062 267.492 225.577Z" fill="white"/>
<path id="Vector_510" opacity="0.1" d="M252.83 225.256C251.982 221.291 251.065 217.341 250.271 213.368C249.476 209.395 248.743 205.415 248.124 201.419C247.52 197.699 246.871 193.94 246.634 190.173C246.397 186.239 246.634 182.266 248.544 178.713C248.548 178.706 248.551 178.698 248.552 178.69C248.553 178.682 248.552 178.674 248.55 178.666C248.548 178.659 248.544 178.651 248.539 178.645C248.535 178.639 248.528 178.633 248.521 178.629C248.514 178.625 248.507 178.623 248.499 178.622C248.491 178.621 248.482 178.621 248.475 178.623C248.467 178.625 248.459 178.629 248.453 178.634C248.447 178.639 248.441 178.645 248.437 178.652C246.474 181.517 245.832 184.963 245.725 188.378C245.735 192.143 246.067 195.9 246.718 199.609C247.833 207.752 249.363 215.833 251.302 223.82C252.41 228.335 253.839 232.774 255.367 237.159C255.367 237.173 255.372 237.187 255.382 237.197C255.392 237.207 255.406 237.213 255.42 237.213C255.434 237.213 255.448 237.207 255.458 237.197C255.468 237.187 255.474 237.173 255.474 237.159C254.562 233.171 253.681 229.203 252.83 225.256Z" fill="black"/>
<path id="Vector_511" opacity="0.1" d="M182.107 254.096V270.14H168.416V257.993C168.416 257.993 160.776 254.134 159.248 240.1C157.873 227.387 168.019 210.418 169.944 207.339L178.662 207.057V210.181C178.662 210.181 172.924 221.687 172.229 227.593C170.158 245.387 182.107 254.096 182.107 254.096Z" fill="black"/>
<path id="Vector_512" d="M216.54 273.892C214.691 274.488 161.448 272.364 159.454 271.073C159.217 270.927 158.27 260.682 158.27 260.682L164.428 221.344L199.381 221.81L192.635 255.426C192.635 255.426 200.328 258.963 206.685 262.057C210.596 263.96 213.996 265.694 214.775 266.32C216.815 267.971 218.389 273.296 216.54 273.892Z" fill="#F7A9A0"/>
<path id="Vector_513" d="M216.548 273.891C214.692 274.487 161.449 272.363 159.462 271.072C159.218 270.927 158.263 260.689 158.263 260.689L160.165 248.564L193.697 250.092L192.635 255.379C192.635 255.379 200.329 258.924 206.685 262.011C210.589 263.913 213.996 265.647 214.776 266.274C216.816 267.978 218.39 273.295 216.548 273.891Z" fill="#EBEBEB"/>
<path id="Vector_514" d="M216.51 273.961C214.63 274.549 161.036 273.296 159.026 271.951C158.262 271.455 157.987 263.639 157.926 254.181V253.883L192.505 254.303V254.891C192.505 254.891 212.804 264.541 214.86 266.252C216.915 267.963 218.397 273.372 216.51 273.961Z" fill="#C7C7C7"/>
<path id="Vector_515" d="M215.952 271.86C206.929 271.433 170.471 270.539 161.517 270.798C161.441 270.798 161.441 270.852 161.517 270.852C170.456 271.478 206.914 272.074 215.952 272.013C216.143 272.006 216.143 271.868 215.952 271.86Z" fill="#263238"/>
<path id="Vector_516" d="M195.385 255.052C191.848 254.288 187.486 254.754 184.689 257.222C184.575 257.322 184.689 257.467 184.834 257.436C188.257 256.418 191.779 255.77 195.339 255.503C195.394 255.5 195.446 255.478 195.486 255.44C195.525 255.403 195.55 255.352 195.556 255.297C195.561 255.243 195.547 255.188 195.516 255.143C195.485 255.098 195.438 255.066 195.385 255.052Z" fill="#263238"/>
<path id="Vector_517" d="M197.914 256.663C194.377 255.899 190.014 256.358 187.218 258.825C187.111 258.925 187.218 259.078 187.363 259.039C190.788 258.021 194.313 257.373 197.876 257.106C197.905 257.109 197.934 257.106 197.962 257.097C197.99 257.088 198.016 257.074 198.038 257.055C198.061 257.036 198.079 257.013 198.092 256.987C198.106 256.961 198.114 256.933 198.117 256.904C198.119 256.875 198.116 256.846 198.107 256.818C198.098 256.79 198.084 256.764 198.065 256.742C198.046 256.719 198.023 256.701 197.998 256.687C197.972 256.674 197.943 256.666 197.914 256.663Z" fill="#263238"/>
<path id="Vector_518" d="M200.443 258.269C196.906 257.505 192.543 257.963 189.747 260.438C189.64 260.53 189.747 260.683 189.892 260.645C193.316 259.633 196.837 258.987 200.397 258.719C200.452 258.717 200.504 258.694 200.543 258.657C200.583 258.619 200.608 258.568 200.613 258.514C200.619 258.459 200.605 258.405 200.574 258.36C200.542 258.315 200.496 258.282 200.443 258.269Z" fill="#263238"/>
<path id="Vector_519" d="M195.584 250.345L156.566 248.565C156.566 248.565 170.059 193.809 168.622 192.029C167.094 190.111 115.646 204.253 104.347 190.241C92.78 175.885 104.347 151.857 104.347 151.857H143.899C143.899 151.857 143.899 156.258 141.21 162.844C141.21 162.844 186.057 154.539 197.876 160.789C200.206 162.026 208.572 168.933 208.709 175.48C209.397 204.436 195.584 250.345 195.584 250.345Z" fill="#455A64"/>
<path id="Vector_520" d="M195.958 243.279C191.328 242.698 186.683 242.339 182.03 241.995C177.378 241.652 172.732 241.369 168.072 241.185C165.452 241.086 162.823 241.109 160.195 241.01C160.177 241.01 160.16 241.017 160.147 241.03C160.134 241.043 160.126 241.06 160.126 241.079C160.126 241.097 160.134 241.114 160.147 241.127C160.16 241.14 160.177 241.147 160.195 241.147C162.533 241.315 164.863 241.606 167.201 241.789C169.539 241.972 171.785 242.14 174.123 242.293C178.768 242.607 183.421 242.859 188.074 243.149C190.702 243.309 193.322 243.393 195.95 243.455C195.97 243.45 195.987 243.439 195.999 243.424C196.012 243.408 196.019 243.389 196.02 243.37C196.021 243.35 196.015 243.33 196.004 243.314C195.993 243.298 195.977 243.285 195.958 243.279Z" fill="#263238"/>
<path id="Vector_521" d="M120.888 155.167C120.836 155.328 120.77 155.484 120.689 155.633C120.681 155.644 120.676 155.657 120.676 155.671C120.676 155.685 120.681 155.699 120.689 155.709C120.231 157.138 120.04 158.651 119.597 160.087C119.176 161.612 118.242 162.945 116.953 163.861C114.249 165.741 111.002 166.589 107.854 167.368C107.835 167.374 107.819 167.385 107.807 167.401C107.795 167.417 107.789 167.436 107.789 167.456C107.789 167.476 107.795 167.495 107.807 167.511C107.819 167.527 107.835 167.538 107.854 167.544C109.669 167.554 111.473 167.278 113.202 166.726C114.826 166.277 116.358 165.542 117.725 164.557C119.009 163.585 119.925 162.205 120.323 160.645C120.515 159.815 120.665 158.976 120.773 158.131C120.95 157.16 121.055 156.177 121.087 155.19C121.075 155.175 121.061 155.162 121.045 155.153C121.029 155.144 121.011 155.138 120.992 155.136C120.974 155.134 120.955 155.135 120.937 155.141C120.919 155.146 120.902 155.155 120.888 155.167Z" fill="#263238"/>
<path id="Vector_522" d="M147.574 160.888C145.423 161.509 143.327 162.309 141.31 163.279L141.21 163.325C141.252 163.201 141.282 163.073 141.302 162.943C141.302 162.79 141.348 162.645 141.378 162.493C141.409 162.34 141.378 162.179 141.424 162.019V161.774C141.684 161.758 141.938 161.687 142.169 161.567C142.401 161.448 142.605 161.282 142.769 161.079C143.191 160.493 143.475 159.819 143.602 159.108C143.838 158.222 144.06 157.32 144.251 156.419C144.442 155.517 144.648 154.409 144.809 153.363C145.003 152.373 145.118 151.369 145.152 150.36C145.152 150.324 145.138 150.289 145.112 150.263C145.086 150.237 145.051 150.223 145.015 150.223C144.978 150.223 144.943 150.237 144.918 150.263C144.892 150.289 144.877 150.324 144.877 150.36C144.641 151.285 144.534 152.24 144.358 153.172C144.182 154.104 143.984 155.044 143.77 155.976C143.556 156.908 143.326 157.84 143.067 158.757C142.807 159.673 142.608 160.766 141.661 161.049C139.705 161.606 140.584 157.229 140.668 156.358C140.866 154.371 140.989 152.339 141.34 150.368C141.34 150.291 141.225 150.253 141.21 150.368C140.782 152.178 140.301 153.959 139.98 155.792C139.82 156.694 139.705 157.603 139.606 158.504C139.447 159.286 139.511 160.095 139.789 160.842C139.91 161.095 140.091 161.313 140.316 161.48C140.541 161.646 140.804 161.755 141.08 161.797L141.019 162.004C140.973 162.149 140.928 162.294 140.889 162.439C140.851 162.584 140.821 162.737 140.79 162.882C140.723 163.055 140.699 163.241 140.721 163.425C140.738 163.476 140.774 163.52 140.821 163.547C139.988 163.906 139.147 164.265 138.322 164.655C137.285 165.062 136.281 165.55 135.32 166.114C135.205 166.167 135.32 166.32 135.404 166.297C136.479 165.995 137.532 165.615 138.551 165.159C139.598 164.762 140.63 164.334 141.669 163.898C143.727 163.143 145.718 162.215 147.62 161.125C147.652 161.119 147.679 161.101 147.697 161.074C147.715 161.048 147.722 161.015 147.716 160.984C147.71 160.952 147.691 160.924 147.665 160.907C147.638 160.889 147.606 160.882 147.574 160.888Z" fill="#263238"/>
<path id="Vector_523" d="M207.548 170.507C206.195 166.528 203.456 163.169 199.832 161.041C196.111 158.986 191.772 158.436 187.608 158.306C182.764 158.161 177.89 158.413 173.054 158.718C167.904 159.039 162.755 159.528 157.636 160.246C152.517 160.965 147.49 161.843 142.455 162.928C141.248 163.188 140.049 163.509 138.849 163.845C138.758 163.845 138.773 164.043 138.849 164.028C143.853 163.325 148.835 162.5 153.839 161.813C158.843 161.125 163.901 160.583 168.959 160.201C174.016 159.819 179.02 159.605 184.055 159.528C188.181 159.467 192.459 159.528 196.379 160.858C198.317 161.477 200.111 162.477 201.658 163.799C203.177 165.157 204.421 166.794 205.325 168.62C207.388 172.677 207.579 177.329 207.785 181.822C208.381 195.154 198.793 237.517 197.089 244.325C197.085 244.384 197.101 244.443 197.136 244.491C197.17 244.539 197.221 244.573 197.278 244.588C197.336 244.602 197.397 244.596 197.45 244.57C197.503 244.545 197.546 244.501 197.57 244.447C199.488 236.761 209.03 196.743 209.03 184.717C209.038 179.919 209.214 175.03 207.548 170.507Z" fill="#263238"/>
<path id="Vector_524" d="M174.353 187.415C167.362 187.66 160.41 188.309 153.457 189.043C146.505 189.776 139.499 190.571 132.501 191.059C129.017 191.296 125.525 191.449 122.034 191.472C119.131 191.608 116.225 191.283 113.424 190.509C110.579 189.59 108.187 187.627 106.731 185.016C105.203 182.28 104.209 179.277 103.805 176.169C102.888 169.851 103.805 163.395 104.882 157.161C105.02 156.397 105.15 155.633 105.287 154.815C105.287 154.739 105.188 154.708 105.173 154.815C103.713 161.103 102.407 167.574 102.881 174.068C103.054 177.242 103.775 180.362 105.012 183.29C106.09 186.061 108.008 188.425 110.498 190.051C113.061 191.423 115.918 192.154 118.825 192.183C122.19 192.309 125.559 192.255 128.918 192.022C136.084 191.648 143.22 190.853 150.348 190.059C157.476 189.264 164.558 188.485 171.694 188.103C172.458 188.065 173.275 188.026 174.062 188.003C172.985 194.841 163.817 235.807 163.305 239.046C163.252 239.367 163.542 239.467 163.619 239.146C165.147 232.759 174.085 191.778 174.674 187.767C174.684 187.721 174.683 187.674 174.671 187.629C174.659 187.583 174.636 187.542 174.605 187.507C174.573 187.473 174.534 187.446 174.49 187.43C174.446 187.414 174.399 187.409 174.353 187.415Z" fill="#263238"/>
<path id="Vector_525" d="M102.078 156.74C102.185 156.893 154.45 160.912 155 160.423C155.764 159.727 150.592 106.179 145.924 98.3247C144.923 96.6515 141.095 95.7729 137.741 95.8035C136.868 95.7993 135.996 95.8734 135.136 96.0251H135.052C134.358 96.1431 133.689 96.3782 133.073 96.7203C123.034 102.985 112.323 127.723 109.626 135.211C105.157 147.557 101.688 156.19 102.078 156.74Z" fill="#FA9B0D"/>
<path id="Vector_526" d="M143.518 105.155C140.92 105.155 136.535 100.961 135.664 97.0261C135.602 96.751 136.68 94.4055 137.841 91.4871C138.544 89.7069 139.285 87.7205 139.827 85.8564C139.934 85.4667 150.699 92.0983 150.699 92.0983C149.354 94.2379 148.277 96.5343 147.49 98.9361C147.42 99.1859 147.371 99.4416 147.345 99.7001C147.348 99.7433 147.348 99.7867 147.345 99.8299C147.139 101.381 146.291 105.193 143.518 105.155Z" fill="#F7A9A0"/>
<path id="Vector_527" d="M147.345 99.7229C147.348 99.7661 147.348 99.8095 147.345 99.8528C146.933 99.7927 146.527 99.6982 146.13 99.5701C139.254 97.4156 139.973 88.2629 140.263 85.9785C142.257 86.88 150.722 92.0905 150.722 92.0905C149.378 94.2319 148.299 96.5278 147.506 98.9283C147.431 99.1886 147.378 99.4542 147.345 99.7229Z" fill="#263238"/>
<path id="Vector_528" d="M140.782 71.54C138.895 75.6503 139.476 88.348 142.142 91.4957C146.016 96.0797 153.197 97.4625 157.315 92.6187C161.303 87.9201 160.257 71.4101 157.201 68.4381C152.686 64.0681 143.579 65.4815 140.782 71.54Z" fill="#F7A9A0"/>
<path id="Vector_529" d="M151.845 80.584C151.845 80.584 151.784 80.6298 151.784 80.668C151.845 81.5161 151.784 82.5093 151.02 82.8225C151.02 82.8225 151.02 82.876 151.02 82.8683C151.96 82.7003 152.036 81.3862 151.845 80.584Z" fill="#263238"/>
<path id="Vector_530" d="M151.043 79.7293C149.667 79.6758 149.675 82.4415 150.951 82.4873C152.227 82.5332 152.204 79.7675 151.043 79.7293Z" fill="#263238"/>
<path id="Vector_531" d="M156.796 80.7227C156.796 80.7227 156.865 80.7608 156.857 80.799C156.857 81.6471 156.949 82.6327 157.72 82.9153C157.72 82.9153 157.72 82.9688 157.72 82.9612C156.773 82.8313 156.62 81.5249 156.796 80.7227Z" fill="#263238"/>
<path id="Vector_532" d="M157.56 79.8292C158.927 79.7222 159.042 82.4803 157.766 82.572C156.49 82.6637 156.406 79.9056 157.56 79.8292Z" fill="#263238"/>
<path id="Vector_533" d="M149.958 78.4693C150.319 78.3614 150.673 78.2338 151.02 78.0873C151.415 78.0112 151.773 77.8039 152.036 77.499C152.101 77.387 152.127 77.2566 152.111 77.1282C152.094 76.9997 152.036 76.8803 151.944 76.7885C151.736 76.6362 151.491 76.5424 151.234 76.5169C150.978 76.4913 150.719 76.535 150.485 76.6433C149.976 76.7865 149.539 77.1167 149.263 77.5678C149.207 77.6739 149.183 77.7938 149.193 77.9131C149.204 78.0325 149.248 78.1464 149.321 78.2413C149.394 78.3362 149.493 78.4081 149.606 78.4485C149.719 78.4889 149.841 78.4961 149.958 78.4693Z" fill="#263238"/>
<path id="Vector_534" d="M158.622 78.4304C158.25 78.3587 157.882 78.2643 157.522 78.1477C157.122 78.1074 156.747 77.9323 156.46 77.6511C156.382 77.5489 156.34 77.4241 156.34 77.2959C156.34 77.1676 156.382 77.0428 156.46 76.9406C156.654 76.7697 156.89 76.654 157.144 76.6056C157.398 76.5572 157.66 76.5779 157.904 76.6655C158.423 76.7633 158.886 77.0523 159.202 77.4754C159.267 77.5732 159.302 77.6872 159.304 77.8042C159.306 77.9212 159.275 78.0363 159.214 78.1363C159.153 78.2362 159.065 78.3169 158.96 78.369C158.856 78.421 158.738 78.4423 158.622 78.4304Z" fill="#263238"/>
<path id="Vector_535" d="M151.066 88.522C151.272 88.7206 151.478 88.9957 151.83 89.0262C152.147 89.0167 152.46 88.9413 152.747 88.8046C152.747 88.8046 152.8 88.8047 152.785 88.8505C152.663 89.0187 152.497 89.1508 152.306 89.2328C152.115 89.3149 151.906 89.3438 151.7 89.3165C151.524 89.2717 151.366 89.1748 151.246 89.0385C151.126 88.9022 151.05 88.7328 151.028 88.5525C150.974 88.5143 151.035 88.4914 151.066 88.522Z" fill="#263238"/>
<path id="Vector_536" d="M154.565 86.9652C154.206 87.4387 153.729 87.8101 153.182 88.0424C152.883 88.1587 152.555 88.18 152.242 88.1035C151.562 87.9278 151.54 87.3395 151.662 86.7589C151.735 86.4764 151.837 86.2024 151.967 85.9414C152.701 86.5518 153.612 86.9106 154.565 86.9652Z" fill="#263238"/>
<path id="Vector_537" d="M153.182 88.0413C152.883 88.1576 152.555 88.179 152.242 88.1024C151.562 87.9267 151.54 87.3385 151.662 86.7578C152.023 86.7695 152.369 86.9025 152.645 87.1354C152.921 87.3683 153.11 87.6875 153.182 88.0413Z" fill="#FF9BBC"/>
<path id="Vector_538" d="M159.027 72.6315C158.561 71.5466 158.018 70.4541 157.361 70.2325C156.704 70.0109 156.284 71.6153 154.794 71.7147C152.792 71.8522 151.822 70.0109 149.018 69.8123C144.984 69.5373 143.212 72.8683 143.12 78.6136C143.036 83.7171 139.95 84.1984 139.95 84.1984C139.95 84.1984 138.078 72.9447 141.248 69.2164C144.419 65.4881 151.7 63.8684 156.59 67.3981C158.37 68.6892 159.027 72.6315 159.027 72.6315Z" fill="#263238"/>
<path id="Vector_539" d="M142.524 82.1972C142.524 82.1972 140.179 77.8653 138.246 78.6522C136.313 79.4391 137.749 85.5282 139.774 86.5443C140.028 86.6967 140.309 86.7962 140.603 86.8368C140.896 86.8774 141.194 86.8582 141.48 86.7804C141.765 86.7025 142.032 86.5677 142.264 86.384C142.496 86.2004 142.689 85.9716 142.83 85.7116L142.524 82.1972Z" fill="#F7A9A0"/>
<path id="Vector_540" d="M138.704 80.3711V80.4246C140.133 81.1886 140.759 82.7166 141.149 84.1911C141.079 84.031 140.976 83.8879 140.845 83.7718C140.715 83.6556 140.561 83.5692 140.394 83.5183C140.227 83.4675 140.051 83.4535 139.878 83.4773C139.705 83.5011 139.539 83.5622 139.392 83.6563C139.346 83.6563 139.392 83.748 139.392 83.7403C139.665 83.688 139.948 83.7207 140.202 83.8341C140.456 83.9474 140.669 84.1361 140.813 84.3745C141.044 84.7793 141.234 85.2068 141.378 85.6503C141.432 85.7879 141.684 85.7497 141.645 85.5892V85.551C141.905 83.641 140.729 80.7989 138.704 80.3711Z" fill="#263238"/>
<path id="Vector_541" d="M158.545 69.2776C157.361 68.9949 150.798 69.1936 147.849 70.4618C144.9 71.7301 139.659 75.9703 139.392 76.1918C139.124 76.4134 137.772 65.5951 146.55 63.624C156.108 61.4695 158.545 69.2776 158.545 69.2776Z" fill="#FA9B0D"/>
<path id="Vector_542" d="M139.896 75.7485C139.896 75.7485 145.695 68.1085 148.919 66.3513C152.143 64.5941 159.363 63.6162 163.832 65.5873C167.308 67.1153 158.813 71.5924 158.813 71.5924C158.732 71.2258 158.567 70.883 158.331 70.5912C158.095 70.2995 157.794 70.0667 157.453 69.9116C155.283 69.0482 151.157 69.7129 148.804 70.4998C145.84 71.5007 139.896 75.7485 139.896 75.7485Z" fill="#FA9B0D"/>
<path id="Vector_543" opacity="0.2" d="M139.896 75.7865C139.896 75.7865 145.695 68.1007 148.919 66.3511C152.143 64.6016 159.363 63.616 163.832 65.5871C167.308 67.1151 158.813 71.5922 158.813 71.5922C158.732 71.2256 158.567 70.8828 158.331 70.591C158.095 70.2993 157.794 70.0666 157.453 69.9114C155.283 69.0481 151.157 69.7127 148.804 70.4997C145.84 71.5005 139.896 75.7865 139.896 75.7865Z" fill="black"/>
<path id="Vector_544" d="M129.766 111.007C129.277 126.073 134.838 154.288 138.934 156.205C152.151 162.379 174.391 162.768 182.008 162.837C185.293 162.837 190.335 139.474 187.081 138.16C184.919 137.289 152.311 137.281 151.738 136.12C151.165 134.959 143.395 118.181 140.041 108.891C135.587 96.5371 130.048 102.16 129.766 111.007Z" fill="#F7A9A0"/>
<path id="Vector_545" d="M183.582 137.846C183.582 137.846 193.567 138.457 200.069 139.16C203.705 139.549 209.871 140.779 212.4 142.285C216.22 144.577 230.613 156.403 227.817 159.964C225.281 163.18 214.187 151.422 214.187 151.422C214.187 151.422 226.411 162.294 222.668 165.617C218.924 168.941 208.152 153.974 208.152 153.974C208.152 153.974 220.483 165.434 216.059 168.245C212.721 170.362 202.2 157.366 202.2 157.366C202.2 157.366 212.736 167.298 209.389 169.59C205.692 172.165 195.233 160.773 195.233 160.773C185.736 165.266 179.38 163.516 175.002 161.736C173.925 161.339 183.582 137.846 183.582 137.846Z" fill="#F7A9A0"/>
<path id="Vector_546" d="M210.192 147.389C211.674 148.611 213.186 149.841 214.554 151.209C215.922 152.576 217.251 153.967 218.489 155.441C220.145 157.338 221.58 159.417 222.767 161.637C220.376 157.817 215.547 152.928 214.172 151.576C212.797 150.223 211.506 148.802 210.138 147.45C210.1 147.404 210.153 147.358 210.192 147.389Z" fill="#263238"/>
<path id="Vector_547" d="M205.218 152.247C207.044 153.89 208.916 155.464 210.673 157.191C212.43 158.917 213.928 160.697 215.555 162.539C215.677 162.676 215.555 162.699 215.425 162.539C213.729 160.774 212.025 159.269 210.314 157.519C208.603 155.77 206.945 153.951 205.172 152.27C205.142 152.263 205.187 152.225 205.218 152.247Z" fill="#263238"/>
<path id="Vector_548" d="M200.168 155.649C203.033 158.106 205.637 160.853 207.938 163.846C208.052 163.991 207.9 164.007 207.77 163.846C205.241 161.073 203.277 158.88 200.084 155.74C200.061 155.702 200.168 155.603 200.168 155.649Z" fill="#263238"/>
<path id="Vector_549" d="M211.139 141.079C208.765 140.065 206.246 139.433 203.675 139.207C198.128 138.527 192.551 138.084 186.974 137.679C181.397 137.274 175.735 136.915 170.112 136.708C166.949 136.586 163.786 136.492 160.623 136.426C157.46 136.365 156.803 136.479 153.625 136.517C153.541 136.517 153.549 136.632 153.625 136.64C159.164 136.93 162.22 137.159 167.759 137.45C173.298 137.74 178.822 138.068 184.346 138.45C189.869 138.832 195.301 139.214 200.756 139.826C203.395 140.005 206.011 140.427 208.572 141.086C211.081 142.008 213.408 143.363 215.448 145.09C217.786 146.931 226.549 155.358 227.351 156.45C227.45 156.58 227.489 156.542 227.435 156.374C226.801 154.089 216.265 143.47 211.139 141.079Z" fill="#263238"/>
<path id="Vector_550" d="M145.542 120.734L129.292 129.947C129.292 129.947 128.604 109.411 130.109 103.314C131.806 96.4384 134.938 98.8221 138.468 104.537C141.997 110.252 145.542 120.734 145.542 120.734Z" fill="#FA9B0D"/>
<path id="Vector_551" opacity="0.1" d="M145.542 120.734L129.292 129.947C129.292 129.947 128.604 109.411 130.109 103.314C131.806 96.4384 134.938 98.8221 138.468 104.537C141.997 110.252 145.542 120.734 145.542 120.734Z" fill="black"/>
<path id="Vector_552" d="M143.304 118.106C141.08 118.999 134.77 122.621 133.723 123.209C133.173 123.515 131.019 124.852 130.468 125.157C130.4 125.196 130.468 125.295 130.537 125.257C131.599 124.676 132.715 124.202 133.784 123.629C134.854 123.056 141.424 119.603 143.349 118.182C143.357 118.175 143.361 118.165 143.363 118.155C143.364 118.145 143.362 118.135 143.357 118.126C143.351 118.117 143.343 118.11 143.334 118.107C143.324 118.103 143.313 118.103 143.304 118.106Z" fill="#263238"/>
<path id="Vector_553" d="M142.982 113.131C142.73 112.176 142.471 111.229 142.18 110.281C142.341 110.984 142.524 111.687 142.707 112.39C142.119 111.061 141.516 109.747 140.859 108.471H140.82C141.531 110.541 142.348 112.573 143.112 114.629C143.876 116.684 144.64 118.647 145.404 120.657C145.061 120.924 144.724 121.184 144.373 121.421C144.359 121.43 144.349 121.444 144.345 121.46C144.342 121.477 144.345 121.494 144.354 121.508C144.363 121.523 144.377 121.533 144.394 121.536C144.41 121.54 144.427 121.537 144.442 121.527C144.862 121.314 145.282 121.1 145.718 120.909C145.768 120.89 145.809 120.852 145.833 120.804C145.857 120.756 145.862 120.701 145.847 120.649C144.992 118.151 144.044 115.614 142.982 113.131Z" fill="#263238"/>
</g>
<g id="freepik--Line--inject-99">
<g id="Group" opacity="0.5">
<path id="Vector_554" opacity="0.5" d="M324.409 104.038C324.409 104.747 324.199 105.44 323.805 106.03C323.411 106.619 322.851 107.078 322.196 107.349C321.541 107.62 320.82 107.691 320.124 107.552C319.429 107.413 318.791 107.071 318.29 106.569C317.789 106.067 317.448 105.428 317.311 104.733C317.174 104.037 317.246 103.316 317.518 102.662C317.79 102.007 318.251 101.448 318.841 101.055C319.431 100.662 320.125 100.454 320.834 100.455C321.304 100.455 321.77 100.548 322.204 100.728C322.638 100.908 323.033 101.172 323.365 101.505C323.697 101.838 323.96 102.233 324.14 102.668C324.319 103.102 324.41 103.568 324.409 104.038Z" fill="#FA9B0D"/>
<path id="Vector_555" opacity="0.5" d="M320.834 110.113C319.622 110.12 318.435 109.767 317.424 109.098C316.413 108.43 315.623 107.476 315.156 106.357C314.689 105.239 314.565 104.007 314.799 102.818C315.034 101.628 315.617 100.536 316.474 99.6788C317.331 98.8218 318.423 98.2389 319.613 98.0043C320.802 97.7697 322.034 97.8939 323.152 98.3612C324.271 98.8286 325.225 99.6179 325.893 100.629C326.562 101.64 326.915 102.827 326.907 104.039C326.897 105.647 326.254 107.186 325.117 108.323C323.981 109.459 322.441 110.103 320.834 110.113ZM320.834 98.729C319.785 98.729 318.76 99.0395 317.888 99.6212C317.015 100.203 316.335 101.03 315.932 101.998C315.529 102.966 315.421 104.032 315.623 105.061C315.825 106.09 316.327 107.036 317.066 107.78C317.805 108.524 318.747 109.033 319.775 109.242C320.802 109.451 321.868 109.351 322.839 108.955C323.81 108.559 324.642 107.885 325.23 107.016C325.818 106.148 326.136 105.125 326.143 104.077C326.149 103.376 326.015 102.682 325.75 102.033C325.486 101.385 325.095 100.795 324.602 100.298C324.108 99.8005 323.521 99.406 322.875 99.1368C322.228 98.8675 321.534 98.7289 320.834 98.729Z" fill="#FA9B0D"/>
<path id="Vector_556" opacity="0.5" d="M105.31 69.7728C105.311 70.4818 105.103 71.1753 104.71 71.7656C104.317 72.3558 103.758 72.8163 103.103 73.0886C102.449 73.361 101.728 73.4331 101.032 73.2957C100.337 73.1583 99.6976 72.8176 99.1957 72.3168C98.6939 71.816 98.3518 71.1776 98.213 70.4823C98.0741 69.787 98.1446 69.0662 98.4156 68.411C98.6866 67.7558 99.1458 67.1957 99.7352 66.8017C100.325 66.4076 101.018 66.1973 101.727 66.1973C102.676 66.1973 103.586 66.5737 104.258 67.244C104.929 67.9144 105.308 68.8238 105.31 69.7728Z" fill="#FA9B0D"/>
<path id="Vector_557" opacity="0.5" d="M101.726 75.8547C100.516 75.8623 99.3305 75.5103 98.3204 74.8433C97.3103 74.1763 96.5209 73.2244 96.0525 72.1083C95.584 70.9922 95.4575 69.7621 95.689 68.5739C95.9205 67.3858 96.4996 66.2932 97.3528 65.4346C98.206 64.576 99.295 63.9901 100.482 63.7511C101.668 63.5122 102.899 63.631 104.018 64.0924C105.137 64.5539 106.094 65.3372 106.767 66.3432C107.441 67.3491 107.8 68.5323 107.8 69.7427C107.8 71.3571 107.162 72.906 106.024 74.0511C104.886 75.1963 103.341 75.8447 101.726 75.8547ZM101.726 64.4635C100.665 64.456 99.6262 64.7641 98.7409 65.3489C97.8556 65.9336 97.1642 66.7684 96.7547 67.7472C96.3452 68.726 96.2361 69.8044 96.4412 70.8454C96.6464 71.8863 97.1565 72.8428 97.9067 73.593C98.6569 74.3432 99.6133 74.8533 100.654 75.0585C101.695 75.2636 102.774 75.1545 103.752 74.745C104.731 74.3355 105.566 73.6441 106.151 72.7588C106.736 71.8735 107.044 70.8343 107.036 69.7733C107.026 68.3681 106.464 67.0234 105.47 66.0298C104.476 65.0361 103.132 64.4735 101.726 64.4635Z" fill="#FA9B0D"/>
<path id="Vector_558" opacity="0.5" d="M236.916 122.955H190.618V51.3831H129.521V70.1546H107.418V69.3906H128.757V50.6191H191.382V122.191H236.152V102.365H288.555V83.0586H321.216V98.3462H320.452V83.8226H289.319V103.129H236.916V122.955Z" fill="#FA9B0D"/>
</g>
</g>
<g id="freepik--Locator--inject-99">
<path id="Vector_559" d="M114.448 32.5357C113.813 26.1793 109.428 19.8457 101.727 19.8457C94.0258 19.8457 89.6481 26.2098 89.014 32.5357C88.0437 42.3531 94.6599 51.2461 101.727 59.3598C108.794 51.2767 115.418 42.3837 114.448 32.5357ZM101.727 39.5951C100.349 39.5951 99.0011 39.1863 97.8551 38.4203C96.7091 37.6544 95.816 36.5657 95.2889 35.2921C94.7618 34.0184 94.6242 32.6171 94.8937 31.2653C95.1632 29.9135 95.8275 28.672 96.8027 27.6978C97.778 26.7237 99.0202 26.0607 100.372 25.7927C101.724 25.5247 103.126 25.6638 104.399 26.1923C105.672 26.7209 106.759 27.6151 107.524 28.7619C108.289 29.9088 108.696 31.2567 108.695 32.6351C108.699 33.5523 108.521 34.4612 108.173 35.3097C107.824 36.1582 107.312 36.9294 106.664 37.579C106.017 38.2287 105.247 38.7439 104.4 39.0952C103.553 39.4464 102.644 39.6267 101.727 39.6257V39.5951Z" fill="#FA9B0D"/>
</g>
</g>
</g>
</g>
<defs>
<clipPath id="clip0_224_12559">
<rect width="382" height="326" fill="white"/>
</clipPath>
</defs>
</svg>
