<svg width="357" height="309" viewBox="0 0 357 309" fill="none" xmlns="http://www.w3.org/2000/svg">
<rect width="357" height="309" fill="#9D9D9D"/>
<g id="Onboarding 9">
<rect x="-36" y="-118" width="428" height="930" fill="white"/>
<g id="Frame 13999">
<g id="Eating healthy food-cuate 1" clip-path="url(#clip0_224_12559)">
<g id="freepik--background-complete--inject-8">
<path id="Vector" d="M60.7481 53.248H41.8701V61.2256H60.7481V53.248Z" fill="#EBEBEB"/>
<path id="Vector_2" d="M50.2183 43.1875H31.3403V51.165H50.2183V43.1875Z" fill="#EBEBEB"/>
<path id="Vector_3" d="M71.2779 43.1875H52.3999V51.165H71.2779V43.1875Z" fill="#EBEBEB"/>
<path id="Vector_4" d="M314.588 43.1875H295.71V51.165H314.588V43.1875Z" fill="#EBEBEB"/>
<path id="Vector_5" d="M314.588 258.453H295.71V266.431H314.588V258.453Z" fill="#EBEBEB"/>
<path id="Vector_6" d="M325.118 248.393H306.24V256.37H325.118V248.393Z" fill="#EBEBEB"/>
<path id="Vector_7" d="M50.2183 258.445H31.3403V266.423H50.2183V258.445Z" fill="#EBEBEB"/>
<path id="Vector_8" d="M83.3544 171.506H102.232V163.528H83.3544V171.506Z" fill="#EBEBEB"/>
<path id="Vector_9" d="M93.8842 181.564H112.762V173.587H93.8842V181.564Z" fill="#EBEBEB"/>
<path id="Vector_10" d="M60.2065 0H59.3652V77.8146H60.2065V0Z" fill="#C7C7C7"/>
<path id="Vector_11" d="M84.3315 101.477L82.3568 105.818H37.2079L35.2402 101.477L54.4604 88.1738H65.1114L84.3315 101.477Z" fill="#EBEBEB"/>
<path id="Vector_12" d="M66.4442 75.3555L65.1111 88.1737H54.4601L53.127 75.3555H66.4442Z" fill="#DBDBDB"/>
<path id="Vector_13" d="M84.3315 101.484L82.3568 105.819H37.2079L35.2402 101.484H84.3315Z" fill="#DBDBDB"/>
<path id="Vector_14" d="M119.571 0H118.729V63.813H119.571V0Z" fill="#C7C7C7"/>
<path id="Vector_15" d="M143.696 87.4749L141.721 91.8165H96.5721L94.6045 87.4749L113.825 74.1719H124.476L143.696 87.4749Z" fill="#EBEBEB"/>
<path id="Vector_16" d="M125.809 61.3535L124.476 74.1717H113.825L112.492 61.3535H125.809Z" fill="#DBDBDB"/>
<path id="Vector_17" d="M143.696 87.4824L141.721 91.8169H96.5721L94.6045 87.4824H143.696Z" fill="#DBDBDB"/>
<path id="Vector_18" d="M303.731 55.9922H257.398V102.325H303.731V55.9922Z" fill="white"/>
<path id="Vector_19" d="M254.989 53.582V104.734H306.14V53.582H254.989ZM303.702 102.324H257.363V55.9846H303.702V102.324Z" fill="#DBDBDB"/>
<path id="Vector_20" d="M300.401 93.3493V77.3301H264.292V93.3493H300.401Z" fill="#EBEBEB"/>
<path id="Vector_21" d="M289.814 88.4083V69.9082H271.314V88.4083H289.814Z" fill="#C7C7C7"/>
<path id="Vector_22" d="M308.115 53.582H306.141V104.734H308.115V53.582Z" fill="#C7C7C7"/>
<path id="Vector_23" d="M303.731 121.779H257.398V168.112H303.731V121.779Z" fill="white"/>
<path id="Vector_24" d="M277.46 129.193H265.362V164.14H277.46V129.193Z" fill="#C7C7C7"/>
<path id="Vector_25" d="M254.989 119.371V170.523H306.14V119.371H254.989ZM303.702 168.113H257.363V121.774H303.702V168.113Z" fill="#DBDBDB"/>
<path id="Vector_26" d="M289.815 135.695H271.314V154.195H289.815V135.695Z" fill="#EBEBEB"/>
<path id="Vector_27" d="M308.115 119.371H306.141V170.523H308.115V119.371Z" fill="#C7C7C7"/>
<path id="Vector_28" d="M303.731 187.568H257.398V233.901H303.731V187.568Z" fill="white"/>
<path id="Vector_29" d="M287.961 193.885H262.539V209.084H287.961V193.885Z" fill="#EBEBEB"/>
<path id="Vector_30" d="M254.989 185.158V236.31H306.14V185.158H254.989ZM303.702 233.9H257.363V187.561H303.702V233.9Z" fill="#DBDBDB"/>
<path id="Vector_31" d="M289.815 201.484H271.314V219.985H289.815V201.484Z" fill="#C7C7C7"/>
<path id="Vector_32" d="M308.115 185.158H306.141V236.31H308.115V185.158Z" fill="#C7C7C7"/>
</g>
<g id="freepik--Character--inject-8">
<path id="Vector_33" d="M193.286 307.979H131.333C129.38 286.976 127.419 265.453 125.865 248.293C125.815 247.723 125.758 247.153 125.709 246.59C123.955 227.177 122.764 213.76 122.764 213.76H181.223C181.227 213.819 181.227 213.879 181.223 213.938C181.658 217.118 187.611 263.514 193.286 307.979Z" fill="#37474F"/>
<path id="Vector_34" d="M140.722 307.978H139.731C137.029 285.236 134.833 262.451 132.837 239.638C132.723 238.274 132.604 236.907 132.481 235.539C132.082 230.855 131.682 226.149 131.297 221.458C131.297 221.316 131.504 221.316 131.526 221.458C131.963 225.617 132.386 229.766 132.794 233.906C132.798 233.918 132.798 233.93 132.794 233.942C132.937 235.453 133.094 236.957 133.244 238.476C134.833 254.217 136.409 269.944 138.134 285.664C138.956 293.111 139.819 300.549 140.722 307.978Z" fill="#263238"/>
<path id="Vector_35" d="M172.782 213.759L164.94 265.602L164.662 267.356L163.949 272.026L163.892 272.354L163.706 273.608L158.488 307.978H125.209C121.794 288.729 118.301 268.996 115.406 252.62C115.342 252.249 115.278 251.907 115.214 251.536C111.314 229.5 108.527 213.752 108.527 213.752L172.782 213.759Z" fill="#263238"/>
<path id="Vector_36" d="M181.28 213.709C181.28 213.709 181.28 213.781 181.244 213.938C180.781 216.96 175.747 249.377 167.385 270.65C167.328 270.828 167.264 270.992 167.185 271.178C167.185 271.178 166.009 271.541 163.885 272.382C163.058 272.71 162.074 273.095 160.962 273.594L159.75 274.136C157.297 275.234 154.324 276.674 150.931 278.513C150.603 278.685 150.282 278.863 149.961 279.041C149.961 279.041 149.961 279.176 149.961 279.426C149.79 281.657 148.92 293.107 147.823 307.943H89.4634C93.9547 261.653 98.8881 213.674 98.8881 213.674L181.28 213.709Z" fill="#37474F"/>
<path id="Vector_37" d="M105.418 222.729C103.757 244.444 102.168 266.159 100.428 287.846C99.8862 294.557 99.3301 301.268 98.7598 307.979H97.9043C100.371 279.567 102.716 251.155 104.941 222.743C104.955 222.429 105.44 222.429 105.418 222.729Z" fill="#263238"/>
<path id="Vector_38" d="M170.137 269.652C163.152 272.194 156.402 275.338 149.961 279.048C149.934 279.06 149.909 279.078 149.888 279.1C149.867 279.122 149.851 279.147 149.84 279.175C149.829 279.204 149.824 279.234 149.824 279.264C149.825 279.294 149.832 279.324 149.844 279.351C149.856 279.379 149.873 279.404 149.895 279.425C149.917 279.446 149.943 279.462 149.971 279.473C149.999 279.484 150.029 279.489 150.059 279.488C150.089 279.488 150.119 279.481 150.147 279.469C156.941 276.546 163.87 273.766 170.5 270.465C170.608 270.417 170.692 270.328 170.735 270.217C170.777 270.107 170.773 269.984 170.725 269.877C170.677 269.769 170.588 269.685 170.477 269.643C170.367 269.6 170.245 269.604 170.137 269.652Z" fill="#263238"/>
<path id="Vector_39" d="M172.297 223.014C172.297 222.779 171.862 222.729 171.869 223.014C171.919 231.084 171.406 238.178 170.729 245.72C170.408 249.221 167.592 268.569 161.525 267.158C160.506 266.922 159.985 265.924 159.828 264.392C159.636 262.552 160.327 260.292 160.634 258.46C161.347 254.404 161.853 250.34 162.195 246.255C162.902 238.636 162.821 230.965 161.953 223.363C161.944 223.318 161.92 223.277 161.884 223.247C161.848 223.217 161.803 223.201 161.757 223.201C161.71 223.201 161.665 223.217 161.63 223.247C161.594 223.277 161.569 223.318 161.561 223.363C161.561 233.936 161.29 244.487 159.707 254.96C158.951 259.993 156.413 267.571 161.682 268.341C166.95 269.111 170.508 256.443 171.164 252.971C172.989 243.275 173.06 232.817 172.297 223.014Z" fill="#263238"/>
<path id="Vector_40" d="M161.682 267.649C161.143 268.956 160.688 270.297 160.32 271.662C159.928 272.715 159.734 273.832 159.75 274.956C159.759 275.001 159.781 275.042 159.813 275.075C159.845 275.107 159.885 275.13 159.93 275.14C159.975 275.149 160.021 275.146 160.064 275.13C160.106 275.114 160.144 275.086 160.171 275.049C160.805 274.057 161.286 272.976 161.596 271.841C162.06 270.6 162.545 269.367 162.972 268.112C162.983 267.957 162.942 267.804 162.857 267.674C162.773 267.544 162.648 267.446 162.502 267.394C162.356 267.341 162.197 267.338 162.049 267.384C161.901 267.43 161.772 267.523 161.682 267.649Z" fill="#263238"/>
<path id="Vector_41" d="M134.213 229.344C134.225 228.5 134.139 227.658 133.957 226.835C133.95 226.807 133.934 226.782 133.911 226.764C133.889 226.746 133.861 226.736 133.832 226.736C133.803 226.736 133.775 226.746 133.752 226.764C133.73 226.782 133.714 226.807 133.707 226.835C133.537 227.535 133.444 228.252 133.429 228.973C133.344 229.807 133.229 230.634 133.144 231.469C132.962 233.172 132.664 234.86 132.253 236.523C131.487 239.668 129.886 242.547 127.619 244.857C125.364 247.07 122.701 248.823 119.777 250.019C116.519 251.402 113.083 251.915 109.718 252.906C109.575 252.942 109.618 253.148 109.718 253.155C113.454 253.146 117.155 252.42 120.618 251.017C123.678 249.866 126.463 248.089 128.795 245.798C131.136 243.436 132.783 240.477 133.557 237.243C133.947 235.58 134.167 233.882 134.213 232.174C134.27 231.232 134.27 230.287 134.213 229.344Z" fill="#263238"/>
<path id="Vector_42" d="M156.221 139.017C160.919 149.54 195.117 198.289 222.6 204.178C227.234 205.169 241.614 209.717 249.933 197.833C261.176 181.785 268.348 151.051 266.772 134.661C265.468 121.116 228.432 131.275 226.25 138.989C224.603 144.828 221.673 163.984 220.476 163.677C212.691 161.667 189.499 141.577 166.387 129.208C155.672 123.433 152.606 130.883 156.221 139.017Z" fill="#AD6359"/>
<path id="Vector_43" d="M218.202 172.004C218.362 170.806 218.583 169.616 218.865 168.44C219.454 166.173 220.251 163.966 221.246 161.845C221.289 161.753 221.46 161.81 221.424 161.917C220.711 164.105 220.191 166.38 219.606 168.611C219.321 169.723 219.05 170.828 218.801 171.947C218.551 173.067 218.237 174.229 218.045 175.384C218.045 175.448 217.916 175.441 217.924 175.384C218.002 174.236 218.045 173.124 218.202 172.004Z" fill="#263238"/>
<path id="Vector_44" d="M266.944 137.163C266.944 137.163 266.331 119.412 259.964 107.606C255.566 99.4429 244.009 82.7536 216.355 81.6842C209.796 81.4347 200.265 85.7264 210.83 90.0253C218.337 93.0837 224.019 92.7558 228.061 95.3294C228.061 95.3294 216.59 102.23 216.59 108.811C216.59 111.755 216.156 118.128 217.196 124.359C217.196 124.359 219.243 126.149 221.06 126.07C221.06 126.07 221.26 132.23 228.19 138.589L266.944 137.163Z" fill="#AD6359"/>
<path id="Vector_45" d="M182.506 100.128C179.141 102.395 177.302 107.749 180.011 112.839C182.72 117.93 189.578 117.281 192.843 115.049C196.109 112.818 198.868 107.25 196.08 102.502C193.72 98.3814 188.431 96.1571 182.506 100.128Z" fill="#FA9B0D"/>
<path id="Vector_46" opacity="0.1" d="M182.506 100.128C179.141 102.395 177.302 107.749 180.011 112.839C182.72 117.93 189.578 117.281 192.843 115.049C196.109 112.818 198.868 107.25 196.08 102.502C193.72 98.3814 188.431 96.1571 182.506 100.128Z" fill="black"/>
<path id="Vector_47" d="M183.532 101.462C180.788 103.308 179.29 107.686 181.501 111.842C183.711 115.998 189.343 115.471 191.995 113.646C194.647 111.82 196.921 107.279 194.647 103.394C192.679 100.029 188.359 98.218 183.532 101.462Z" fill="#FA9B0D"/>
<path id="Vector_48" d="M189.279 103.771C189.521 103.964 190.391 103.236 189.913 102.894C189.436 102.552 188.965 103.529 189.279 103.771Z" fill="white"/>
<path id="Vector_49" d="M191.31 108.541C191.189 108.819 192.109 109.482 192.323 108.933C192.536 108.384 191.474 108.17 191.31 108.541Z" fill="white"/>
<path id="Vector_50" d="M193.349 106.687C193.399 106.987 194.533 107.037 194.411 106.459C194.29 105.882 193.285 106.288 193.349 106.687Z" fill="white"/>
<path id="Vector_51" d="M189.221 101.682C189.521 101.632 189.578 100.505 189 100.619C188.423 100.734 188.822 101.746 189.221 101.682Z" fill="white"/>
<path id="Vector_52" d="M183.796 105.631C183.875 105.339 182.862 104.826 182.734 105.403C182.606 105.981 183.689 106.023 183.796 105.631Z" fill="white"/>
<path id="Vector_53" d="M186.22 111.927C185.971 111.749 185.137 112.512 185.629 112.832C186.12 113.153 186.548 112.169 186.22 111.927Z" fill="white"/>
<path id="Vector_54" d="M188.209 111.549C187.91 111.499 187.496 112.554 188.081 112.625C188.666 112.696 188.609 111.613 188.209 111.549Z" fill="white"/>
<path id="Vector_55" d="M186.121 107.086C186.335 106.872 185.707 105.924 185.315 106.373C184.923 106.822 185.836 107.371 186.121 107.086Z" fill="white"/>
<path id="Vector_56" d="M180.018 107.871C180.018 107.871 185.543 107.258 186.27 108.377C186.998 109.496 183.069 114.415 182.421 113.98C181.772 113.546 179.419 109.739 180.018 107.871Z" fill="#FA9B0D"/>
<path id="Vector_57" opacity="0.1" d="M180.018 107.871C180.018 107.871 185.543 107.258 186.27 108.377C186.998 109.496 183.069 114.415 182.421 113.98C181.772 113.546 179.419 109.739 180.018 107.871Z" fill="black"/>
<path id="Vector_58" d="M189.464 115.2C189.464 115.2 187.832 109.881 188.801 108.962C189.771 108.042 195.324 110.979 195.025 111.699C194.726 112.419 191.411 115.435 189.464 115.2Z" fill="#FA9B0D"/>
<path id="Vector_59" opacity="0.1" d="M189.464 115.2C189.464 115.2 187.832 109.881 188.801 108.962C189.771 108.042 195.324 110.979 195.025 111.699C194.726 112.419 191.411 115.435 189.464 115.2Z" fill="black"/>
<path id="Vector_60" d="M196.5 105.404C196.5 105.404 191.096 106.716 190.234 105.697C189.371 104.677 192.636 99.2803 193.335 99.651C194.034 100.022 196.85 103.472 196.5 105.404Z" fill="#FA9B0D"/>
<path id="Vector_61" opacity="0.1" d="M196.5 105.404C196.5 105.404 191.096 106.716 190.234 105.697C189.371 104.677 192.636 99.2803 193.335 99.651C194.034 100.022 196.85 103.472 196.5 105.404Z" fill="black"/>
<path id="Vector_62" d="M187.339 98.9372C187.339 98.9372 188.658 104.341 187.639 105.204C186.619 106.066 181.222 102.801 181.586 102.103C181.949 101.404 185.414 98.5808 187.339 98.9372Z" fill="#FA9B0D"/>
<path id="Vector_63" opacity="0.1" d="M187.339 98.9372C187.339 98.9372 188.658 104.341 187.639 105.204C186.619 106.066 181.222 102.801 181.586 102.103C181.949 101.404 185.414 98.5808 187.339 98.9372Z" fill="black"/>
<path id="Vector_64" d="M198.696 107.998C196.094 108.989 183.64 111.47 183.64 111.47L183.882 110.878L197.235 106.722C197.331 106.685 197.41 106.613 197.455 106.52C197.5 106.428 197.508 106.321 197.477 106.223C197.462 106.171 197.436 106.123 197.402 106.082C197.367 106.04 197.325 106.006 197.277 105.981C197.229 105.957 197.177 105.942 197.123 105.938C197.069 105.934 197.015 105.941 196.964 105.959L184.481 109.381L184.873 108.433L198.532 103.97C198.59 103.96 198.645 103.937 198.693 103.904C198.741 103.871 198.782 103.828 198.813 103.778C198.843 103.728 198.863 103.672 198.87 103.614C198.877 103.556 198.872 103.497 198.854 103.441C198.837 103.385 198.808 103.333 198.769 103.29C198.731 103.246 198.683 103.21 198.63 103.186C198.576 103.162 198.518 103.15 198.46 103.15C198.401 103.15 198.343 103.162 198.29 103.186L185.507 106.907L185.885 106.002L199.858 101.197C199.911 101.182 199.96 101.157 200.002 101.123C200.044 101.089 200.079 101.047 200.105 100.999C200.13 100.951 200.145 100.898 200.149 100.844C200.154 100.789 200.147 100.735 200.129 100.684C200.115 100.632 200.09 100.584 200.056 100.543C200.022 100.501 199.981 100.467 199.933 100.442C199.886 100.418 199.834 100.403 199.781 100.399C199.727 100.395 199.674 100.402 199.623 100.42L186.506 104.491L186.826 103.721C186.826 103.721 199.973 98.6446 201.527 98.3452C204.328 97.7962 202.639 106.501 198.696 107.998Z" fill="#455A64"/>
<path id="Vector_65" d="M201.591 100.798C203.416 99.964 210.908 96.6632 211.792 96.321C212.819 95.9217 249.128 81.7989 250.575 81.7561C252.022 81.7134 251.366 86.6824 250.532 87.7304C249.698 88.7783 215.3 98.253 211.835 99.6218C208.206 101.048 201.384 103.899 201.384 103.899L201.591 100.798Z" fill="#455A64"/>
<path id="Vector_66" d="M257.975 106.686C254.033 103.834 245.563 97.9813 236.966 95.5859C227.42 92.9267 208.313 90.3816 206.424 97.4466C205.034 102.63 212.249 104.248 212.249 104.248C212.249 104.248 204.129 104.854 203.901 109.809C203.694 114.328 209.34 115.241 209.34 115.241C209.34 115.241 204.478 116.46 205.12 120.852C205.89 126.127 215.949 122.705 221.346 127.382C222.558 128.43 257.975 106.686 257.975 106.686Z" fill="#AD6359"/>
<path id="Vector_67" d="M235.839 106.144C231.697 104.084 221.068 101.824 212.392 104.084C212.192 104.134 212.128 104.312 212.313 104.305C220.204 103.983 228.104 104.625 235.839 106.215C235.868 106.223 235.889 106.165 235.839 106.144Z" fill="#263238"/>
<path id="Vector_68" d="M232.881 115.706C229.116 114.28 218.059 112.455 209.354 115.064C209.155 115.121 209.105 115.299 209.29 115.285C217.143 114.562 225.052 114.732 232.866 115.791C232.909 115.806 232.923 115.72 232.881 115.706Z" fill="#263238"/>
<path id="Vector_69" d="M179.797 174.386L216.013 155.059C216.013 155.059 180.118 133.187 163.557 126.899C146.297 120.318 139.767 125.159 155.308 144.051C170.614 162.63 179.797 174.386 179.797 174.386Z" fill="#FA9B0D"/>
<path id="Vector_70" d="M213.04 153.276C212.348 153.46 211.671 153.699 211.015 153.989C210.043 154.41 209.133 154.964 208.314 155.636C209.361 155.48 210.381 155.178 211.343 154.738C212.097 154.414 212.814 154.01 213.482 153.533C213.332 153.462 213.161 153.369 213.04 153.276ZM174.885 158.673C173.911 159.088 173.004 159.643 172.19 160.32C173.235 160.161 174.253 159.857 175.213 159.414C176.188 159.002 177.098 158.449 177.915 157.775C176.866 157.924 175.845 158.227 174.885 158.673ZM192.038 161.924C191.622 160.952 191.07 160.045 190.398 159.229C190.552 160.277 190.854 161.297 191.296 162.259C191.709 163.23 192.261 164.135 192.936 164.947C192.785 163.901 192.482 162.883 192.038 161.924ZM161.119 146.325C160.698 145.357 160.143 144.452 159.472 143.638C159.629 144.683 159.934 145.701 160.377 146.66C160.788 147.634 161.341 148.542 162.017 149.355C161.863 148.308 161.561 147.287 161.119 146.325ZM152.564 131.468C151.581 131.084 150.549 130.844 149.498 130.755C150.347 131.385 151.28 131.892 152.271 132.259C153.255 132.639 154.287 132.879 155.337 132.972C154.488 132.342 153.555 131.836 152.564 131.468ZM177.466 142.162C176.483 141.766 175.448 141.514 174.393 141.413C175.243 142.047 176.179 142.556 177.173 142.925C178.157 143.304 179.189 143.544 180.239 143.638C179.407 143.008 178.49 142.499 177.516 142.126L177.466 142.162ZM168.661 129.037C168.283 129.984 168.043 130.98 167.948 131.996C168.549 131.195 169.029 130.311 169.374 129.372L168.661 129.037ZM193.342 147.744C192.963 148.727 192.723 149.759 192.629 150.81C193.873 149.092 194.647 147.079 194.875 144.971C194.237 145.811 193.721 146.737 193.342 147.723V147.744Z" fill="white"/>
<path id="Vector_71" d="M178.942 166.82C179.747 166.264 180.645 165.815 181.494 165.33C182.342 164.846 183.248 164.34 184.124 163.84C185.907 162.835 187.689 161.859 189.5 160.889C193.064 158.957 196.679 157.004 200.308 155.136C201.306 154.615 202.304 154.109 203.316 153.617C204.328 153.125 205.455 152.662 206.538 152.149C206.551 152.148 206.563 152.15 206.573 152.156C206.583 152.163 206.591 152.172 206.596 152.183C206.601 152.194 206.602 152.206 206.599 152.218C206.597 152.23 206.59 152.241 206.581 152.248C205.712 152.755 204.87 153.339 204.001 153.845C203.131 154.352 202.197 154.886 201.291 155.385C199.504 156.369 197.705 157.336 195.895 158.287C192.33 160.169 188.766 162.065 185.201 163.869L182.15 165.395C181.102 165.922 180.061 166.514 178.963 166.942C178.942 166.963 178.856 166.885 178.942 166.82Z" fill="#263238"/>
<path id="Vector_72" d="M155.309 144.008C170.615 162.622 179.797 174.371 179.797 174.371L191.368 168.197L147.88 125.123C144.879 127.426 146.725 133.578 155.309 144.008Z" fill="#263238"/>
<path id="Vector_73" d="M188.045 245.413L92.0586 251.473C92.0586 251.473 100.949 158.979 134.349 125.408C138.476 121.266 148.393 121.523 155.023 124.317C157.397 125.308 166.373 136.33 169.41 147.131C172.447 157.931 188.281 245.071 188.045 245.413Z" fill="#FA9B0D"/>
<path id="Vector_74" d="M124.931 152.564C123.957 152.98 123.047 153.532 122.229 154.204C123.279 154.046 124.3 153.734 125.258 153.277C126.234 152.864 127.144 152.312 127.96 151.637C126.912 151.801 125.892 152.113 124.931 152.564ZM172.304 160.263C172.263 160.29 172.224 160.321 172.19 160.356C172.23 160.36 172.271 160.36 172.311 160.356C172.311 160.356 172.304 160.249 172.304 160.228V160.263ZM148.286 176.247C147.312 176.662 146.402 177.214 145.584 177.887C146.631 177.731 147.651 177.428 148.614 176.988C149.586 176.574 150.493 176.021 151.308 175.349C150.262 175.498 149.244 175.801 148.286 176.247ZM137.734 216.84C136.762 217.258 135.855 217.813 135.04 218.487C136.088 218.337 137.109 218.034 138.07 217.589C139.041 217.169 139.948 216.615 140.764 215.942C139.717 216.096 138.696 216.398 137.734 216.84ZM114.023 190.462C113.053 190.882 112.147 191.434 111.328 192.102C112.376 191.952 113.397 191.649 114.358 191.204C115.329 190.787 116.236 190.235 117.053 189.564C116.003 189.729 114.983 190.044 114.023 190.498V190.462ZM97.8184 247.018C96.8457 247.432 95.938 247.984 95.1235 248.658C96.1719 248.507 97.1926 248.205 98.1534 247.759C99.1255 247.341 100.033 246.787 100.848 246.113C99.7975 246.276 98.7765 246.593 97.8184 247.054V247.018ZM139.994 240.88C139.022 241.294 138.114 241.846 137.3 242.519C138.347 242.366 139.367 242.063 140.329 241.621C141.3 241.201 142.207 240.646 143.024 239.974C141.973 240.135 140.952 240.452 139.994 240.915V240.88ZM187.496 241.835C186.821 242.018 186.163 242.256 185.528 242.548C184.559 242.969 183.653 243.521 182.833 244.188C183.882 244.036 184.902 243.734 185.863 243.289C186.459 243.024 187.036 242.717 187.589 242.37C187.546 242.184 187.496 242.006 187.496 241.835ZM165.816 213.982C164.842 214.399 163.932 214.954 163.114 215.628C164.149 215.47 165.157 215.168 166.108 214.73C167.084 214.314 167.994 213.759 168.81 213.083C167.77 213.237 166.756 213.539 165.802 213.982H165.816ZM133.885 137.087C133.468 136.114 132.914 135.206 132.238 134.392C132.394 135.437 132.696 136.454 133.136 137.414C133.552 138.39 134.107 139.3 134.783 140.116C134.631 139.068 134.329 138.048 133.885 137.087ZM119.534 245.842C119.12 244.867 118.568 243.957 117.894 243.14C118.046 244.188 118.348 245.208 118.792 246.17C119.208 247.144 119.76 248.053 120.432 248.872C120.287 247.822 119.984 246.801 119.534 245.842ZM113.638 219.357C113.217 218.387 112.66 217.482 111.984 216.669C112.141 217.714 112.443 218.731 112.882 219.692C113.299 220.666 113.857 221.574 114.536 222.387C114.379 221.34 114.076 220.32 113.638 219.357ZM149.155 201.163C148.736 200.191 148.184 199.282 147.516 198.461C147.664 199.51 147.967 200.531 148.414 201.491C148.826 202.467 149.379 203.377 150.054 204.193C149.898 203.146 149.595 202.126 149.155 201.163ZM134.07 167.656C133.652 166.682 133.098 165.772 132.423 164.954C132.571 166.003 132.874 167.024 133.322 167.984C133.738 168.959 134.292 169.869 134.968 170.686C134.813 169.65 134.511 168.642 134.07 167.692V167.656ZM156.691 244.765C156.818 245.643 157.058 246.501 157.404 247.317L158.259 247.26C157.845 246.376 157.318 245.549 156.691 244.801V244.765ZM182.641 223.142C182.222 222.169 181.665 221.262 180.987 220.448C181.148 221.491 181.45 222.508 181.885 223.47C182.304 224.442 182.859 225.349 183.532 226.165C183.381 225.12 183.081 224.102 182.641 223.142ZM161.118 146.326C160.697 145.358 160.143 144.453 159.471 143.638C159.628 144.684 159.933 145.701 160.377 146.661C160.788 147.635 161.34 148.543 162.016 149.356C161.863 148.308 161.56 147.288 161.118 146.326ZM152.563 131.469C151.581 131.085 150.548 130.845 149.498 130.756C150.346 131.386 151.28 131.893 152.271 132.26C153.254 132.64 154.286 132.88 155.336 132.973C154.488 132.343 153.554 131.836 152.563 131.469ZM125.686 205.355C124.707 204.955 123.674 204.703 122.621 204.607C123.471 205.239 124.408 205.748 125.401 206.118C126.385 206.495 127.417 206.735 128.467 206.831C127.626 206.208 126.699 205.711 125.715 205.355H125.686ZM102.445 231.933C101.462 231.538 100.427 231.285 99.3725 231.184C101.092 232.43 103.107 233.204 105.218 233.43C104.378 232.804 103.454 232.3 102.474 231.933H102.445ZM167.741 234.071C166.758 233.676 165.723 233.424 164.668 233.323C166.388 234.569 168.403 235.343 170.514 235.569C169.673 234.944 168.75 234.44 167.77 234.071H167.741ZM163.171 194.533C162.19 194.147 161.157 193.907 160.106 193.82C160.953 194.453 161.887 194.96 162.879 195.325C163.862 195.714 164.893 195.966 165.944 196.073C165.11 195.428 164.185 194.909 163.2 194.533H163.171ZM154.445 161.283C153.464 160.895 152.431 160.655 151.38 160.57C152.227 161.201 153.161 161.705 154.153 162.067C155.134 162.462 156.166 162.714 157.218 162.816C156.384 162.172 155.459 161.656 154.474 161.283H154.445ZM115.492 173.103C115.105 174.084 114.865 175.117 114.779 176.169C116.013 174.443 116.786 172.431 117.024 170.323C116.379 171.169 115.862 172.105 115.492 173.103ZM150.859 226.365C150.473 227.346 150.233 228.379 150.146 229.43C150.779 228.582 151.288 227.648 151.658 226.657C152.034 225.673 152.274 224.641 152.371 223.592C151.739 224.438 151.235 225.372 150.873 226.365H150.859ZM167.299 176.34C166.913 177.326 166.672 178.364 166.586 179.419C167.83 177.697 168.604 175.679 168.832 173.566C168.196 174.413 167.684 175.347 167.313 176.34H167.299ZM126.927 230.728C126.54 231.712 126.3 232.747 126.214 233.801C126.842 232.946 127.349 232.008 127.718 231.013C128.099 230.03 128.339 228.998 128.431 227.948C127.803 228.798 127.301 229.734 126.941 230.728H126.927ZM100.249 205.583C99.8688 206.569 99.6288 207.603 99.5365 208.656C100.171 207.807 100.677 206.871 101.041 205.876C101.428 204.895 101.669 203.862 101.754 202.81C101.132 203.662 100.631 204.595 100.264 205.583H100.249ZM133.314 188.516C132.925 189.499 132.684 190.535 132.601 191.589C133.844 189.868 134.618 187.853 134.847 185.743C134.203 186.587 133.687 187.522 133.314 188.516ZM143.352 148.721C142.977 149.709 142.737 150.742 142.639 151.794C143.273 150.946 143.782 150.013 144.151 149.021C144.53 148.035 144.77 147.001 144.864 145.948C144.235 146.798 143.729 147.731 143.359 148.721H143.352Z" fill="white"/>
<path id="Vector_75" d="M135.739 128.075C138.078 133.424 141.79 138.059 146.497 141.513C148.795 143.283 151.484 144.477 154.339 144.992C155.84 145.288 157.396 145.132 158.809 144.543C160.12 143.831 161.227 142.796 162.024 141.534C162.95 140.139 163.657 138.61 164.12 137C164.663 135.2 165.075 133.363 165.353 131.504C165.35 131.495 165.349 131.486 165.35 131.477C165.351 131.468 165.355 131.459 165.36 131.451C165.365 131.444 165.372 131.438 165.38 131.433C165.388 131.429 165.398 131.427 165.407 131.427C165.416 131.427 165.425 131.429 165.433 131.433C165.441 131.438 165.448 131.444 165.454 131.451C165.459 131.459 165.462 131.468 165.463 131.477C165.464 131.486 165.463 131.495 165.46 131.504C165.204 133.265 165.09 135.068 164.697 136.779C164.375 138.325 163.847 139.821 163.129 141.228C162.44 142.579 161.467 143.766 160.277 144.707C158.996 145.648 157.431 146.121 155.843 146.047C152.748 145.903 149.757 144.884 147.217 143.11C144.69 141.445 142.438 139.396 140.544 137.036C138.394 134.36 136.707 131.343 135.553 128.11C135.549 128.086 135.554 128.06 135.568 128.039C135.582 128.019 135.604 128.004 135.628 128C135.653 127.995 135.678 128 135.699 128.014C135.72 128.028 135.734 128.05 135.739 128.075Z" fill="#263238"/>
<path id="Vector_76" d="M156.698 141.776C151.081 142.717 142.134 133.635 138.833 126.534C138.612 126.049 139.653 121.137 140.644 115.128C141.228 111.47 141.798 107.385 142.069 103.621C142.119 102.844 165.31 110.907 165.31 110.907C165.31 110.907 162.459 118.649 162.074 125.215C162.051 125.734 162.073 126.254 162.138 126.769C162.142 126.855 162.142 126.941 162.138 127.026C162.409 129.985 162.131 140.857 156.698 141.776Z" fill="#AD6359"/>
<path id="Vector_77" d="M159.693 126.99C160.502 127.061 161.315 127.061 162.124 126.99C162.124 126.891 162.124 126.805 162.124 126.734C162.054 126.219 162.035 125.698 162.067 125.18C162.459 118.614 165.289 110.878 165.289 110.878C165.289 110.878 146.468 104.327 142.704 103.6C143.139 108.02 145.791 125.764 159.693 126.99Z" fill="#263238"/>
<path id="Vector_78" d="M138.704 77.8576C136.237 86.2629 140.95 110.502 146.981 115.799C155.721 123.534 169.894 124.119 176.432 113.66C182.769 103.508 176.068 72.0973 169.345 67.2637C159.45 60.1203 142.34 65.4172 138.704 77.8576Z" fill="#AD6359"/>
<path id="Vector_79" d="M161.732 92.5634C161.732 92.4993 161.625 92.6633 161.639 92.7274C161.996 94.3529 162.138 96.292 160.769 97.0905C160.727 97.0905 160.769 97.1974 160.769 97.176C162.545 96.5843 162.338 94.0392 161.732 92.5634Z" fill="#263238"/>
<path id="Vector_80" d="M159.956 91.1375C157.297 91.4369 158.089 96.7338 160.555 96.4558C163.022 96.1778 162.188 90.8879 159.956 91.1375Z" fill="#263238"/>
<path id="Vector_81" d="M171.77 90.8385C171.77 90.7743 171.912 90.8955 171.919 90.9597C172.112 92.6137 172.632 94.4672 174.179 94.7881C174.229 94.7881 174.236 94.8807 174.179 94.8807C172.326 94.9021 171.691 92.4283 171.77 90.8385Z" fill="#263238"/>
<path id="Vector_82" d="M172.981 88.8998C175.591 88.3081 176.589 93.5694 174.172 94.1255C171.755 94.6816 170.793 89.3989 172.981 88.8998Z" fill="#263238"/>
<path id="Vector_83" d="M157.504 89.0274C158.167 88.7154 158.814 88.3704 159.443 87.9937C160.177 87.7266 160.804 87.2256 161.225 86.5679C161.317 86.335 161.33 86.0783 161.262 85.8373C161.194 85.5964 161.048 85.3846 160.847 85.2347C159.942 84.6501 158.915 84.921 157.996 85.3702C157.056 85.7964 156.311 86.5596 155.907 87.5089C155.832 87.7284 155.821 87.9649 155.876 88.1904C155.931 88.4158 156.05 88.6207 156.218 88.7806C156.386 88.9405 156.597 89.0488 156.825 89.0926C157.053 89.1363 157.288 89.1137 157.504 89.0274Z" fill="#263238"/>
<path id="Vector_84" d="M174.664 85.9276C173.931 85.8904 173.2 85.8143 172.475 85.6995C171.695 85.7232 170.929 85.4903 170.294 85.0364C170.12 84.8556 170.012 84.6221 169.986 84.3729C169.961 84.1237 170.019 83.8731 170.151 83.6605C170.771 82.7836 171.827 82.6482 172.839 82.7195C173.864 82.768 174.836 83.1917 175.569 83.91C175.725 84.0846 175.826 84.3004 175.862 84.5314C175.897 84.7623 175.865 84.9986 175.77 85.2118C175.674 85.425 175.519 85.606 175.323 85.733C175.126 85.86 174.898 85.9276 174.664 85.9276Z" fill="#263238"/>
<path id="Vector_85" d="M162.544 107.472C162.994 107.793 163.471 108.263 164.07 108.227C164.679 108.123 165.26 107.893 165.774 107.55C165.784 107.542 165.797 107.538 165.81 107.538C165.823 107.539 165.835 107.543 165.845 107.551C165.855 107.56 165.862 107.571 165.865 107.584C165.867 107.597 165.865 107.61 165.859 107.621C165.674 107.98 165.394 108.282 165.05 108.494C164.706 108.706 164.31 108.821 163.906 108.826C163.558 108.789 163.23 108.649 162.962 108.424C162.694 108.2 162.499 107.9 162.402 107.564C162.352 107.479 162.473 107.422 162.544 107.472Z" fill="#263238"/>
<path id="Vector_86" d="M163.528 102.295C164.042 102.884 164.672 103.359 165.379 103.692C166.085 104.025 166.853 104.207 167.634 104.227C168.316 104.252 168.998 104.18 169.659 104.013C169.786 103.992 169.91 103.959 170.03 103.914C170.151 103.914 170.258 103.849 170.386 103.807C170.471 103.776 170.544 103.718 170.593 103.642C170.641 103.566 170.664 103.476 170.657 103.386C170.651 103.33 170.636 103.274 170.614 103.222V103.079C170.458 101.811 170.044 99.907 170.044 99.907C170.543 100.064 173.053 100.777 172.896 100.121C171.755 94.7028 170.486 88.7143 168.198 83.5314C168.186 83.4926 168.16 83.46 168.125 83.4406C168.089 83.4212 168.047 83.4167 168.009 83.428C167.97 83.4394 167.937 83.4656 167.918 83.5011C167.898 83.5365 167.894 83.5782 167.905 83.6169C168.796 88.864 170.607 93.9257 171.591 99.1799C170.695 98.9179 169.766 98.7812 168.832 98.7735C168.661 98.8519 169.695 102.438 169.716 103.015C169.721 103.036 169.721 103.058 169.716 103.079C167.634 103.664 165.938 103.265 163.663 102.146C163.521 102.053 163.414 102.181 163.528 102.295Z" fill="#263238"/>
<path id="Vector_87" d="M168.818 103.485C168.257 104.493 167.447 105.34 166.465 105.945C165.92 106.255 165.292 106.387 164.669 106.323C163.307 106.18 163.1 104.982 163.186 103.913C163.234 103.347 163.351 102.789 163.535 102.252C165.119 103.217 166.97 103.649 168.818 103.485Z" fill="#263238"/>
<path id="Vector_88" d="M166.465 105.946C165.92 106.256 165.292 106.388 164.669 106.324C163.307 106.181 163.1 104.983 163.186 103.914C164.611 103.85 166.144 104.591 166.465 105.946Z" fill="#FF97B8"/>
<path id="Vector_89" d="M166.109 72.9584C165.423 74.3388 164.397 75.5215 163.127 76.3947C161.857 77.268 160.385 77.8029 158.851 77.9488C155.807 78.2055 152.399 76.908 150.638 74.3343C150.588 74.2559 150.467 74.3343 150.517 74.4128C152.399 77.1646 155.508 79.0467 158.901 78.6903C160.517 78.4863 162.052 77.8622 163.351 76.8802C164.651 75.8983 165.67 74.5928 166.308 73.0939C166.351 72.9228 166.166 72.8301 166.109 72.9584Z" fill="#263238"/>
<path id="Vector_90" d="M153.027 56.1421C149.142 55.9996 145.534 58.6872 144.066 62.1948C143.231 64.2961 142.946 66.5757 143.239 68.8178C143.239 68.8367 143.246 68.8548 143.26 68.8682C143.273 68.8815 143.291 68.8891 143.31 68.8891C143.329 68.8891 143.347 68.8815 143.36 68.8682C143.374 68.8548 143.381 68.8367 143.381 68.8178C143.21 65.2532 144.565 61.2324 147.416 58.9225C148.696 57.8073 150.291 57.1188 151.981 56.9527C153.67 56.7866 155.369 57.1512 156.841 57.9957C158.473 58.9447 159.731 60.4241 160.406 62.1877C160.424 62.2227 160.454 62.2501 160.491 62.2647C160.527 62.2793 160.568 62.2802 160.605 62.2672C160.643 62.2542 160.674 62.2282 160.694 62.1939C160.713 62.1597 160.72 62.1195 160.712 62.0807C160.199 60.4194 159.186 58.9572 157.81 57.8941C156.434 56.8311 154.764 56.2191 153.027 56.1421Z" fill="#263238"/>
<path id="Vector_91" d="M182.506 58.2514C181.128 56.0791 179.028 54.4632 176.575 53.6887C173.174 52.6051 169.909 53.6887 166.686 54.8651C166.601 54.8651 166.651 55.029 166.736 55.0005C169.481 54.0238 172.319 53.1897 175.241 53.867C177.646 54.4226 179.785 55.7928 181.294 57.7452C182.791 59.765 183.509 62.2569 183.316 64.7634C183.124 67.2699 182.034 69.6229 180.246 71.3904C179.19 72.38 177.942 73.1434 176.58 73.6337C175.218 74.1241 173.77 74.3311 172.326 74.2421C172.212 74.2421 172.169 74.406 172.29 74.4132C174.264 74.6094 176.254 74.2524 178.038 73.3822C179.821 72.512 181.327 71.1628 182.387 69.4857C183.447 67.8085 184.019 65.8695 184.041 63.8855C184.062 61.9015 183.53 59.9507 182.506 58.2514Z" fill="#263238"/>
<path id="Vector_92" d="M138.212 80.0168C138.212 80.0168 136.986 72.8306 138.326 70.2356C139.667 67.6406 143.609 66.2005 143.609 66.2005C143.609 66.2005 144.6 59.6417 150.232 57.9236C155.287 56.3837 159.814 60.1122 159.814 60.1122C159.814 60.1122 165.289 51.4004 174.35 53.5391C182.948 55.5567 184.687 67.5408 178.086 73.0231C173.452 76.8728 165.161 73.9641 165.161 73.9641C164.498 74.2279 158.495 80.1879 151.615 75.2117C151.615 75.2117 147.68 80.0881 144.294 78.0634C144.315 78.0919 141.021 80.7083 138.212 80.0168Z" fill="#263238"/>
<path id="Vector_93" opacity="0.2" d="M142.148 71.5117C142.726 75.1975 144.287 85.713 143.467 88.2866C142.647 90.8602 140.879 97.4975 139.703 98.2104C138.042 90.3683 137.457 82.1056 138.705 77.8567C139.394 75.5233 140.567 73.3613 142.148 71.5117Z" fill="#263238"/>
<path id="Vector_94" d="M143.01 97.3117C143.01 97.3117 137.307 89.655 133.792 91.7153C130.278 93.7756 134.776 105.011 139.004 106.43C139.532 106.65 140.1 106.762 140.673 106.757C141.245 106.751 141.811 106.63 142.335 106.4C142.86 106.17 143.332 105.837 143.724 105.419C144.116 105.001 144.419 104.508 144.614 103.97L143.01 97.3117Z" fill="#AD6359"/>
<path id="Vector_95" d="M135.154 94.9023C135.139 94.9023 135.124 94.9084 135.113 94.9191C135.103 94.9297 135.097 94.9443 135.097 94.9594C135.097 94.9745 135.103 94.989 135.113 94.9997C135.124 95.0104 135.139 95.0164 135.154 95.0164C138.112 96.1072 139.745 98.7735 140.907 101.554C140.009 100.499 138.804 99.9427 137.385 101.026C137.307 101.083 137.385 101.197 137.471 101.176C137.98 100.997 138.532 100.979 139.051 101.126C139.571 101.273 140.032 101.577 140.372 101.996C140.926 102.704 141.404 103.469 141.798 104.277C141.941 104.534 142.411 104.384 142.304 104.085C142.303 104.061 142.303 104.037 142.304 104.013C142.24 100.285 139.175 95.1519 135.154 94.9023Z" fill="#263238"/>
<path id="Vector_96" d="M203.408 181.228C199.608 181.941 200.621 176.915 197.099 176.587C193.577 176.259 192.522 180.152 190.355 179.596C188.188 179.039 189.742 175.154 185.429 175.118C181.115 175.083 180.132 181.021 177.522 182.39C174.913 183.759 169.302 181.435 168.632 186.19C167.962 190.945 177.594 192.528 184.509 195.857C191.424 199.186 198.903 204.248 205.141 203.892C211.828 203.471 214.736 199.115 219.855 198.424C224.974 197.732 236.737 200.897 241.749 196.413C246.761 191.929 254.852 188.315 254.973 183.452C255.095 178.59 248.707 180.729 246.661 180.494C244.615 180.259 244.807 174.89 240.872 174.142C236.937 173.393 235.967 175.831 232.545 176.074C229.123 176.316 227.654 169.658 222.857 170.855C218.059 172.053 219.292 174.762 217.217 175.945C215.143 177.129 211.108 174.441 208.306 175.675C205.504 176.908 206.795 180.622 203.408 181.228Z" fill="#455A64"/>
<path id="Vector_97" d="M218.915 184.416C222.879 184.608 221.21 179.775 224.761 178.998C228.311 178.221 229.879 181.956 232.025 181.137C234.171 180.317 232.082 176.659 236.474 176.068C240.865 175.476 242.626 181.258 245.464 182.277C248.301 183.297 253.726 180.281 255.024 184.915C256.321 189.549 246.683 192.344 240.053 196.528C233.423 200.713 226.443 206.687 220.027 207.094C213.154 207.529 209.626 203.572 204.343 203.529C199.06 203.486 187.433 208.135 181.751 204.321C176.069 200.507 167.364 197.961 166.615 193.156C165.867 188.351 172.661 189.649 174.714 189.157C176.767 188.665 175.898 183.361 179.811 182.12C183.725 180.88 185.03 183.168 188.552 182.976C192.074 182.783 192.722 176.004 197.77 176.56C202.817 177.116 201.89 179.982 204.186 180.887C206.482 181.792 210.232 178.62 213.24 179.461C216.249 180.302 215.386 184.245 218.915 184.416Z" fill="#37474F"/>
<path id="Vector_98" d="M175.441 184.181C172.076 186.448 170.237 191.802 172.946 196.892C175.655 201.982 182.513 201.334 185.779 199.102C189.044 196.871 191.803 191.303 189.015 186.555C186.627 182.434 181.337 180.21 175.441 184.181Z" fill="#FA9B0D"/>
<path id="Vector_99" opacity="0.1" d="M175.441 184.181C172.076 186.448 170.237 191.802 172.946 196.892C175.655 201.982 182.513 201.334 185.779 199.102C189.044 196.871 191.803 191.303 189.015 186.555C186.627 182.434 181.337 180.21 175.441 184.181Z" fill="black"/>
<path id="Vector_100" d="M176.439 185.515C173.694 187.361 172.161 191.738 174.407 195.895C176.653 200.051 182.249 199.523 184.901 197.698C187.553 195.873 189.827 191.332 187.553 187.447C185.585 184.082 181.265 182.271 176.439 185.515Z" fill="#FA9B0D"/>
<path id="Vector_101" d="M182.185 187.824C182.428 188.016 183.298 187.289 182.82 186.947C182.342 186.605 181.872 187.581 182.185 187.824Z" fill="white"/>
<path id="Vector_102" d="M184.217 192.593C184.096 192.871 185.015 193.534 185.229 192.986C185.443 192.437 184.381 192.223 184.217 192.593Z" fill="white"/>
<path id="Vector_103" d="M186.256 190.74C186.306 191.04 187.439 191.09 187.318 190.512C187.197 189.935 186.192 190.348 186.256 190.74Z" fill="white"/>
<path id="Vector_104" d="M182.128 185.734C182.428 185.685 182.485 184.558 181.907 184.672C181.33 184.786 181.729 185.799 182.128 185.734Z" fill="white"/>
<path id="Vector_105" d="M176.703 189.684C176.782 189.392 175.769 188.878 175.641 189.456C175.513 190.033 176.596 190.076 176.703 189.684Z" fill="white"/>
<path id="Vector_106" d="M179.127 195.986C178.877 195.807 178.043 196.57 178.535 196.891C179.027 197.212 179.455 196.221 179.127 195.986Z" fill="white"/>
<path id="Vector_107" d="M181.116 195.601C180.817 195.551 180.403 196.607 180.988 196.678C181.572 196.749 181.515 195.665 181.116 195.601Z" fill="white"/>
<path id="Vector_108" d="M179.027 191.139C179.241 190.925 178.613 189.977 178.221 190.426C177.829 190.875 178.742 191.424 179.027 191.139Z" fill="white"/>
<path id="Vector_109" d="M172.925 191.923C172.925 191.923 178.45 191.31 179.177 192.43C179.904 193.549 175.976 198.468 175.327 198.033C174.679 197.598 172.326 193.791 172.925 191.923Z" fill="#FA9B0D"/>
<path id="Vector_110" opacity="0.1" d="M172.925 191.923C172.925 191.923 178.45 191.31 179.177 192.43C179.904 193.549 175.976 198.468 175.327 198.033C174.679 197.598 172.326 193.791 172.925 191.923Z" fill="black"/>
<path id="Vector_111" d="M182.37 199.252C182.37 199.252 180.738 193.934 181.707 193.014C182.677 192.095 188.231 195.032 187.931 195.752C187.632 196.472 184.317 199.488 182.37 199.252Z" fill="#FA9B0D"/>
<path id="Vector_112" opacity="0.1" d="M182.37 199.252C182.37 199.252 180.738 193.934 181.707 193.014C182.677 192.095 188.231 195.032 187.931 195.752C187.632 196.472 184.317 199.488 182.37 199.252Z" fill="black"/>
<path id="Vector_113" d="M189.407 189.457C189.407 189.457 184.003 190.769 183.141 189.749C182.278 188.73 185.543 183.333 186.242 183.704C186.94 184.074 189.756 187.496 189.407 189.457Z" fill="#FA9B0D"/>
<path id="Vector_114" opacity="0.1" d="M189.407 189.457C189.407 189.457 184.003 190.769 183.141 189.749C182.278 188.73 185.543 183.333 186.242 183.704C186.94 184.074 189.756 187.496 189.407 189.457Z" fill="black"/>
<path id="Vector_115" d="M180.246 182.99C180.246 182.99 181.565 188.394 180.545 189.256C179.526 190.119 174.129 186.854 174.493 186.155C174.856 185.457 178.321 182.634 180.246 182.99Z" fill="#FA9B0D"/>
<path id="Vector_116" opacity="0.1" d="M180.246 182.99C180.246 182.99 181.565 188.394 180.545 189.256C179.526 190.119 174.129 186.854 174.493 186.155C174.856 185.457 178.321 182.634 180.246 182.99Z" fill="black"/>
<path id="Vector_117" d="M204.45 171.627C200.486 170.757 195.346 173.124 193.535 178.599C191.724 184.074 196.928 188.58 200.814 189.421C204.699 190.262 210.609 188.395 212.128 183.098C213.44 178.514 211.394 173.152 204.45 171.627Z" fill="#FA9B0D"/>
<path id="Vector_118" opacity="0.1" d="M204.45 171.627C200.486 170.757 195.346 173.124 193.535 178.599C191.724 184.074 196.928 188.58 200.814 189.421C204.699 190.262 210.609 188.395 212.128 183.098C213.44 178.514 211.394 173.152 204.45 171.627Z" fill="black"/>
<path id="Vector_119" d="M204.178 173.238C200.949 172.525 196.75 174.464 195.267 178.941C193.784 183.418 198.04 187.104 201.213 187.781C204.385 188.458 209.219 186.947 210.481 182.62C211.529 178.891 209.853 174.514 204.178 173.238Z" fill="#FA9B0D"/>
<path id="Vector_120" d="M206.474 179.019C206.474 179.326 207.629 179.454 207.55 178.87C207.472 178.285 206.431 178.62 206.474 179.019Z" fill="white"/>
<path id="Vector_121" d="M204.435 183.781C204.143 183.888 204.3 185.007 204.842 184.786C205.384 184.565 204.806 183.646 204.435 183.781Z" fill="white"/>
<path id="Vector_122" d="M207.18 183.973C206.994 184.223 207.736 185.071 208.071 184.586C208.406 184.102 207.415 183.653 207.18 183.973Z" fill="white"/>
<path id="Vector_123" d="M207.943 177.515C208.185 177.708 209.048 176.966 208.563 176.631C208.079 176.296 207.622 177.287 207.943 177.515Z" fill="white"/>
<path id="Vector_124" d="M201.341 176.339C201.612 176.189 201.277 175.105 200.778 175.412C200.279 175.718 200.992 176.531 201.341 176.339Z" fill="white"/>
<path id="Vector_125" d="M198.461 182.448C198.418 182.141 197.285 182.063 197.392 182.64C197.499 183.218 198.511 182.84 198.461 182.448Z" fill="white"/>
<path id="Vector_126" d="M200.108 183.617C199.936 183.361 198.888 183.796 199.238 184.266C199.587 184.737 200.329 183.931 200.108 183.617Z" fill="white"/>
<path id="Vector_127" d="M201.89 179.026C202.196 179.026 202.446 177.921 201.89 177.936C201.334 177.95 201.491 179.019 201.89 179.026Z" fill="white"/>
<path id="Vector_128" d="M197.114 175.148C197.114 175.148 201.391 178.713 201.07 180.025C200.75 181.337 194.49 181.878 194.355 181.108C194.219 180.338 195.339 176.011 197.114 175.148Z" fill="#FA9B0D"/>
<path id="Vector_129" opacity="0.1" d="M197.114 175.148C197.114 175.148 201.391 178.713 201.07 180.025C200.75 181.337 194.49 181.878 194.355 181.108C194.219 180.338 195.339 176.011 197.114 175.148Z" fill="black"/>
<path id="Vector_130" d="M198.34 187.047C198.34 187.047 201.056 182.192 202.389 182.256C203.722 182.321 205.433 188.373 204.706 188.673C203.979 188.972 199.509 188.623 198.34 187.047Z" fill="#FA9B0D"/>
<path id="Vector_131" opacity="0.1" d="M198.34 187.047C198.34 187.047 201.056 182.192 202.389 182.256C203.722 182.321 205.433 188.373 204.706 188.673C203.979 188.972 199.509 188.623 198.34 187.047Z" fill="black"/>
<path id="Vector_132" d="M210.31 185.357C210.31 185.357 205.626 182.348 205.768 181.022C205.911 179.696 212.056 178.349 212.284 179.09C212.512 179.831 211.921 184.294 210.31 185.357Z" fill="#FA9B0D"/>
<path id="Vector_133" opacity="0.1" d="M210.31 185.357C210.31 185.357 205.626 182.348 205.768 181.022C205.911 179.696 212.056 178.349 212.284 179.09C212.512 179.831 211.921 184.294 210.31 185.357Z" fill="black"/>
<path id="Vector_134" d="M208.635 174.277C208.635 174.277 205.633 178.961 204.307 178.819C202.981 178.676 201.634 172.538 202.375 172.303C203.117 172.067 207.558 172.638 208.635 174.277Z" fill="#FA9B0D"/>
<path id="Vector_135" opacity="0.1" d="M208.635 174.277C208.635 174.277 205.633 178.961 204.307 178.819C202.981 178.676 201.634 172.538 202.375 172.303C203.117 172.067 207.558 172.638 208.635 174.277Z" fill="black"/>
<path id="Vector_136" d="M215.628 197.732C218.615 200.477 224.247 201.012 228.567 197.191C232.888 193.369 230.649 186.846 227.712 184.18C224.775 181.514 218.722 180.145 214.751 183.959C211.315 187.267 210.388 192.927 215.628 197.732Z" fill="#FA9B0D"/>
<path id="Vector_137" opacity="0.1" d="M215.628 197.732C218.615 200.477 224.247 201.012 228.567 197.191C232.888 193.369 230.649 186.846 227.712 184.18C224.775 181.514 218.722 180.145 214.751 183.959C211.315 187.267 210.388 192.927 215.628 197.732Z" fill="black"/>
<path id="Vector_138" d="M216.683 196.449C219.121 198.688 223.727 199.122 227.256 196.007C230.785 192.892 228.959 187.559 226.543 185.37C224.126 183.182 219.2 182.077 215.956 185.192C213.161 187.894 212.406 192.521 216.683 196.449Z" fill="#FA9B0D"/>
<path id="Vector_139" d="M217.596 190.348C217.724 190.07 216.812 189.393 216.59 189.935C216.369 190.476 217.439 190.69 217.596 190.348Z" fill="white"/>
<path id="Vector_140" d="M221.752 187.232C222.051 187.289 222.465 186.241 221.895 186.155C221.324 186.07 221.353 187.16 221.752 187.232Z" fill="white"/>
<path id="Vector_141" d="M219.47 185.685C219.756 185.571 219.542 184.459 219.007 184.708C218.472 184.958 219.107 185.842 219.47 185.685Z" fill="white"/>
<path id="Vector_142" d="M215.571 190.874C215.457 190.589 214.345 190.796 214.587 191.331C214.83 191.865 215.728 191.238 215.571 190.874Z" fill="white"/>
<path id="Vector_143" d="M220.683 195.225C220.376 195.225 220.119 196.315 220.683 196.308C221.246 196.301 221.082 195.232 220.683 195.225Z" fill="white"/>
<path id="Vector_144" d="M226.244 191.388C226.129 191.674 227.063 192.308 227.263 191.759C227.463 191.21 226.393 191.018 226.244 191.388Z" fill="white"/>
<path id="Vector_145" d="M225.402 189.548C225.402 189.855 226.55 190.005 226.478 189.42C226.407 188.835 225.373 189.149 225.402 189.548Z" fill="white"/>
<path id="Vector_146" d="M221.552 192.621C221.288 192.464 220.518 193.298 221.039 193.576C221.559 193.854 221.902 192.828 221.552 192.621Z" fill="white"/>
<path id="Vector_147" d="M223.741 198.375C223.741 198.375 221.852 193.142 222.771 192.172C223.691 191.203 229.387 193.876 229.124 194.603C228.86 195.33 225.702 198.517 223.741 198.375Z" fill="#FA9B0D"/>
<path id="Vector_148" opacity="0.1" d="M223.741 198.375C223.741 198.375 221.852 193.142 222.771 192.172C223.691 191.203 229.387 193.876 229.124 194.603C228.86 195.33 225.702 198.517 223.741 198.375Z" fill="black"/>
<path id="Vector_149" d="M228.66 187.496C228.66 187.496 223.869 190.348 222.75 189.599C221.631 188.851 223.185 182.784 223.955 182.912C224.725 183.04 228.432 185.521 228.66 187.496Z" fill="#FA9B0D"/>
<path id="Vector_150" opacity="0.1" d="M228.66 187.496C228.66 187.496 223.869 190.348 222.75 189.599C221.631 188.851 223.185 182.784 223.955 182.912C224.725 183.04 228.432 185.521 228.66 187.496Z" fill="black"/>
<path id="Vector_151" d="M217.488 182.926C217.488 182.926 220.026 187.873 219.242 188.95C218.458 190.026 212.462 188.102 212.633 187.346C212.805 186.59 215.535 183.033 217.488 182.926Z" fill="#FA9B0D"/>
<path id="Vector_152" opacity="0.1" d="M217.488 182.926C217.488 182.926 220.026 187.873 219.242 188.95C218.458 190.026 212.462 188.102 212.633 187.346C212.805 186.59 215.535 183.033 217.488 182.926Z" fill="black"/>
<path id="Vector_153" d="M213.339 193.335C213.339 193.335 218.294 190.797 219.371 191.588C220.447 192.38 218.522 198.368 217.759 198.197C216.997 198.026 213.446 195.296 213.339 193.335Z" fill="#FA9B0D"/>
<path id="Vector_154" opacity="0.1" d="M213.339 193.335C213.339 193.335 218.294 190.797 219.371 191.588C220.447 192.38 218.522 198.368 217.759 198.197C216.997 198.026 213.446 195.296 213.339 193.335Z" fill="black"/>
<path id="Vector_155" d="M237.4 188.771C240.388 191.516 246.02 192.043 250.34 188.222C254.66 184.401 252.422 177.885 249.484 175.211C246.547 172.538 240.494 171.176 236.524 174.99C233.123 178.298 232.16 183.93 237.4 188.771Z" fill="#FA9B0D"/>
<path id="Vector_156" opacity="0.1" d="M237.4 188.771C240.388 191.516 246.02 192.043 250.34 188.222C254.66 184.401 252.422 177.885 249.484 175.211C246.547 172.538 240.494 171.176 236.524 174.99C233.123 178.298 232.16 183.93 237.4 188.771Z" fill="black"/>
<path id="Vector_157" d="M238.456 187.496C240.894 189.735 245.499 190.17 249.028 187.047C252.557 183.925 250.732 178.599 248.315 176.418C245.898 174.236 240.972 173.117 237.728 176.24C234.934 178.941 234.178 183.554 238.456 187.496Z" fill="#FA9B0D"/>
<path id="Vector_158" d="M239.368 181.358C239.496 181.08 238.584 180.41 238.363 180.952C238.142 181.493 239.197 181.721 239.368 181.358Z" fill="white"/>
<path id="Vector_159" d="M243.524 178.27C243.824 178.32 244.237 177.272 243.667 177.193C243.096 177.115 243.104 178.227 243.524 178.27Z" fill="white"/>
<path id="Vector_160" d="M241.243 176.723C241.528 176.602 241.314 175.49 240.78 175.739C240.245 175.989 240.879 176.88 241.243 176.723Z" fill="white"/>
<path id="Vector_161" d="M237.343 181.906C237.229 181.621 236.117 181.835 236.36 182.362C236.602 182.89 237.5 182.277 237.343 181.906Z" fill="white"/>
<path id="Vector_162" d="M242.455 186.256C242.148 186.256 241.891 187.354 242.455 187.339C243.018 187.325 242.854 186.27 242.455 186.256Z" fill="white"/>
<path id="Vector_163" d="M248.015 182.427C247.901 182.713 248.835 183.347 249.035 182.791C249.235 182.235 248.165 182.057 248.015 182.427Z" fill="white"/>
<path id="Vector_164" d="M247.174 180.58C247.174 180.886 248.322 181.036 248.251 180.459C248.18 179.881 247.146 180.18 247.174 180.58Z" fill="white"/>
<path id="Vector_165" d="M243.325 183.66C243.061 183.503 242.291 184.33 242.811 184.616C243.332 184.901 243.674 183.867 243.325 183.66Z" fill="white"/>
<path id="Vector_166" d="M245.513 189.406C245.513 189.406 243.624 184.174 244.544 183.211C245.464 182.249 251.16 184.908 250.896 185.642C250.632 186.377 247.474 189.549 245.513 189.406Z" fill="#FA9B0D"/>
<path id="Vector_167" opacity="0.1" d="M245.513 189.406C245.513 189.406 243.624 184.174 244.544 183.211C245.464 182.249 251.16 184.908 250.896 185.642C250.632 186.377 247.474 189.549 245.513 189.406Z" fill="black"/>
<path id="Vector_168" d="M250.432 178.507C250.432 178.507 245.641 181.358 244.522 180.645C243.403 179.932 244.957 173.83 245.727 173.951C246.497 174.072 250.233 176.56 250.432 178.507Z" fill="#FA9B0D"/>
<path id="Vector_169" opacity="0.1" d="M250.432 178.507C250.432 178.507 245.641 181.358 244.522 180.645C243.403 179.932 244.957 173.83 245.727 173.951C246.497 174.072 250.233 176.56 250.432 178.507Z" fill="black"/>
<path id="Vector_170" d="M239.261 173.951C239.261 173.951 241.799 178.899 241.015 179.975C240.23 181.052 234.235 179.134 234.406 178.371C234.577 177.608 237.307 174.065 239.261 173.951Z" fill="#FA9B0D"/>
<path id="Vector_171" opacity="0.1" d="M239.261 173.951C239.261 173.951 241.799 178.899 241.015 179.975C240.23 181.052 234.235 179.134 234.406 178.371C234.577 177.608 237.307 174.065 239.261 173.951Z" fill="black"/>
<path id="Vector_172" d="M235.112 184.373C235.112 184.373 240.067 181.835 241.144 182.619C242.22 183.403 240.295 189.399 239.532 189.228C238.77 189.057 235.219 186.333 235.112 184.373Z" fill="#FA9B0D"/>
<path id="Vector_173" opacity="0.1" d="M235.112 184.373C235.112 184.373 240.067 181.835 241.144 182.619C242.22 183.403 240.295 189.399 239.532 189.228C238.77 189.057 235.219 186.333 235.112 184.373Z" fill="black"/>
<path id="Vector_174" d="M164.69 193.505L185.565 221.944L240.074 218.507L257.213 187.674L164.69 193.505Z" fill="#EBEBEB"/>
<path id="Vector_175" d="M121.145 146.019C108.106 180.716 97.441 218.515 105.511 226.057C112.027 232.139 166.145 241.029 177.986 240.223C183.019 239.895 188.131 201.013 179.412 199.651C176.931 199.266 138.063 198.375 137.678 197.512C136.402 194.846 137.421 175.997 137.899 153.533C138.498 124.66 126.663 131.333 121.145 146.019Z" fill="#AD6359"/>
<path id="Vector_176" d="M175.306 239.896C189.4 241.564 206.845 244.501 221.51 238.064C223.155 237.386 224.526 236.176 225.402 234.627C232.025 231.861 232.709 227.898 232.709 227.898C238.085 223.428 238.227 219.286 238.227 219.286C238.227 219.286 245.963 215.949 244.722 210.937C243.346 205.305 232.745 211.094 224.974 210.716C207.151 209.839 179.448 203.466 174.357 202.703L175.306 239.896Z" fill="#AD6359"/>
<path id="Vector_177" d="M205.683 222.892C210.93 223.041 216.084 223.334 221.324 222.77C227.078 222.157 232.51 220.632 238.078 219.163C238.095 219.157 238.113 219.155 238.132 219.157C238.15 219.158 238.167 219.163 238.184 219.171C238.2 219.18 238.214 219.191 238.226 219.205C238.238 219.219 238.247 219.235 238.253 219.252C238.258 219.269 238.26 219.288 238.259 219.306C238.257 219.324 238.252 219.342 238.244 219.358C238.236 219.374 238.225 219.389 238.211 219.4C238.197 219.412 238.181 219.421 238.163 219.427C228.496 223.633 216.063 224.866 205.669 223.127C205.419 223.091 205.419 222.884 205.683 222.892Z" fill="#263238"/>
<path id="Vector_178" d="M203.594 233.571C208.705 233.436 217.695 233.143 232.674 227.711C232.724 227.711 232.766 227.768 232.716 227.796C223.449 232.616 213.931 234.405 203.601 233.813C203.28 233.792 203.252 233.578 203.594 233.571Z" fill="#263238"/>
<path id="Vector_179" d="M202.575 239.324C211.265 238.768 216.669 237.314 225.388 234.576C225.431 234.576 225.474 234.64 225.424 234.662C215.849 238.818 211.878 239.239 202.553 239.652C202.233 239.638 202.233 239.346 202.575 239.324Z" fill="#263238"/>
<path id="Vector_180" d="M203.572 208.298C201.298 207.264 201.819 206.066 206.139 205.011C210.459 203.956 228.425 203.436 227.712 197.169C226.999 190.903 201.933 193.191 194.604 194.317C186.914 195.622 179.629 198.684 173.316 203.264C178.293 204.049 193.827 206.658 203.572 208.298Z" fill="#AD6359"/>
<path id="Vector_181" d="M138.769 189.208L100.849 197.649C100.849 197.649 113.817 157.69 122.237 142.105C131.077 125.865 139.19 125.288 139.731 149.712C140.209 173.837 138.769 189.208 138.769 189.208Z" fill="#FA9B0D"/>
<path id="Vector_182" d="M105.732 190.169C106.659 189.856 107.643 189.67 108.584 189.456L111.521 188.743C113.51 188.266 115.506 187.824 117.502 187.389C121.487 186.526 125.48 185.642 129.479 184.844C130.584 184.63 131.682 184.409 132.787 184.224C133.892 184.038 135.133 183.903 136.295 183.703C136.366 183.703 136.373 183.796 136.295 183.81C135.311 184.052 134.348 184.38 133.365 184.63C132.381 184.879 131.354 185.129 130.342 185.343C128.346 185.79 126.35 186.224 124.353 186.647C120.418 187.467 116.511 188.309 112.533 189.043L109.218 189.656C108.07 189.87 106.901 190.155 105.732 190.262C105.696 190.276 105.668 190.191 105.732 190.169Z" fill="#263238"/>
<path id="Vector_183" d="M109.489 174.713C110.401 172.14 111.236 169.552 112.112 166.971C113.103 164.041 114.002 161.082 114.964 158.138C114.964 158.067 114.857 158.024 114.829 158.095C113.638 161.232 109.582 171.683 108.94 173.459C107.065 178.627 105.19 183.796 103.358 188.979C102.331 191.887 101.219 195.245 100.207 198.154C100.136 198.368 103.18 197.541 104.777 197.063C104.862 197.063 104.919 196.742 104.812 196.771C103.301 197.113 101.248 197.334 101.02 197.391C102.966 192.472 104.834 187.517 106.666 182.548C107.621 179.944 108.562 177.332 109.489 174.713Z" fill="#263238"/>
<path id="Vector_184" d="M133.315 188.515C133.056 189.177 132.853 189.859 132.709 190.554L133.329 190.419C133.608 189.898 133.858 189.363 134.078 188.815C134.455 187.83 134.695 186.799 134.79 185.749C134.167 186.595 133.67 187.526 133.315 188.515ZM115.492 173.102C115.105 174.083 114.865 175.116 114.779 176.167C116.014 174.442 116.787 172.43 117.025 170.322C116.379 171.167 115.862 172.104 115.492 173.102ZM134.028 167.691C133.61 166.717 133.055 165.807 132.381 164.989C132.529 166.038 132.832 167.059 133.279 168.019C133.695 168.994 134.25 169.904 134.926 170.721C134.788 169.675 134.5 168.654 134.07 167.691H134.028ZM133.842 137.085C133.426 136.113 132.871 135.205 132.195 134.391C132.351 135.435 132.654 136.453 133.094 137.413C133.51 138.389 134.065 139.299 134.741 140.115C134.603 139.069 134.314 138.049 133.885 137.085H133.842ZM113.98 190.497C113.011 190.917 112.104 191.469 111.286 192.137C112.334 191.986 113.355 191.684 114.316 191.238C115.286 190.821 116.194 190.269 117.01 189.599C115.977 189.756 114.972 190.059 114.023 190.497H113.98ZM124.931 152.563C123.957 152.979 123.048 153.531 122.229 154.203C123.279 154.045 124.3 153.733 125.259 153.276C126.234 152.863 127.144 152.311 127.961 151.636C126.912 151.8 125.892 152.112 124.931 152.563Z" fill="white"/>
</g>
<g id="freepik--Water--inject-8">
<path id="Vector_185" opacity="0.8" d="M186.784 315.664C186.784 318.651 160.877 318.615 160.884 315.621L161.012 285.379C161.571 285.337 162.118 285.199 162.63 284.973C162.711 284.937 162.78 284.879 162.828 284.805C162.876 284.731 162.902 284.644 162.902 284.556C162.902 284.468 162.876 284.381 162.828 284.307C162.78 284.233 162.711 284.175 162.63 284.139C162.114 283.897 161.567 283.727 161.005 283.633V282.007C161.565 281.967 162.115 281.832 162.63 281.608C162.71 281.567 162.776 281.506 162.823 281.429C162.869 281.353 162.894 281.266 162.894 281.177C162.894 281.088 162.869 281 162.823 280.924C162.776 280.848 162.71 280.786 162.63 280.745C162.107 280.529 161.562 280.368 161.005 280.268V278.642C161.565 278.596 162.114 278.459 162.63 278.236C162.71 278.196 162.777 278.135 162.824 278.06C162.871 277.984 162.896 277.897 162.896 277.808C162.896 277.719 162.871 277.632 162.824 277.557C162.777 277.481 162.71 277.42 162.63 277.38C162.109 277.156 161.564 276.993 161.005 276.896V275.249C161.562 275.197 162.109 275.068 162.63 274.864C162.71 274.824 162.777 274.763 162.824 274.688C162.871 274.612 162.896 274.525 162.896 274.436C162.896 274.347 162.871 274.26 162.824 274.185C162.777 274.109 162.71 274.048 162.63 274.008C162.106 273.791 161.561 273.624 161.005 273.509V266.673C161.005 264.27 168.99 256.635 170.223 255.466L170.387 255.316V253.455H177.595V255.316C177.595 255.316 186.948 264.099 186.948 266.722V273.552C186.392 273.671 185.848 273.841 185.323 274.058C185.245 274.088 185.18 274.144 185.137 274.215C185.077 274.305 185.05 274.412 185.059 274.52C185.068 274.627 185.113 274.728 185.187 274.807C185.22 274.855 185.268 274.893 185.323 274.914C185.841 275.118 186.386 275.247 186.941 275.299V276.946C186.403 277.04 185.877 277.193 185.372 277.402H185.315C185.236 277.441 185.169 277.502 185.122 277.578C185.075 277.654 185.05 277.741 185.05 277.83C185.05 277.919 185.075 278.006 185.122 278.081C185.169 278.157 185.236 278.218 185.315 278.257L185.444 278.307C185.923 278.506 186.431 278.629 186.948 278.671V280.296C186.498 280.376 186.056 280.497 185.629 280.66L185.323 280.774C185.243 280.814 185.176 280.875 185.129 280.95C185.082 281.026 185.057 281.113 185.057 281.202C185.057 281.291 185.082 281.378 185.129 281.453C185.176 281.529 185.243 281.59 185.323 281.629C185.443 281.691 185.569 281.739 185.7 281.772C186.102 281.917 186.522 282.006 186.948 282.036V283.661C186.575 283.726 186.208 283.821 185.85 283.946C185.658 284.018 185.479 284.096 185.33 284.167C185.249 284.203 185.18 284.262 185.132 284.336C185.084 284.41 185.058 284.496 185.058 284.585C185.058 284.673 185.084 284.759 185.132 284.833C185.18 284.907 185.249 284.966 185.33 285.002C185.528 285.089 185.733 285.16 185.943 285.215C186.273 285.315 186.612 285.379 186.955 285.408V301.092L186.784 315.664Z" fill="white"/>
<path id="Vector_186" opacity="0.8" d="M184.681 270.053L184.645 298.37L184.56 313.342C184.56 315.794 163.229 315.773 163.236 313.299L163.365 270.31C165.168 270.952 169.375 272.256 173.018 271.871C176.661 271.486 181.309 270.196 184.645 269.918C184.665 269.961 184.677 270.007 184.681 270.053Z" fill="#EBEBEB"/>
<path id="Vector_187" d="M179.108 248.894L168.913 248.879C168.712 248.879 168.549 249.042 168.549 249.242L168.543 253.092C168.543 253.293 168.706 253.456 168.907 253.456L179.101 253.471C179.302 253.471 179.465 253.308 179.465 253.107L179.471 249.258C179.471 249.057 179.308 248.894 179.108 248.894Z" fill="#FA9B0D"/>
</g>
<g id="freepik--Bowl--inject-8">
<path id="Vector_188" d="M36.1164 291.232C37.0033 291.227 37.8703 290.969 38.6163 290.489C39.3624 290.01 39.9566 289.328 40.3297 288.523C40.3297 288.523 42.2261 290.369 45.3201 289.093C48.4142 287.817 51.6508 280.046 49.3552 273.58C47.0596 267.114 41.0284 265.589 36.1734 270.643C29.6075 268.241 24.8381 272.269 25.6508 279.084C26.4635 285.9 32.7942 291.46 36.1164 291.232Z" fill="#FA9B0D"/>
<path id="Vector_189" d="M30.6055 263.272C32.3042 263.773 33.8333 264.73 35.0272 266.038C36.2211 267.346 37.0341 268.956 37.3781 270.694C37.6918 272.291 35.2394 272.875 34.8972 271.264C34.3625 268.569 32.0455 267.371 29.422 266.587C27.8536 266.117 29.0299 262.802 30.6055 263.272Z" fill="#37474F"/>
<path id="Vector_190" d="M35.7173 272.333C35.7173 272.333 36.1949 264.897 43.3526 263.928C43.0444 265.923 42.1563 267.784 40.7987 269.278C39.4411 270.773 37.674 271.835 35.7173 272.333Z" fill="#37474F"/>
<path id="Vector_191" d="M60.1203 289.971C60.6771 290.665 61.4205 291.185 62.2629 291.47C63.1053 291.756 64.0117 291.795 64.8754 291.582C64.8754 291.582 64.5974 294.22 67.5132 295.86C70.429 297.5 78.542 295.24 82.2064 289.444C85.8707 283.648 83.3399 277.959 76.3676 277.26C74.2289 270.616 68.0835 269.354 63.2286 274.202C58.3736 279.049 57.8746 287.476 60.1203 289.971Z" fill="#FA9B0D"/>
<path id="Vector_192" d="M78.6984 268.354C79.3543 269.999 79.5475 271.792 79.2572 273.539C78.967 275.285 78.2042 276.92 77.0516 278.264C75.9893 279.504 74.0003 277.914 75.0697 276.674C76.8591 274.585 76.3743 272.033 75.362 269.474C74.756 267.955 78.0924 266.829 78.6984 268.354Z" fill="#37474F"/>
<path id="Vector_193" d="M74.7568 277.951C74.7568 277.951 80.9022 273.731 86.085 278.764C84.325 279.754 82.3129 280.204 80.2988 280.06C78.2848 279.915 76.3576 279.182 74.7568 277.951Z" fill="#37474F"/>
<path id="Vector_194" d="M55.415 294.561C54.5405 294.415 53.7256 294.023 53.0655 293.431C52.4053 292.839 51.9271 292.071 51.6865 291.218C51.6865 291.218 49.5477 292.743 46.6533 290.997C43.7589 289.25 41.8411 281.059 45.1277 275.035C48.4142 269.011 54.6094 268.462 58.6089 274.215C65.4743 272.889 69.545 277.623 67.6629 284.196C65.7808 290.769 58.6873 295.31 55.415 294.561Z" fill="#FA9B0D"/>
<path id="Vector_195" opacity="0.1" d="M55.415 294.561C54.5405 294.415 53.7256 294.023 53.0655 293.431C52.4053 292.839 51.9271 292.071 51.6865 291.218C51.6865 291.218 49.5477 292.743 46.6533 290.997C43.7589 289.25 41.8411 281.059 45.1277 275.035C48.4142 269.011 54.6094 268.462 58.6089 274.215C65.4743 272.889 69.545 277.623 67.6629 284.196C65.7808 290.769 58.6873 295.31 55.415 294.561Z" fill="black"/>
<path id="Vector_196" d="M65.2815 267.82C63.5283 268.05 61.8713 268.755 60.4893 269.858C59.1073 270.961 58.0527 272.421 57.4394 274.079C56.8762 275.605 59.2289 276.575 59.7992 275.035C60.7474 272.461 63.2212 271.641 65.9445 271.285C67.5486 271.071 66.9069 267.606 65.2815 267.82Z" fill="#37474F"/>
<path id="Vector_197" d="M58.8083 275.898C58.8083 275.898 59.5212 268.483 52.5988 266.395C52.5864 268.413 53.1687 270.391 54.2729 272.081C55.3772 273.771 56.9546 275.098 58.8083 275.898Z" fill="#37474F"/>
<path id="Vector_198" d="M93.1209 293.285C92.27 293.538 91.3648 293.545 90.5105 293.304C89.6561 293.062 88.8877 292.584 88.2945 291.924C88.2945 291.924 87.0255 294.248 83.6819 293.934C80.3384 293.62 74.9844 287.133 75.2909 280.275C75.5975 273.416 80.9158 270.201 87.0398 273.609C92.6148 269.396 98.3537 271.855 99.5657 278.599C100.778 285.343 96.3861 292.522 93.1209 293.285Z" fill="#FA9B0D"/>
<path id="Vector_199" opacity="0.1" d="M93.1209 293.285C92.27 293.538 91.3648 293.545 90.5105 293.304C89.6561 293.062 88.8877 292.584 88.2945 291.924C88.2945 291.924 87.0255 294.248 83.6819 293.934C80.3384 293.62 74.9844 287.133 75.2909 280.275C75.5975 273.416 80.9158 270.201 87.0398 273.609C92.6148 269.396 98.3537 271.855 99.5657 278.599C100.778 285.343 96.3861 292.522 93.1209 293.285Z" fill="black"/>
<path id="Vector_200" d="M90.2127 264.933C88.741 265.913 87.5648 267.276 86.811 268.875C86.0572 270.474 85.7544 272.249 85.9352 274.008C86.0992 275.633 88.6372 275.434 88.4732 273.83C88.1952 271.099 90.0559 269.281 92.3443 267.756C93.6846 266.85 91.5815 264.027 90.2127 264.933Z" fill="#37474F"/>
<path id="Vector_201" d="M87.9663 275.056C87.9663 275.056 85.3357 268.084 78.2065 269.253C79.0851 271.071 80.4787 272.59 82.214 273.622C83.9493 274.654 85.9497 275.153 87.9663 275.056Z" fill="#37474F"/>
<path id="Vector_202" d="M99.4373 283.547C99.4373 283.547 92.9141 307.978 84.3805 307.978H39.2103C30.6553 307.978 24.1606 283.547 24.1606 283.547H99.4373Z" fill="#EBEBEB"/>
</g>
<g id="freepik--Oil--inject-8">
<path id="Vector_203" d="M288.51 285.273C295.29 276.718 295.069 274.986 294.976 274.23C294.976 274.031 291.447 254.105 285.124 254.105H272.683C272.726 251.709 272.797 249.87 272.854 249.457C273.104 247.631 273.981 245.892 275.378 245.892C276.776 245.892 276.804 244.174 275.378 244.174H249.407C248.017 244.174 248.017 245.892 249.407 245.892C250.797 245.892 255.987 247.895 256.764 248.908C257.541 249.92 257.762 264.941 257.57 268.349C257.377 271.756 241.679 280.525 239.44 290.798C237.202 301.072 242.663 315.708 265.184 315.708C287.704 315.708 293.158 301.072 290.934 290.798C290.46 288.828 289.639 286.957 288.51 285.273ZM272.826 268.37C272.641 267.001 272.605 262.724 272.641 258.575H284.896C286.885 260.122 290.014 271.158 290.535 274.508C290.114 275.606 287.975 278.686 285.744 281.588C280.404 275.478 273.104 270.637 272.797 268.37H272.826Z" fill="white"/>
<path id="Vector_204" d="M288.509 285.274C289.764 283.67 290.998 282.044 292.145 280.362C292.716 279.52 293.272 278.665 293.764 277.781C294.295 276.917 294.685 275.973 294.919 274.986C294.963 274.483 294.915 273.975 294.776 273.489L294.462 271.999C294.248 271.001 294.011 270.01 293.749 269.026C293.243 267.059 292.659 265.105 291.981 263.188C291.319 261.268 290.466 259.42 289.436 257.67C288.927 256.802 288.296 256.012 287.561 255.324C287.21 254.978 286.793 254.704 286.336 254.52C285.878 254.335 285.388 254.242 284.895 254.248H272.676H272.512V254.084L272.619 251.132L272.669 249.664C272.701 249.165 272.794 248.671 272.947 248.195C273.089 247.707 273.302 247.244 273.581 246.819C273.861 246.368 274.278 246.018 274.772 245.821C274.898 245.774 275.03 245.745 275.164 245.735H275.527C275.732 245.718 275.923 245.63 276.069 245.486C276.131 245.416 276.176 245.333 276.201 245.243C276.226 245.153 276.23 245.059 276.214 244.967C276.197 244.875 276.16 244.788 276.106 244.713C276.051 244.637 275.98 244.575 275.898 244.531C275.46 244.396 274.999 244.352 274.543 244.402H270.145H264.27H252.522H249.591C249.121 244.402 248.722 244.516 248.615 244.88C248.593 244.969 248.59 245.061 248.608 245.151C248.625 245.241 248.662 245.325 248.716 245.399C248.769 245.473 248.838 245.535 248.918 245.579C248.998 245.624 249.087 245.65 249.178 245.657C249.356 245.657 249.663 245.657 249.891 245.728C250.119 245.8 250.383 245.828 250.604 245.885C251.089 246.013 251.559 246.156 252.03 246.32C252.964 246.639 253.88 247.008 254.774 247.425C255.227 247.638 255.667 247.876 256.093 248.138C256.316 248.274 256.528 248.427 256.728 248.594C256.844 248.695 256.939 248.819 257.006 248.958C257.06 249.084 257.101 249.215 257.127 249.35C257.31 250.325 257.432 251.311 257.491 252.301C257.633 254.262 257.704 256.215 257.761 258.176C257.818 260.136 257.854 262.097 257.861 264.057C257.861 265.034 257.861 266.018 257.861 267.002C257.861 267.494 257.861 267.964 257.804 268.492C257.693 269.02 257.448 269.511 257.091 269.917C255.806 271.419 254.397 272.809 252.878 274.074C251.409 275.371 249.941 276.662 248.522 278.002C245.706 280.69 242.976 283.548 241.122 286.963C240.18 288.655 239.582 290.515 239.361 292.438C239.101 294.361 239.123 296.311 239.425 298.227L239.525 298.94C239.575 299.175 239.639 299.411 239.696 299.653L240.046 301.079L240.559 302.441L240.815 303.118L241.143 303.767L241.814 305.057C242.07 305.463 242.363 305.855 242.633 306.255C243.183 307.053 243.801 307.802 244.48 308.493C244.81 308.847 245.165 309.175 245.542 309.477L246.647 310.418C247.467 310.939 248.251 311.516 249.092 311.994C249.934 312.471 250.818 312.892 251.723 313.241C252.628 313.591 253.548 313.954 254.482 314.197C258.254 315.198 262.151 315.649 266.053 315.537L268.976 315.423C269.945 315.33 270.915 315.18 271.877 315.059C272.839 314.927 273.791 314.734 274.729 314.482C275.199 314.368 275.684 314.275 276.155 314.132L277.531 313.648C281.239 312.414 284.543 310.196 287.091 307.231C287.404 306.861 287.654 306.44 287.939 306.048C288.237 305.663 288.502 305.252 288.73 304.822L289.443 303.531C289.66 303.095 289.848 302.645 290.007 302.184C290.717 300.359 291.14 298.435 291.261 296.481C291.392 294.529 291.253 292.569 290.848 290.656C290.383 288.741 289.592 286.92 288.509 285.274ZM288.509 285.274C289.607 286.902 290.42 288.705 290.912 290.606C291.335 292.524 291.494 294.491 291.383 296.452C291.273 298.416 290.862 300.352 290.163 302.191C290.013 302.658 289.827 303.114 289.607 303.553L288.894 304.865C288.666 305.298 288.404 305.713 288.11 306.105C287.825 306.504 287.576 306.932 287.255 307.31C284.717 310.348 281.388 312.625 277.638 313.89L276.247 314.382C275.777 314.525 275.292 314.617 274.822 314.738C273.883 314.991 272.931 315.189 271.97 315.33C270.993 315.451 270.024 315.608 269.047 315.701L266.103 315.829C262.167 315.951 258.234 315.507 254.425 314.51C253.484 314.232 252.564 313.869 251.63 313.548C250.696 313.227 249.848 312.707 248.957 312.286C248.066 311.865 247.296 311.224 246.462 310.696L245.335 309.734C244.947 309.429 244.582 309.096 244.245 308.736C243.551 308.028 242.917 307.265 242.348 306.454C242.07 306.048 241.778 305.649 241.514 305.235L240.801 303.916L240.459 303.26L240.195 302.548L239.675 301.165L239.304 299.739C239.247 299.496 239.176 299.261 239.126 299.026L239.026 298.313C238.709 296.358 238.68 294.366 238.941 292.403C239.166 290.424 239.777 288.508 240.737 286.764C241.685 285.031 242.82 283.407 244.123 281.923C245.405 280.425 246.766 278.997 248.201 277.645C249.627 276.291 251.096 274.993 252.557 273.689C254.044 272.444 255.425 271.078 256.685 269.604C256.971 269.263 257.174 268.86 257.277 268.427C257.319 267.978 257.319 267.465 257.334 267.002C257.334 266.025 257.334 265.048 257.334 264.072C257.334 262.118 257.334 260.158 257.255 258.204C257.177 256.251 257.134 254.298 256.999 252.351C256.945 251.395 256.833 250.442 256.664 249.5C256.664 249.378 256.599 249.279 256.571 249.186C256.526 249.108 256.468 249.038 256.4 248.979C256.224 248.831 256.038 248.695 255.844 248.573C255.431 248.326 255.005 248.102 254.568 247.903C253.689 247.49 252.79 247.123 251.873 246.805C250.97 246.454 250.022 246.233 249.057 246.149C248.907 246.128 248.764 246.077 248.634 246C248.504 245.923 248.391 245.821 248.301 245.7C248.207 245.574 248.143 245.428 248.116 245.273C248.089 245.118 248.098 244.959 248.144 244.809C248.191 244.662 248.269 244.527 248.372 244.413C248.475 244.298 248.602 244.207 248.743 244.146C248.999 244.044 249.274 244 249.549 244.017H252.486H264.235H270.109H275.242C275.519 244.002 275.795 244.061 276.041 244.188C276.174 244.26 276.289 244.362 276.377 244.486C276.465 244.609 276.523 244.751 276.547 244.901C276.57 245.05 276.56 245.201 276.515 245.345C276.471 245.488 276.394 245.619 276.29 245.728C276.089 245.935 275.821 246.064 275.534 246.092C275.293 246.088 275.053 246.122 274.822 246.192C274.397 246.358 274.039 246.658 273.802 247.047C273.542 247.443 273.343 247.876 273.21 248.33C272.966 249.261 272.855 250.221 272.882 251.182L272.775 254.098L272.611 253.934H284.831C285.896 253.928 286.921 254.343 287.682 255.089C288.436 255.797 289.082 256.611 289.6 257.506C290.625 259.277 291.468 261.147 292.117 263.088C292.787 265.02 293.35 266.98 293.842 268.962C294.084 269.946 294.313 270.944 294.555 271.942L294.854 273.439C294.991 273.938 295.032 274.458 294.976 274.972C294.738 275.969 294.338 276.921 293.792 277.788C293.286 278.679 292.723 279.528 292.145 280.362C291.019 282.066 289.778 283.677 288.509 285.274Z" fill="#263238"/>
<path id="Vector_205" d="M272.797 268.37C272.697 267.557 272.676 266.745 272.64 265.925L272.583 263.472V258.575V258.525H272.633L284.888 258.375H284.966L285.009 258.418L285.415 258.824C285.53 258.974 285.629 259.131 285.736 259.28C285.938 259.582 286.123 259.894 286.292 260.214C286.62 260.856 286.905 261.512 287.183 262.168C287.718 263.494 288.189 264.841 288.609 266.196C289.03 267.55 289.458 268.912 289.814 270.288C290.171 271.664 290.527 273.054 290.741 274.473V274.537V274.594C290.435 275.257 290.075 275.893 289.664 276.497C289.272 277.096 288.859 277.681 288.438 278.265C287.602 279.42 286.741 280.561 285.857 281.687L285.736 281.837L285.608 281.694C283.572 279.366 281.393 277.166 279.085 275.107C277.937 274.066 276.775 273.04 275.649 271.977C275.085 271.443 274.529 270.908 274.016 270.323C273.451 269.786 273.032 269.114 272.797 268.37ZM272.797 268.37C273.034 269.108 273.453 269.775 274.016 270.309C274.536 270.887 275.1 271.421 275.663 271.949C276.803 272.997 277.973 274.016 279.128 275.036C281.49 277.038 283.73 279.181 285.836 281.452H285.587C286.442 280.311 287.274 279.156 288.082 277.987C288.481 277.396 288.88 276.804 289.258 276.212C289.649 275.632 289.992 275.022 290.285 274.387V274.508C290.042 273.132 289.693 271.756 289.322 270.388C288.952 269.019 288.559 267.664 288.139 266.31C287.718 264.955 287.255 263.622 286.713 262.31C286.456 261.654 286.171 261.013 285.865 260.378C285.585 259.759 285.204 259.191 284.738 258.696L284.859 258.739L272.604 258.589L272.654 258.539C272.626 260.174 272.626 261.806 272.654 263.437V265.889C272.69 266.737 272.704 267.557 272.797 268.37Z" fill="#263238"/>
<path id="Vector_206" d="M264.627 312.258C245.692 312.258 241.1 299.953 242.975 291.327C244.85 282.7 260.798 273.033 260.463 270.232C260.406 269.683 260.363 258.697 260.342 257.549H269.774C269.774 258.747 269.845 269.74 269.909 270.232C270.287 273.026 284.389 282.679 286.306 291.327C288.224 299.974 283.562 312.258 264.627 312.258Z" fill="#FA9B0D"/>
</g>
<g id="freepik--speech-bubble--inject-8">
<path id="Vector_207" d="M245.05 61.5884C244.65 65.5439 243.155 69.3096 240.733 72.4625C238.311 75.6155 235.058 78.031 231.34 79.4378C227.621 80.8447 223.584 81.1872 219.682 80.4269C215.78 79.6666 212.166 77.8337 209.248 75.1338L198.554 76.7093L203.915 67.4414C202.573 64.1792 202.068 60.6329 202.447 57.1256C203.099 51.5238 205.934 46.4052 210.336 42.8796C214.738 39.354 220.352 37.7057 225.961 38.292C231.57 38.8783 236.722 41.6521 240.299 46.0118C243.877 50.3714 245.592 55.9656 245.072 61.5813L245.05 61.5884Z" fill="white"/>
<path id="Vector_208" d="M245.05 61.5881C244.636 65.538 243.141 69.2973 240.73 72.4529C240.126 73.2367 239.476 73.9842 238.784 74.6915C238.07 75.3741 237.315 76.0122 236.524 76.6021C234.943 77.79 233.203 78.7499 231.355 79.4537C229.506 80.1779 227.565 80.641 225.588 80.8297C224.597 80.9164 223.601 80.9354 222.608 80.8867C221.612 80.8634 220.621 80.7609 219.642 80.5802C215.691 79.8507 212.02 78.0364 209.041 75.3402L209.297 75.4187L198.604 77.0655L197.827 77.1867L198.219 76.4738L203.551 67.2059V67.5695C202.29 64.5015 201.749 61.185 201.97 57.8752C202.191 54.5653 203.169 51.3504 204.827 48.4776C206.498 45.6264 208.792 43.1894 211.536 41.3485C214.281 39.5329 217.401 38.3616 220.663 37.9221C223.925 37.4826 227.243 37.7863 230.371 38.8105C233.47 39.8645 236.295 41.5961 238.641 43.8793C240.98 46.1538 242.771 48.9294 243.882 51.9969C244.992 55.0643 245.391 58.3438 245.05 61.5881ZM245.05 61.5881C245.391 58.3618 244.986 55.1004 243.868 52.0549C242.751 49.0093 240.949 46.2608 238.602 44.0208C236.255 41.7808 233.426 40.109 230.332 39.134C227.238 38.159 223.961 37.9069 220.754 38.397C217.575 38.8765 214.547 40.0735 211.9 41.8974C209.278 43.7347 207.089 46.1214 205.483 48.8911C203.902 51.6694 202.971 54.7698 202.76 57.9594C202.561 61.1439 203.078 64.3324 204.271 67.2914L204.35 67.4839L204.243 67.655L198.853 76.9229L198.468 76.3597L209.205 74.8554H209.354L209.461 74.9553C212.323 77.636 215.876 79.4654 219.72 80.238C220.679 80.4316 221.652 80.5508 222.629 80.5944C225.572 80.7976 228.523 80.3647 231.284 79.3254C233.135 78.6593 234.876 77.7223 236.452 76.5451C238.058 75.3985 239.478 74.0138 240.666 72.4387C243.103 69.2973 244.621 65.541 245.05 61.5881Z" fill="#263238"/>
<path id="Vector_209" d="M232.824 63.399C230.422 66.6308 227.351 69.3058 223.82 71.241C220.292 69.3044 217.223 66.6296 214.823 63.399C211.657 59.207 211.814 52.6411 216.341 51.2224C221.332 49.654 223.82 57.1966 223.82 57.1966C223.82 57.1966 226.322 49.6041 231.305 51.2224C235.818 52.691 235.975 59.207 232.824 63.399Z" fill="#FA9B0D"/>
</g>
</g>
</g>
</g>
<defs>
<clipPath id="clip0_224_12559">
<rect width="356.457" height="309" fill="white"/>
</clipPath>
</defs>
</svg>
