<svg width="370" height="307" viewBox="0 0 370 307" fill="none" xmlns="http://www.w3.org/2000/svg">
<rect width="370" height="307" fill="#9D9D9D"/>
<g id="Onboarding 12">
<rect width="428" height="930" transform="translate(-29 -119)" fill="white"/>
<g id="Location tracking-cuate 1" clip-path="url(#clip0_224_12559)">
<g id="freepik--background-complete--inject-1">
<path id="Vector" d="M304.073 194.562L313.952 194.362L318.822 194.273C320.442 194.273 322.048 194.273 323.669 194.273L323.336 194.599L323.299 186.325L323.669 186.688L313.871 186.644C310.6 186.644 307.337 186.562 304.073 186.525L304.273 186.325C304.273 187.68 304.207 189.041 304.177 190.418L304.073 194.562ZM304.073 194.562L303.962 190.469C303.962 189.086 303.881 187.687 303.866 186.288V186.089H304.073C307.337 186.089 310.6 185.97 313.871 185.97L323.669 185.926H324.039V186.303L323.994 194.576V194.909H323.669C322.011 194.909 320.361 194.909 318.711 194.872L313.76 194.769L304.073 194.562Z" fill="#EBEBEB"/>
<path id="Vector_2" d="M315.003 204.982L324.882 204.782L329.751 204.693C331.372 204.693 332.985 204.693 334.598 204.656L334.265 204.982V196.708L334.635 197.071L324.838 197.027C321.567 197.027 318.304 196.945 315.04 196.908L315.24 196.708C315.24 198.063 315.173 199.424 315.144 200.801L315.003 204.982ZM315.003 204.982L314.9 200.889C314.863 199.506 314.811 198.107 314.796 196.708V196.509H315.003C318.266 196.472 321.53 196.39 324.801 196.39L334.598 196.346H334.968V196.723L334.924 204.982V205.315H334.598C332.948 205.315 331.29 205.315 329.64 205.278L324.712 205.189L315.003 204.982Z" fill="#EBEBEB"/>
<path id="Vector_3" d="M293.099 205.01H312.694V196.729H293.099V205.01Z" fill="#EBEBEB"/>
<path id="Vector_4" d="M35.4015 246.221L45.2583 246.021L50.1127 245.932C51.7259 245.932 53.3317 245.932 54.9375 245.932L54.6119 246.258L54.5675 238.007L54.9375 238.377L45.1399 238.28C41.8839 238.28 38.6279 238.192 35.3719 238.155L35.5717 237.955C35.5717 239.302 35.5125 240.663 35.4755 242.04L35.4015 246.221ZM35.4015 246.221L35.2979 242.143C35.2609 240.759 35.2165 239.368 35.2017 237.97V237.77H35.4015C38.6575 237.725 41.9135 237.651 45.1695 237.644L54.9375 237.6H55.3075V237.97V246.221V246.554H54.9819C53.3391 246.554 51.6889 246.554 50.0461 246.517L45.0881 246.42L35.4015 246.221Z" fill="#EBEBEB"/>
<path id="Vector_5" d="M46.3019 256.633H65.8379V248.374H46.3019V256.633Z" fill="#EBEBEB"/>
<path id="Vector_6" d="M86.1729 79.8166L96.0593 79.6094L100.929 79.528C102.542 79.491 104.155 79.528 105.768 79.491L105.443 79.8166L105.398 71.536L105.768 71.906L95.9705 71.8616C92.7071 71.8616 89.4363 71.7802 86.1729 71.7358L86.3727 71.536C86.3727 72.8902 86.3135 74.2592 86.2765 75.6356L86.1729 79.8166ZM86.1729 79.8166L86.0693 75.7244C86.0693 74.3406 85.9879 72.942 85.9731 71.536V71.3362H86.1729C89.4363 71.2992 92.7071 71.2178 95.9705 71.2178L105.768 71.166H106.138V71.536L106.101 79.8166V80.1496H105.776C104.125 80.1496 102.468 80.1496 100.825 80.1052L95.8965 80.0238L86.1729 79.8166Z" fill="#EBEBEB"/>
<path id="Vector_7" d="M46.2354 8.24414L65.8306 8.24414V-0.036458L46.2354 -0.036458V8.24414Z" fill="#EBEBEB"/>
<path id="Vector_8" d="M35.3127 18.6858L45.1917 18.5008L50.0609 18.4194C51.6815 18.4194 53.2873 18.4194 54.9079 18.4194L54.5749 18.745V10.4644L54.9449 10.8344L45.1399 10.7308C41.8691 10.7308 38.6057 10.6494 35.3423 10.605L35.5421 10.4052C35.5421 11.7594 35.4755 13.121 35.4459 14.5048L35.3127 18.6858ZM35.3127 18.6858L35.2017 14.5936C35.2017 13.2098 35.1203 11.8112 35.1055 10.4052V10.2054H35.3127C38.5761 10.2054 41.8395 10.087 45.1103 10.0796L54.9079 10.0352H55.2779V10.4052L55.2335 18.6858V19.0188H54.9079C53.2503 19.0188 51.6001 19.0188 49.9499 18.9744L45.0215 18.893L35.3127 18.6858Z" fill="#EBEBEB"/>
<path id="Vector_9" d="M304.073 8.24435L313.952 8.03715L318.822 7.95575C320.442 7.95575 322.048 7.95575 323.669 7.95575L323.336 8.28135L323.299 0.000749439L323.669 0.370749L313.871 0.326348C310.6 0.326348 307.337 0.24495 304.073 0.20055L304.273 0.000749439C304.273 1.35495 304.207 2.71655 304.177 4.10035L304.073 8.24435ZM304.073 8.24435L303.962 4.15215C303.962 2.76835 303.881 1.36975 303.866 -0.03625V-0.23605H304.073C307.337 -0.23605 310.6 -0.354452 313.871 -0.361852L323.669 -0.40625H324.039V0.000749439L323.994 8.28135V8.61435H323.669C322.011 8.61435 320.361 8.61435 318.711 8.56995L313.76 8.45155L304.073 8.24435Z" fill="#EBEBEB"/>
<path id="Vector_10" d="M273.097 111.793H292.692V103.512H273.097V111.793Z" fill="#EBEBEB"/>
<path id="Vector_11" d="M229.156 140.822H335.768V-0.0367432H229.156V140.822Z" fill="#EBEBEB"/>
<path id="Vector_12" d="M284.589 68.2578H330.758V5.60201L284.589 5.60201V68.2578Z" fill="white"/>
<path id="Vector_13" d="M234.151 68.2578H280.319V5.60201L234.151 5.60201V68.2578Z" fill="white"/>
<path id="Vector_14" d="M284.589 135.176H330.758V72.52H284.589V135.176Z" fill="white"/>
<path id="Vector_15" d="M234.151 135.176H280.319V72.52H234.151V135.176Z" fill="white"/>
<path id="Vector_16" d="M264.772 -0.0371094H229.148V201.48H249.765L235.379 98.9379L264.772 -0.0371094Z" fill="#DBDBDB"/>
<path id="Vector_17" d="M258.6 5.41016L252.969 28.8386L247.226 52.2374L235.734 99.0276L235.741 98.9018L241.055 147.801L243.704 172.251L246.235 196.715L243.341 172.295L240.559 147.86L235.009 98.9832L235.001 98.9166L235.016 98.85L246.753 52.119L252.621 28.7498L258.6 5.41016Z" fill="#EBEBEB"/>
<path id="Vector_18" d="M231.272 9.54688L231.45 29.7563L231.554 49.9657L231.642 90.3845L231.554 130.803L231.45 151.013L231.272 171.222L231.087 151.013L230.984 130.803L230.902 90.3845L230.984 49.9657L231.087 29.7563L231.272 9.54688Z" fill="#EBEBEB"/>
<path id="Vector_19" d="M237.925 13.3359L236.837 34.8181L235.675 56.2929L233.24 99.2425V99.2129L234.424 147.076L234.942 171L235.379 194.939L234.565 171.015L233.832 147.091L232.515 99.2351V99.2129V99.2055L235.127 56.2633L236.496 34.7959L237.925 13.3359Z" fill="#EBEBEB"/>
<path id="Vector_20" d="M242.564 191.838L240.219 168.654L237.947 145.462C236.504 129.996 234.987 114.53 233.603 99.0566V98.9604L240.219 62.8558L243.578 44.8072L246.99 26.7734L243.882 44.859L240.722 62.9446L234.299 99.0862V98.9974C235.779 114.456 237.14 129.937 238.568 145.403L240.603 168.617L242.564 191.838Z" fill="#EBEBEB"/>
<path id="Vector_21" d="M229.156 101.951H237.2V97.2522H229.156V101.951Z" fill="#DBDBDB"/>
<path id="Vector_22" d="M300.055 -0.0371094H335.679V201.48H315.062L329.455 98.9379L300.055 -0.0371094Z" fill="#DBDBDB"/>
<path id="Vector_23" d="M306.227 5.41016L312.206 28.7498L318.074 52.119L329.81 98.85L329.825 98.9166L329.818 98.9832L324.268 147.86L321.485 172.295L318.592 196.715L321.123 172.251L323.779 147.801L329.085 98.9018L329.093 99.0276L317.6 52.2374L311.858 28.8386L306.227 5.41016Z" fill="#EBEBEB"/>
<path id="Vector_24" d="M333.555 9.54688L333.74 29.7563L333.844 49.9657L333.925 90.3845L333.844 130.803L333.74 151.013L333.555 171.222L333.377 151.013L333.274 130.803L333.192 90.3845L333.274 49.9657L333.377 29.7563L333.555 9.54688Z" fill="#EBEBEB"/>
<path id="Vector_25" d="M326.902 13.3359L328.338 34.7959L329.7 56.2633L332.312 99.2055V99.2129V99.2351L330.995 147.091L330.262 171.015L329.455 194.939L329.892 171L330.403 147.076L331.587 99.2129V99.2425L329.152 56.2929L327.998 34.8181L326.902 13.3359Z" fill="#EBEBEB"/>
<path id="Vector_26" d="M322.262 191.838L324.223 168.617L326.266 145.403C327.687 129.937 329.048 114.456 330.528 98.9974V99.0862L324.12 62.9446L320.96 44.859L317.852 26.7734L321.271 44.8072L324.63 62.8558L331.239 98.9604V99.0566C329.847 114.53 328.338 129.996 326.887 145.462L324.623 168.654L322.262 191.838Z" fill="#EBEBEB"/>
<path id="Vector_27" d="M335.679 97.252H327.635V101.951H335.679V97.252Z" fill="#DBDBDB"/>
<path id="Vector_28" d="M83.5314 18.8926H41.751V69.5752H83.5314V18.8926Z" fill="#EBEBEB"/>
<path id="Vector_29" d="M78.7583 23.5176H46.5239V64.9502H78.7583V23.5176Z" fill="white"/>
<path id="Vector_30" d="M47.7819 23.5176H46.5239V64.9502H47.7819V23.5176Z" fill="#DBDBDB"/>
<path id="Vector_31" d="M84.7893 18.8926H83.5312V69.5752H84.7893V18.8926Z" fill="#DBDBDB"/>
<path id="Vector_32" d="M64.9274 29.2305H57.3276V51.8745H64.9274V29.2305Z" fill="#DBDBDB"/>
<path id="Vector_33" d="M74.6438 56.1076H53.6426V44.2676H74.6438V56.1076ZM54.3826 55.3676H73.9038V45.0076H54.3826V55.3676Z" fill="#EBEBEB"/>
<path id="Vector_34" d="M121.996 81.8672H80.2158V132.55H121.996V81.8672Z" fill="#EBEBEB"/>
<path id="Vector_35" d="M117.223 86.4922H84.9888V127.925H117.223V86.4922Z" fill="white"/>
<path id="Vector_36" d="M86.2468 86.4922H84.9888V127.925H86.2468V86.4922Z" fill="#DBDBDB"/>
<path id="Vector_37" d="M123.254 81.8672H121.996V132.55H123.254V81.8672Z" fill="#DBDBDB"/>
<path id="Vector_38" d="M104.495 97.207H97.9834V113.672H104.495V97.207Z" fill="#EBEBEB"/>
<path id="Vector_39" d="M111.74 118.926H93.4917V106.842H111.74V118.926ZM94.2465 118.186H111V107.582H94.2317L94.2465 118.186Z" fill="#DBDBDB"/>
</g>
<g id="freepik--Shadow--inject-1">
<path id="Vector_40" d="M102.357 312.007C141.91 312.007 173.974 308.935 173.974 305.147C173.974 301.358 141.91 298.287 102.357 298.287C62.8039 298.287 30.7397 301.358 30.7397 305.147C30.7397 308.935 62.8039 312.007 102.357 312.007Z" fill="#EBEBEB"/>
</g>
<g id="freepik--Floor--inject-1">
<path id="Vector_41" d="M32.8931 289.628L70.9217 289.45L108.95 289.384L185 289.258L261.05 289.384L299.078 289.45L337.107 289.628L299.078 289.813L261.05 289.879L185 289.998L108.95 289.879L70.9217 289.813L32.8931 289.628Z" fill="#263238"/>
</g>
<g id="freepik--Plant--inject-1">
<path id="Vector_42" d="M301.631 223.569C301.631 223.569 294.875 213.209 279.742 215.215C265.364 217.131 256.417 242.321 270.351 246.761C284.286 251.201 284.034 227.077 289.591 223.51C293.684 220.898 299.093 222.052 301.631 223.569Z" fill="#FA9B0D"/>
<path id="Vector_43" d="M266.969 228.224C268.014 227.471 269.107 226.786 270.24 226.174C271.312 225.585 272.46 225.144 273.652 224.865C275.509 222.518 277.902 220.65 280.63 219.418L280.193 219.352C279.41 219.244 278.622 219.178 277.833 219.152C276.242 219.115 274.657 219.366 273.156 219.892C273.138 219.898 273.119 219.896 273.102 219.888C273.085 219.88 273.073 219.865 273.067 219.847C273.061 219.83 273.062 219.81 273.071 219.794C273.079 219.777 273.094 219.764 273.111 219.759C274.634 219.265 276.208 218.95 277.803 218.819C278.579 218.752 279.358 218.752 280.134 218.819C280.548 218.863 280.963 218.93 281.37 219.011L281.607 219.056C283.037 218.498 284.527 218.106 286.047 217.886L285.647 217.738C284.938 217.509 284.216 217.319 283.486 217.169C282.027 216.861 280.535 216.744 279.046 216.821C278.957 216.821 278.943 216.68 279.046 216.673C280.55 216.636 282.054 216.717 283.545 216.917C284.804 217.071 286.043 217.351 287.245 217.753C288.153 217.677 289.066 217.659 289.976 217.701C295.156 217.975 300.602 220.439 303.377 224.983C306.152 229.527 306.241 235.254 306.337 240.434C306.526 247.658 306.031 254.883 304.857 262.013C304.783 262.434 304.199 262.301 304.228 261.894C304.606 255.789 304.968 249.684 304.968 243.564C304.968 240.73 304.931 237.881 304.732 235.054C304.616 232.627 304.15 230.229 303.348 227.936C302.456 225.589 300.894 223.556 298.856 222.09C296.803 220.643 294.455 219.67 291.981 219.241C289.778 218.853 287.524 218.853 285.321 219.241C285.354 219.682 285.325 220.125 285.233 220.558C285.136 221.103 284.974 221.634 284.752 222.141C284.547 222.622 284.3 223.083 284.012 223.518C283.693 224.006 283.272 224.428 282.953 224.879C282.894 224.953 282.783 224.879 282.842 224.791C283.533 223.979 284.022 223.015 284.271 221.979C284.406 221.492 284.512 220.998 284.589 220.499C284.648 220.121 284.648 219.759 284.7 219.359C282.283 219.859 279.981 220.808 277.914 222.156C277.522 222.415 277.174 222.682 276.782 222.963C277.224 223.466 277.598 224.026 277.892 224.628C278.327 225.419 278.694 226.246 278.987 227.099C279.461 228.813 279.707 230.582 279.72 232.361C279.72 232.38 279.712 232.399 279.698 232.413C279.684 232.427 279.665 232.435 279.646 232.435C279.626 232.435 279.607 232.427 279.593 232.413C279.579 232.399 279.572 232.38 279.572 232.361C279.462 230.623 279.049 228.917 278.351 227.321C278.033 226.534 277.664 225.768 277.248 225.027C277.033 224.643 276.804 224.287 276.567 223.903C276.441 223.703 276.301 223.503 276.182 223.296C274.279 224.836 272.665 226.703 271.417 228.809C272.04 229.616 272.539 230.511 272.897 231.465C273.336 232.472 273.704 233.508 273.999 234.566C274.529 236.605 274.927 238.677 275.191 240.767C275.191 240.856 275.065 240.871 275.05 240.767C274.8 238.661 274.286 236.595 273.518 234.618C273.163 233.648 272.778 232.694 272.371 231.747C271.941 230.861 271.561 229.952 271.232 229.023C270.04 231.091 269.245 233.362 268.886 235.72C268.886 235.809 268.731 235.787 268.745 235.72C269.375 232.026 270.858 228.53 273.074 225.508C272.127 225.804 271.187 226.093 270.27 226.478C269.1 226.961 267.996 227.59 266.984 228.35C266.977 228.402 266.895 228.276 266.969 228.224Z" fill="#263238"/>
<path id="Vector_44" d="M277.781 229.799C278.084 231.279 278.521 232.759 278.773 234.291C279.045 235.754 279.125 237.247 279.009 238.731C279.009 238.768 278.943 238.768 278.943 238.731C278.825 235.733 278.388 232.756 277.64 229.851C277.637 229.842 277.635 229.832 277.636 229.822C277.636 229.812 277.639 229.802 277.643 229.794C277.647 229.785 277.653 229.777 277.66 229.77C277.667 229.763 277.676 229.758 277.685 229.755C277.694 229.751 277.704 229.75 277.714 229.75C277.723 229.75 277.733 229.753 277.742 229.757C277.751 229.761 277.759 229.767 277.766 229.774C277.772 229.781 277.778 229.79 277.781 229.799Z" fill="#263238"/>
<path id="Vector_45" d="M268.746 225.286C269.38 224.78 270.086 224.371 270.84 224.072C271.606 223.809 272.394 223.611 273.193 223.48C273.275 223.48 273.297 223.614 273.193 223.621C272.409 223.753 271.645 223.987 270.921 224.317C270.19 224.615 269.481 224.964 268.798 225.36C268.793 225.363 268.787 225.366 268.781 225.367C268.776 225.368 268.77 225.369 268.764 225.368C268.758 225.367 268.752 225.364 268.747 225.361C268.742 225.358 268.738 225.354 268.735 225.349C268.731 225.344 268.729 225.339 268.728 225.333C268.726 225.327 268.726 225.321 268.727 225.315C268.728 225.309 268.73 225.304 268.734 225.299C268.737 225.294 268.741 225.289 268.746 225.286Z" fill="#263238"/>
<path id="Vector_46" d="M294.312 211.523C294.312 211.523 292.892 194.126 279.956 188.487C269.152 183.773 262.936 195.887 270.603 203.346C276.76 209.355 286.69 206.646 294.312 211.523Z" fill="#FA9B0D"/>
<path id="Vector_47" d="M273.001 191.853C274.968 192.65 276.888 193.559 278.75 194.577C280.29 195.47 281.773 196.459 283.19 197.537C282.976 197.1 282.791 196.634 282.569 196.205C282.236 195.531 281.873 194.88 281.474 194.236C280.676 192.922 279.719 191.711 278.625 190.632C278.558 190.566 278.662 190.47 278.728 190.536C279.819 191.618 280.821 192.786 281.725 194.029C282.173 194.661 282.583 195.318 282.954 195.997C283.337 196.618 283.628 197.291 283.819 197.995L283.967 198.106C286.227 199.904 288.297 201.928 290.146 204.145C290.109 203.975 290.072 203.804 290.028 203.649C289.784 202.798 289.525 201.962 289.244 201.118C288.69 199.333 287.904 197.629 286.905 196.049C286.899 196.033 286.899 196.015 286.905 195.998C286.91 195.982 286.922 195.968 286.937 195.959C286.952 195.95 286.97 195.947 286.987 195.95C287.004 195.953 287.02 195.962 287.031 195.975C288.048 197.561 288.952 199.215 289.739 200.926C290.097 201.762 290.396 202.623 290.635 203.501C290.823 204.071 290.964 204.655 291.057 205.247C291.619 205.987 292.174 206.683 292.692 207.423C298.249 215.334 301.032 224.894 301.705 234.463C301.9 237.315 301.947 240.175 301.846 243.032C301.829 245.916 301.582 248.794 301.106 251.638C301.069 251.816 300.788 251.764 300.795 251.586C300.854 249.07 301.121 246.569 301.165 244.053C301.213 241.532 301.132 239.01 300.921 236.498C300.512 231.478 299.567 226.516 298.101 221.698C296.608 216.765 294.405 212.076 291.56 207.778C291.012 207.675 290.472 207.527 289.939 207.386C289.406 207.245 288.644 207.053 288 206.875C286.759 206.552 285.552 206.109 284.397 205.551C284.381 205.541 284.37 205.525 284.366 205.507C284.361 205.489 284.365 205.47 284.374 205.455C284.384 205.439 284.4 205.428 284.418 205.424C284.436 205.419 284.455 205.423 284.471 205.432C285.611 206.052 286.846 206.478 288.126 206.69C289.14 206.89 290.191 207.023 291.205 207.26C290.273 205.889 289.271 204.567 288.2 203.301C285.733 203.531 283.244 203.346 280.837 202.754C279.558 202.445 278.3 202.054 277.071 201.584C275.776 201.081 274.547 200.445 273.274 199.905C273.178 199.868 273.274 199.727 273.326 199.779C275.646 201.04 278.176 201.867 280.793 202.221C283.101 202.591 285.434 202.784 287.771 202.798C286.853 201.74 285.899 200.719 284.885 199.749C281.488 196.515 277.485 193.541 272.978 191.994C272.867 191.964 272.912 191.816 273.001 191.853Z" fill="#263238"/>
<path id="Vector_48" d="M283.523 191.905C284.107 192.643 284.638 193.419 285.114 194.229C285.594 195.084 285.976 195.99 286.254 196.93C286.254 196.93 286.217 196.974 286.202 196.93C285.766 196.079 285.403 195.191 284.966 194.347C284.542 193.507 284.023 192.717 283.42 191.994C283.368 191.935 283.472 191.839 283.523 191.905Z" fill="#263238"/>
<path id="Vector_49" d="M271.499 197.699C272.339 198.164 273.227 198.536 274.148 198.809C275.033 199.106 275.935 199.353 276.849 199.549C276.893 199.549 276.886 199.63 276.849 199.623C275.896 199.523 274.958 199.317 274.052 199.009C273.154 198.675 272.279 198.285 271.432 197.839C271.343 197.78 271.417 197.654 271.499 197.699Z" fill="#263238"/>
<path id="Vector_50" d="M303.659 208.962C303.74 209.702 305.613 202.642 316.55 196.382C326.488 190.684 338.343 175.854 328.604 166.493C320.738 158.915 300.026 175.381 303.659 208.962Z" fill="#FA9B0D"/>
<path id="Vector_51" d="M296.126 249.492C296.287 242.131 296.867 234.786 297.864 227.491C298.73 220.79 300.278 214.195 302.482 207.807C303.296 205.506 304.228 203.249 305.235 201.014C305.179 200.149 305.194 199.28 305.279 198.417C305.338 197.299 305.435 196.197 305.538 195.079C305.642 193.962 305.753 192.859 305.886 191.749C306.019 190.639 306.256 189.529 306.3 188.434C306.3 188.331 306.463 188.353 306.441 188.434C306.221 189.597 306.09 190.774 306.049 191.957C305.96 193.03 305.901 194.103 305.864 195.176C305.827 196.249 305.864 197.329 305.864 198.409C305.864 198.794 305.864 199.209 305.864 199.623C306.892 197.447 307.995 195.309 309.194 193.222C308.454 188.686 309.416 183.95 310.341 179.517C310.341 179.428 310.496 179.465 310.474 179.554C310.013 181.87 309.766 184.223 309.734 186.584C309.69 188.449 309.778 190.284 309.786 192.171C310.045 191.727 310.311 191.276 310.578 190.839C311.998 188.523 313.538 186.251 315.121 184.046C314.989 182.972 315.024 181.883 315.225 180.82C315.407 179.624 315.672 178.442 316.017 177.282C316.372 176.128 316.757 174.988 317.23 173.871C317.704 172.754 318.333 171.651 318.792 170.474C318.829 170.378 318.977 170.474 318.917 170.534C318.338 171.625 317.879 172.776 317.548 173.967C317.19 175.085 316.891 176.222 316.653 177.371C316.424 178.518 316.239 179.673 316.076 180.842C315.965 181.582 315.898 182.403 315.765 183.18C318.109 180.047 320.669 177.079 323.424 174.3C323.491 174.234 323.587 174.337 323.52 174.404C319.357 179.089 315.641 184.153 312.42 189.529C312.294 189.729 312.183 189.936 312.065 190.144C312.672 189.759 313.36 189.463 313.93 189.145C314.988 188.56 316.046 187.975 317.119 187.398L320.212 185.704C320.745 185.408 321.271 185.097 321.811 184.823C322.455 184.533 323.074 184.189 323.661 183.794C323.742 183.735 323.831 183.861 323.742 183.913C322.691 184.49 321.759 185.348 320.745 186C319.731 186.651 318.688 187.28 317.622 187.872C315.676 188.952 313.567 189.737 311.651 190.832C310.326 193.155 309.105 195.546 307.951 197.973C309.112 197.233 310.297 196.493 311.503 195.849C312.28 195.412 313.057 194.983 313.841 194.569C314.629 194.21 315.374 193.763 316.061 193.237C316.128 193.178 316.224 193.281 316.157 193.34C314.884 194.487 313.472 195.469 311.954 196.263C310.548 197.085 309.127 197.877 307.669 198.594C306.5 201.155 305.449 203.774 304.502 206.424C299.899 219.462 298.205 233.3 297.398 247.042C297.162 251.142 297.036 255.234 296.984 259.341C296.932 263.448 297.147 267.533 297.139 271.625C297.139 271.751 296.939 271.78 296.925 271.625C296.429 267.992 296.347 264.292 296.185 260.636C296.022 256.98 296.044 253.214 296.126 249.492Z" fill="#263238"/>
<path id="Vector_52" d="M315.98 190.469C317.977 189.589 319.917 188.586 321.789 187.465C323.689 186.396 325.532 185.228 327.309 183.965C327.309 183.965 327.376 183.965 327.346 184.009C325.671 185.368 323.9 186.604 322.048 187.709C320.111 188.796 318.106 189.758 316.046 190.588C315.98 190.632 315.913 190.506 315.98 190.469Z" fill="#263238"/>
<path id="Vector_53" d="M312.835 175.736C312.99 175.099 313.197 174.47 313.405 173.856C313.396 173.846 313.392 173.833 313.392 173.819C313.392 173.806 313.396 173.793 313.405 173.782C313.538 173.427 313.686 173.079 313.826 172.731L313.878 172.606C313.91 172.538 313.937 172.469 313.96 172.398C313.96 172.398 314.004 172.398 313.997 172.398C313.989 172.398 313.93 172.643 313.893 172.761C313.877 172.829 313.857 172.895 313.834 172.961C313.111 175.384 312.569 177.857 312.213 180.361C312.213 180.435 312.08 180.442 312.08 180.361C312.186 178.799 312.439 177.25 312.835 175.736Z" fill="#263238"/>
<path id="Vector_54" d="M301.69 227.803C305.501 215.963 314.115 208.933 325.193 210.561C336.271 212.189 340.03 226.767 332.63 231.621C325.23 236.476 315.736 226.693 311.229 225.05C306.722 223.407 301.69 227.803 301.69 227.803Z" fill="#FA9B0D"/>
<path id="Vector_55" d="M300.677 258.03C300.514 256.691 300.381 255.352 300.233 254.005C299.952 251.326 299.656 248.647 299.374 245.968C298.864 241.07 298.708 236.208 300.114 231.427C301.311 227.088 303.802 223.216 307.255 220.327C308.538 219.279 309.957 218.41 311.473 217.745C312.7 216.095 314.378 214.835 316.306 214.119C318.697 213.268 321.219 212.844 323.757 212.868C323.846 212.868 323.861 213.001 323.757 213.009C321.349 213.032 318.969 213.535 316.757 214.489C315.808 214.898 314.905 215.406 314.063 216.006C313.539 216.395 313.044 216.823 312.583 217.286C314.664 216.534 316.883 216.239 319.088 216.42C319.883 216.494 320.67 216.635 321.441 216.842C322.005 216.63 322.595 216.496 323.195 216.442C323.974 216.354 324.761 216.354 325.541 216.442C327.141 216.653 328.705 217.084 330.188 217.723C330.202 217.732 330.213 217.747 330.218 217.763C330.223 217.78 330.221 217.798 330.214 217.814C330.207 217.83 330.195 217.843 330.179 217.85C330.163 217.858 330.146 217.86 330.129 217.856C328.684 217.312 327.169 216.976 325.63 216.857C324.891 216.798 324.148 216.798 323.41 216.857C322.999 216.892 322.591 216.954 322.189 217.042C325.416 218.006 328.198 220.082 330.04 222.903C330.084 222.984 329.973 223.065 329.922 222.991C328.835 221.357 327.394 219.989 325.705 218.99C324.016 217.99 322.124 217.385 320.168 217.219C319.924 217.219 319.68 217.219 319.428 217.182C319.534 217.549 319.618 217.923 319.68 218.3C319.828 218.825 319.998 219.351 320.183 219.869C320.558 220.934 321.001 221.974 321.508 222.984C322.017 224.009 322.595 224.998 323.239 225.944C323.869 226.954 324.614 227.888 325.459 228.726C325.533 228.793 325.422 228.897 325.356 228.823C324.579 227.912 323.698 227.098 322.973 226.144C322.273 225.23 321.642 224.266 321.086 223.258C320.528 222.234 320.053 221.168 319.665 220.068C319.465 219.491 319.288 218.899 319.132 218.307C319.01 217.956 318.936 217.59 318.91 217.219C317.633 217.205 316.359 217.36 315.122 217.678C315.973 220.253 316.868 222.932 318.681 225.019C318.74 225.086 318.622 225.182 318.563 225.1C317.695 223.985 316.906 222.811 316.202 221.585C315.53 220.395 315.031 219.114 314.722 217.782C312.578 218.381 310.568 219.386 308.802 220.742C305.47 223.367 303.023 226.953 301.794 231.013C300.502 235.375 300.087 239.95 300.573 244.474C301.025 250.186 301.765 255.892 302.001 261.619C302.001 261.989 301.454 262.197 301.321 261.79C300.988 260.56 300.772 259.301 300.677 258.03Z" fill="#263238"/>
<path id="Vector_56" d="M307.84 219.359C308.134 218.878 308.492 218.44 308.905 218.057C309.29 217.623 309.697 217.21 310.126 216.821C310.967 216.044 311.932 215.416 312.983 214.963C313.064 214.926 313.123 215.06 313.035 215.097C311.975 215.527 311.019 216.178 310.23 217.006C309.826 217.405 309.441 217.82 309.076 218.249C308.755 218.692 308.391 219.101 307.988 219.47C307.943 219.529 307.84 219.448 307.84 219.359Z" fill="#263238"/>
<path id="Vector_57" d="M325.637 220.919C326.685 221.826 327.674 222.8 328.597 223.835C329.497 224.878 330.288 226.011 330.957 227.217C330.957 227.254 330.957 227.283 330.898 227.254C329.319 225.02 327.538 222.937 325.577 221.03C325.481 220.971 325.6 220.86 325.637 220.919Z" fill="#263238"/>
<path id="Vector_58" d="M313.893 221.476C314.105 222.152 314.406 222.796 314.788 223.392C315.171 223.969 315.599 224.513 316.069 225.02C316.069 225.057 316.069 225.102 316.009 225.08C314.939 224.138 314.167 222.903 313.789 221.528C313.76 221.446 313.863 221.387 313.893 221.476Z" fill="#263238"/>
<path id="Vector_59" d="M284.574 252.133L285.351 261.383L287.741 289.599H313.338L315.721 261.383L316.505 252.133H284.574Z" fill="#455A64"/>
<path id="Vector_60" d="M284.574 252.133L285.351 261.383H315.721L316.505 252.133H284.574Z" fill="#263238"/>
<path id="Vector_61" d="M282.058 257.299H319.014V248.426H282.058V257.299Z" fill="#455A64"/>
</g>
<g id="freepik--Device--inject-1">
<path id="Vector_62" d="M247.538 6.00195H122.478C120.8 6.01646 119.141 6.36147 117.597 7.01725C116.052 7.67303 114.652 8.62673 113.476 9.82387C112.3 11.021 111.372 12.4381 110.744 13.9942C110.116 15.5503 109.801 17.2148 109.816 18.8928V276.413C109.797 278.091 110.108 279.757 110.732 281.315C111.356 282.873 112.282 284.293 113.455 285.493C114.628 286.694 116.025 287.651 117.569 288.311C119.112 288.971 120.77 289.321 122.448 289.341H247.508C250.898 289.311 254.138 287.937 256.515 285.52C258.892 283.102 260.212 279.84 260.184 276.45V18.9298C260.204 17.2502 259.892 15.5833 259.267 14.0244C258.642 12.4654 257.715 11.045 256.541 9.84429C255.366 8.64361 253.967 7.68625 252.422 7.02695C250.877 6.36765 249.217 6.01935 247.538 6.00195ZM252.296 268.458C252.296 275.236 247.219 280.72 240.959 280.72H129.049C122.766 280.72 117.697 275.236 117.697 268.458V28.6534C117.697 14.845 122.766 14.1716 129.049 14.1716H151.463C152.766 14.1716 153.832 15.6516 153.832 17.4868V18.2786C153.832 22.578 156.185 22.5928 159.078 22.5928H210.878C213.838 22.5928 216.125 22.5928 216.125 18.2786V17.4868C216.125 15.6516 217.176 14.1716 218.508 14.1716H240.922C247.183 14.1716 252.259 16.0068 252.259 28.6534L252.296 268.458Z" fill="#263238"/>
<path id="Vector_63" d="M192.067 17.221H177.926C177.694 17.221 177.472 17.129 177.308 16.9653C177.145 16.8015 177.053 16.5794 177.053 16.3478C177.053 16.1162 177.145 15.8941 177.308 15.7304C177.472 15.5666 177.694 15.4746 177.926 15.4746H192.067C192.299 15.4746 192.521 15.5666 192.685 15.7304C192.849 15.8941 192.941 16.1162 192.941 16.3478C192.941 16.5794 192.849 16.8015 192.685 16.9653C192.521 17.129 192.299 17.221 192.067 17.221Z" fill="white"/>
<path id="Vector_64" d="M252.296 28.6537V268.458C252.296 275.236 247.219 280.72 240.959 280.72H129.049C122.766 280.72 117.697 275.236 117.697 268.458V28.6537C117.697 14.8453 122.766 14.1719 129.049 14.1719H151.463C152.766 14.1719 153.831 15.6519 153.831 17.4871V18.2789C153.831 22.5783 156.185 22.5931 159.078 22.5931H210.878C213.838 22.5931 216.125 22.5931 216.125 18.2789V17.4871C216.125 15.6519 217.175 14.1719 218.507 14.1719H240.922C247.219 14.1719 252.296 16.0071 252.296 28.6537Z" fill="white"/>
<path id="Vector_65" d="M248.522 16.2797H216.332C216.68 15.0587 217.531 14.1929 218.552 14.1929H240.981C243.867 14.1633 246.517 14.5629 248.522 16.2797Z" fill="#DBDBDB"/>
<path id="Vector_66" d="M117.697 256.639V259.828H128.842V256.639H117.697ZM252.296 59.1996L216.08 97.576H199.415V65.8596H206.038V62.648H196.204V97.5686H178.14V22.5918H171.732V45.0582H117.712V51.4666H171.732V97.576H119.384V110.156H117.697V113.368H119.384V161.016L129.004 183.053H117.697V189.462H131.824L139.364 206.696C134.696 208.72 130.838 212.246 128.404 216.714C125.971 221.183 125.101 226.337 125.934 231.356C126.767 236.375 129.254 240.972 133.001 244.415C136.747 247.858 141.537 249.949 146.609 250.356L162.29 276.02L157.561 280.748H172.701L153.802 249.875C156.953 249.118 159.908 247.697 162.467 245.709C165.027 243.72 167.134 241.209 168.648 238.343C170.161 235.477 171.047 232.321 171.246 229.086C171.445 225.85 170.952 222.61 169.801 219.58L214.526 198.305H252.266V191.904H234.38L196.84 151.085H252.281V147.881H193.88L153.506 103.984H218.803L240.87 80.5856L252.266 91.9816V82.924L245.281 75.931L252.266 68.531L252.296 59.1996ZM148.459 244.081C145.21 244.083 142.033 243.12 139.33 241.316C136.628 239.512 134.521 236.947 133.276 233.945C132.032 230.943 131.705 227.64 132.338 224.453C132.971 221.266 134.535 218.338 136.833 216.039C139.13 213.741 142.057 212.176 145.244 211.541C148.431 210.907 151.734 211.232 154.737 212.475C157.739 213.718 160.305 215.824 162.111 218.525C163.916 221.227 164.88 224.404 164.88 227.653C164.876 232.008 163.145 236.183 160.066 239.263C156.988 242.342 152.814 244.075 148.459 244.081ZM225.7 191.874H213.12L166.7 213.934C164.571 211.108 161.816 208.816 158.65 207.237C155.485 205.657 151.997 204.834 148.459 204.832C147.507 204.835 146.555 204.894 145.61 205.009L125.8 159.684V103.984H144.818L225.7 191.874ZM230.466 280.719H235.002L252.318 263.395V258.859L230.466 280.719Z" fill="#EBEBEB"/>
<path id="Vector_67" d="M140.6 108.84H131.284V118.156H140.6V108.84Z" fill="#DBDBDB"/>
<path id="Vector_68" d="M228.061 144.553V126.571H221.519V119.053H209.998V144.553H228.061Z" fill="#DBDBDB"/>
<path id="Vector_69" d="M196.115 22.5918V40.6774H186.362V29.6662H181.086V22.5918H196.115Z" fill="#DBDBDB"/>
<path id="Vector_70" d="M252.296 28.6467V34.8849H244.156V19.1895H250.712C251.719 21.3355 252.296 24.3769 252.296 28.6467Z" fill="#DBDBDB"/>
<path id="Vector_71" d="M201.939 94.862V81.4902H226.995L213.461 95.0248L201.939 94.862Z" fill="#DBDBDB"/>
<path id="Vector_72" d="M193.681 82.4375H181.093V95.0249H193.681V82.4375Z" fill="#DBDBDB"/>
<path id="Vector_73" d="M168.72 53.9766H153.558V67.9256H168.72V53.9766Z" fill="#DBDBDB"/>
<path id="Vector_74" d="M168.728 70.6641V95.0249H150.176L138.351 83.1997V70.6641H168.728Z" fill="#DBDBDB"/>
<path id="Vector_75" d="M135.006 85.8848L144.323 95.2014H119.458V85.8848H135.006Z" fill="#DBDBDB"/>
<path id="Vector_76" d="M133.674 203.597H117.697V192.379H129.152L133.674 203.597Z" fill="#DBDBDB"/>
<path id="Vector_77" d="M129.323 246.836V252.223H117.697V228.262H120.872C121.758 235.162 124.703 241.634 129.323 246.836Z" fill="#DBDBDB"/>
<path id="Vector_78" d="M185 200.289L175.255 179.236H163.415L143.139 188.642L148.437 200.208H148.481C155.681 200.201 162.593 203.03 167.721 208.082L185 200.289Z" fill="#DBDBDB"/>
<path id="Vector_79" d="M252.296 174.07V188.049H237.052L224.191 174.07H252.296Z" fill="#DBDBDB"/>
<path id="Vector_80" d="M156.547 274.815L150.968 280.735H129.041C128.227 280.732 127.415 280.638 126.622 280.454V273.794H136.108V259.112L143.249 253.104L156.547 274.815Z" fill="#DBDBDB"/>
<path id="Vector_81" d="M201.695 250.12L182.455 230.066L175.055 235.831C173.973 239.331 172.211 242.584 169.871 245.403C167.531 248.222 164.658 250.552 161.417 252.259L177.497 278.544L201.695 250.12Z" fill="#DBDBDB"/>
<path id="Vector_82" d="M180.745 221.253L214.526 204.551H231.376V233.929L205.106 246.901L180.745 221.253Z" fill="#DBDBDB"/>
<path id="Vector_83" d="M252.281 268.998C252.052 274.918 247.93 279.743 242.624 280.586H240.693L252.281 268.998Z" fill="#DBDBDB"/>
<path id="Vector_84" d="M131.284 122.041V158.96L141.584 184.164L160.38 174.847H204.225L155.06 122.041H131.284Z" fill="#FA9B0D"/>
<path id="Vector_85" d="M238.206 69.2344H201.939V78.3216H229.637L238.206 69.2344Z" fill="#DBDBDB"/>
<path id="Vector_86" d="M124.172 180.051H117.697V165.051L124.172 180.051Z" fill="#DBDBDB"/>
<path id="Vector_87" d="M252.296 204.551H236.045V223.761H252.296V204.551Z" fill="#DBDBDB"/>
<path id="Vector_88" d="M252.296 226.76H236.045V233.501H252.296V226.76Z" fill="#DBDBDB"/>
<path id="Vector_89" d="M232.005 274.214L225.5 280.719H182.795L205.402 253.109L232.005 274.214Z" fill="#DBDBDB"/>
<path id="Vector_90" d="M234.336 271.04L245.31 260.51L231.998 248.921V238.502L208.54 250.453L234.336 271.04Z" fill="#FA9B0D"/>
<path id="Vector_91" d="M252.296 236.475V252.814L247.945 256.906L236.045 246.901V236.475H252.296Z" fill="#DBDBDB"/>
<path id="Vector_92" d="M121.871 263.492V277.959C120.542 276.761 119.483 275.295 118.763 273.657C118.044 272.019 117.68 270.247 117.697 268.458V263.492H121.871Z" fill="#DBDBDB"/>
<path id="Vector_93" d="M132.275 265.01H126.622V270.663H132.275V265.01Z" fill="#DBDBDB"/>
<path id="Vector_94" d="M167.751 22.5927V41.2185H131.891V19.8991L138.129 14.1641H151.449C152.744 14.1641 153.809 15.6441 153.809 17.4867V18.2785C153.809 22.5779 156.17 22.5927 159.056 22.5927H167.751Z" fill="#DBDBDB"/>
<path id="Vector_95" d="M128.856 29.7773H117.697V41.2029H128.856V29.7773Z" fill="#DBDBDB"/>
<path id="Vector_96" d="M128.856 20.4395V26.8257H117.756C117.794 24.6684 118.094 22.5238 118.652 20.4395H128.856Z" fill="#DBDBDB"/>
<path id="Vector_97" d="M134.761 14.1641L130.817 17.8641H119.717C121.76 14.4231 125.178 14.1641 129.049 14.1641H134.761Z" fill="#DBDBDB"/>
<path id="Vector_98" d="M206.29 154.965L221.519 170.956H236.045V154.965H206.29Z" fill="#DBDBDB"/>
<path id="Vector_99" d="M252.296 163.607H239.064V170.963H252.296V163.607Z" fill="#DBDBDB"/>
<path id="Vector_100" d="M246.842 154.965H239.064V161.647H246.842V154.965Z" fill="#DBDBDB"/>
<path id="Vector_101" d="M252.296 154.965H248.781V161.647H252.296V154.965Z" fill="#DBDBDB"/>
<path id="Vector_102" d="M179.82 179.236H204.226V190.906L188.619 197.988L179.82 179.236Z" fill="#DBDBDB"/>
<path id="Vector_103" d="M148.467 238.703C154.515 238.703 159.419 233.799 159.419 227.751C159.419 221.702 154.515 216.799 148.467 216.799C142.418 216.799 137.515 221.702 137.515 227.751C137.515 233.799 142.418 238.703 148.467 238.703Z" fill="#FA9B0D"/>
<path id="Vector_104" d="M123.558 53.9766H117.697V62.3904H123.558V53.9766Z" fill="#DBDBDB"/>
<path id="Vector_105" d="M134.732 82.8518V53.9844H125.793V77.1908H119.458V82.8518H134.732Z" fill="#DBDBDB"/>
<path id="Vector_106" d="M151.012 53.9766H138.351V67.1486H151.012V53.9766Z" fill="#DBDBDB"/>
<path id="Vector_107" d="M123.558 64.0098H117.697V74.6436H123.558V64.0098Z" fill="#DBDBDB"/>
<path id="Vector_108" d="M249.595 126.57H230.784V144.56H249.595V126.57Z" fill="#DBDBDB"/>
<path id="Vector_109" d="M162.097 107.197L181.722 128.554H206.357V107.197H162.097Z" fill="#DBDBDB"/>
<path id="Vector_110" d="M184.52 131.018L196.974 144.56H206.29V131.018H184.52Z" fill="#DBDBDB"/>
<path id="Vector_111" d="M221.512 107.197H209.998V116.114H221.512V107.197Z" fill="#DBDBDB"/>
<path id="Vector_112" d="M249.602 115.744V95.6902L240.5 85.8926L224.635 102.905V122.36H243.446V115.744H249.602Z" fill="#FA9B0D"/>
<path id="Vector_113" d="M252.296 73.5352V78.915L249.699 76.3694L252.296 73.5352Z" fill="#DBDBDB"/>
<path id="Vector_114" d="M252.296 37.8066V54.3456L241.373 66.341H226.995V37.8066H252.296Z" fill="#DBDBDB"/>
<path id="Vector_115" d="M223.658 48.2559H209.665V66.3415H223.658V48.2559Z" fill="#FA9B0D"/>
<path id="Vector_116" d="M241.374 19.1895V34.8849H223.651V45.9849H209.665V22.5935H210.9C213.587 22.5935 215.784 22.5935 216.08 19.1895H241.374Z" fill="#DBDBDB"/>
<path id="Vector_117" d="M207.859 22.5918H197.817V34.5058H207.859V22.5918Z" fill="#DBDBDB"/>
<path id="Vector_118" d="M207.866 42.6328H181.093V55.7974H207.866V42.6328Z" fill="#DBDBDB"/>
<path id="Vector_119" d="M207.866 36.4082H197.817V40.678H207.866V36.4082Z" fill="#DBDBDB"/>
<path id="Vector_120" d="M193.681 79.9199H186.362L181.093 74.9175V60.3691H193.681V79.9199Z" fill="#DBDBDB"/>
<g id="freepik--u5Zjqx--inject-1">
<path id="Vector_121" d="M147.594 19.558C147.518 19.6258 147.447 19.6975 147.379 19.7726L147.253 19.891C146.699 19.3397 145.948 19.0303 145.166 19.0303C144.384 19.0303 143.634 19.3397 143.08 19.891L142.961 19.7652L142.747 19.5506L143.02 19.3064C143.217 19.1494 143.43 19.0153 143.657 18.9068C143.921 18.7736 144.202 18.6789 144.493 18.6256C144.632 18.5986 144.773 18.5789 144.915 18.5664H145.285H145.566C145.819 18.5996 146.067 18.6617 146.306 18.7514C146.488 18.8177 146.664 18.8994 146.831 18.9956C147.007 19.0962 147.173 19.2126 147.327 19.3434L147.557 19.5506L147.594 19.558Z" fill="#A6A6A6"/>
<path id="Vector_122" d="M143.76 20.5725L143.42 20.2321C143.796 19.8552 144.284 19.611 144.811 19.5365C145.19 19.4775 145.578 19.5098 145.942 19.6308C146.307 19.7518 146.637 19.9579 146.905 20.2321C146.794 20.3431 146.683 20.4615 146.565 20.5725C146.383 20.3871 146.165 20.2404 145.925 20.1412C145.684 20.0421 145.426 19.9924 145.166 19.9953C144.905 19.9931 144.647 20.043 144.405 20.1421C144.164 20.2413 143.944 20.3876 143.76 20.5725Z" fill="#A6A6A6"/>
<path id="Vector_123" d="M146.225 20.9121L145.884 21.2525C145.787 21.1567 145.671 21.0813 145.544 21.0305C145.417 20.9797 145.281 20.9545 145.144 20.9565C145.007 20.9538 144.87 20.9793 144.743 21.0315C144.616 21.0837 144.5 21.1614 144.404 21.2599L144.064 20.9195C144.202 20.7711 144.369 20.6527 144.554 20.5715C144.74 20.4902 144.94 20.448 145.143 20.4473C145.345 20.4466 145.546 20.4875 145.732 20.5674C145.918 20.6474 146.086 20.7647 146.225 20.9121Z" fill="#A6A6A6"/>
<path id="Vector_124" d="M145.47 21.5633C145.471 21.6037 145.464 21.644 145.449 21.6816C145.434 21.7193 145.412 21.7536 145.383 21.7826C145.355 21.8116 145.321 21.8346 145.284 21.8503C145.247 21.866 145.207 21.8741 145.166 21.8741C145.125 21.8741 145.085 21.866 145.047 21.8504C145.01 21.8348 144.975 21.8119 144.947 21.783C144.918 21.7542 144.895 21.7199 144.879 21.6822C144.864 21.6445 144.855 21.6041 144.855 21.5633C144.855 21.5228 144.864 21.4827 144.879 21.4454C144.895 21.4081 144.918 21.3743 144.947 21.3461C144.976 21.3178 145.01 21.2956 145.048 21.2808C145.086 21.266 145.126 21.2589 145.166 21.2599C145.247 21.2599 145.324 21.2918 145.381 21.3487C145.438 21.4056 145.47 21.4828 145.47 21.5633Z" fill="#A6A6A6"/>
</g>
<path id="Vector_125" d="M126.466 20.2098C126.466 20.0328 126.519 19.8596 126.617 19.7124C126.716 19.5651 126.855 19.4504 127.019 19.3826C127.183 19.3148 127.363 19.2971 127.536 19.3317C127.71 19.3662 127.87 19.4515 127.995 19.5767C128.12 19.7019 128.205 19.8615 128.24 20.0352C128.274 20.2089 128.257 20.3889 128.189 20.5525C128.121 20.7161 128.006 20.856 127.859 20.9543C127.712 21.0527 127.539 21.1052 127.362 21.1052C127.244 21.1062 127.127 21.0838 127.018 21.0391C126.909 20.9945 126.81 20.9285 126.726 20.8452C126.643 20.7619 126.577 20.6628 126.532 20.5537C126.488 20.4446 126.465 20.3277 126.466 20.2098Z" fill="#A6A6A6"/>
<path id="Vector_126" d="M129.278 20.2098C129.278 20.0328 129.331 19.8596 129.429 19.7124C129.528 19.5651 129.667 19.4504 129.831 19.3826C129.995 19.3148 130.175 19.2971 130.348 19.3317C130.522 19.3662 130.682 19.4515 130.807 19.5767C130.932 19.7019 131.017 19.8615 131.052 20.0352C131.087 20.2089 131.069 20.3889 131.001 20.5525C130.933 20.7161 130.818 20.856 130.671 20.9543C130.524 21.0527 130.351 21.1052 130.174 21.1052C130.056 21.1062 129.939 21.0838 129.83 21.0391C129.721 20.9945 129.622 20.9285 129.538 20.8452C129.455 20.7619 129.389 20.6628 129.345 20.5537C129.3 20.4446 129.277 20.3277 129.278 20.2098Z" fill="#A6A6A6"/>
<path id="Vector_127" d="M132.09 20.2098C132.09 20.0324 132.143 19.859 132.242 19.7116C132.341 19.5642 132.481 19.4494 132.645 19.3819C132.809 19.3143 132.989 19.2971 133.163 19.3322C133.337 19.3674 133.497 19.4534 133.622 19.5793C133.746 19.7053 133.831 19.8655 133.865 20.0397C133.899 20.2139 133.88 20.3942 133.811 20.5576C133.742 20.7211 133.626 20.8604 133.478 20.9579C133.33 21.0554 133.156 21.1067 132.978 21.1052C132.861 21.1052 132.745 21.082 132.637 21.0369C132.529 20.9918 132.43 20.9258 132.348 20.8425C132.265 20.7593 132.2 20.6605 132.156 20.5519C132.112 20.4433 132.089 20.3271 132.09 20.2098Z" fill="#A6A6A6"/>
<path id="Vector_128" d="M134.902 20.2098C134.902 20.0324 134.955 19.859 135.054 19.7116C135.153 19.5642 135.293 19.4494 135.457 19.3819C135.621 19.3143 135.801 19.2971 135.975 19.3322C136.149 19.3674 136.309 19.4534 136.434 19.5793C136.558 19.7053 136.643 19.8655 136.677 20.0397C136.711 20.2139 136.692 20.3942 136.623 20.5576C136.554 20.7211 136.438 20.8604 136.29 20.9579C136.142 21.0554 135.968 21.1067 135.79 21.1052C135.673 21.1052 135.557 21.082 135.449 21.0369C135.341 20.9918 135.242 20.9258 135.16 20.8425C135.077 20.7593 135.012 20.6605 134.968 20.5519C134.924 20.4433 134.901 20.3271 134.902 20.2098Z" fill="#A6A6A6"/>
<path id="Vector_129" d="M137.707 20.2098C137.707 20.0328 137.76 19.8596 137.858 19.7124C137.956 19.5651 138.096 19.4504 138.26 19.3826C138.423 19.3148 138.603 19.2971 138.777 19.3317C138.951 19.3662 139.11 19.4515 139.236 19.5767C139.361 19.7019 139.446 19.8615 139.481 20.0352C139.515 20.2089 139.497 20.3889 139.43 20.5525C139.362 20.7161 139.247 20.856 139.1 20.9543C138.953 21.0527 138.78 21.1052 138.602 21.1052C138.485 21.1062 138.368 21.0838 138.259 21.0391C138.15 20.9945 138.05 20.9285 137.967 20.8452C137.884 20.7619 137.818 20.6628 137.773 20.5537C137.729 20.4446 137.706 20.3277 137.707 20.2098Z" fill="#A6A6A6"/>
<path id="Vector_130" d="M242.01 18.9824H235.121V21.9794H242.01V18.9824Z" fill="#A6A6A6"/>
<path id="Vector_131" d="M242.202 22.1565H234.936V18.7969H242.202V22.1565ZM235.306 21.7865H241.832V19.1669H235.32L235.306 21.7865Z" fill="white"/>
<path id="Vector_132" d="M240.227 19.3672H235.542V21.5872H240.227V19.3672Z" fill="#A6A6A6"/>
<path id="Vector_133" d="M242.846 19.5742H242.202V21.3724H242.846V19.5742Z" fill="#A6A6A6"/>
</g>
<g id="freepik--Route--inject-1">
<path id="Vector_134" d="M191.32 206.697L190.72 205.351L215.599 194.295H231.006L144.796 100.167H174.292V44.7559H175.772V101.647H148.156L234.365 195.775H215.917L191.32 206.697Z" fill="#FA9B0D"/>
<path id="Vector_135" d="M180.035 36.0307C179.82 33.5295 178.059 31.0801 175.033 31.0801C172.006 31.0801 170.289 33.5665 170.038 36.0677C169.66 39.9231 172.258 43.4233 175.033 46.6127C177.815 43.3863 180.42 39.8861 180.035 36.0307ZM175.033 38.8057C174.491 38.8042 173.963 38.6424 173.514 38.3407C173.064 38.0389 172.714 37.6108 172.508 37.1103C172.302 36.6099 172.249 36.0596 172.356 35.529C172.462 34.9984 172.723 34.5112 173.107 34.129C173.49 33.7468 173.978 33.4868 174.509 33.3818C175.04 33.2767 175.59 33.3314 176.09 33.5388C176.589 33.7463 177.017 34.0972 177.317 34.5473C177.618 34.9974 177.778 35.5265 177.778 36.0677C177.779 36.4281 177.709 36.7852 177.571 37.1183C177.433 37.4515 177.231 37.754 176.976 38.0086C176.72 38.2631 176.417 38.4646 176.084 38.6014C175.75 38.7382 175.393 38.8076 175.033 38.8057Z" fill="#FA9B0D"/>
<path id="Vector_136" d="M187.612 215.643L187.546 207.969L181.367 203.418L196.478 203.61L187.612 215.643Z" fill="#37474F"/>
<path id="Vector_137" d="M164.28 273.682L148 246.302L149.169 246.191C155.168 245.254 160.577 242.048 164.28 237.237C170.267 229.341 164.961 218.108 164.909 217.997L164.576 217.323L188.604 206.342L189.218 207.689L166.552 218.049C167.677 220.742 171.177 230.629 165.457 238.14C161.738 242.993 156.37 246.315 150.368 247.478L165.501 272.927L164.28 273.682Z" fill="#37474F"/>
<path id="Vector_138" d="M169.882 265.054C169.631 262.553 167.906 260.066 164.88 260.066C161.853 260.066 160.136 262.553 159.885 265.054C159.507 268.909 162.105 272.41 164.88 275.599C167.662 272.41 170.267 268.909 169.882 265.054ZM164.88 267.829C164.339 267.828 163.81 267.666 163.361 267.364C162.911 267.062 162.562 266.634 162.356 266.134C162.149 265.633 162.096 265.083 162.203 264.552C162.309 264.022 162.571 263.535 162.954 263.152C163.337 262.77 163.825 262.51 164.356 262.405C164.887 262.3 165.437 262.355 165.937 262.562C166.437 262.77 166.864 263.121 167.164 263.571C167.465 264.021 167.625 264.55 167.625 265.091C167.626 265.451 167.556 265.809 167.418 266.142C167.28 266.475 167.078 266.777 166.823 267.032C166.568 267.286 166.265 267.488 165.931 267.625C165.598 267.762 165.24 267.831 164.88 267.829Z" fill="#FA9B0D"/>
</g>
<g id="freepik--character-2--inject-1">
<path id="Vector_139" d="M277.404 176.483C277.406 180.951 276.046 185.313 273.505 188.988C270.963 192.663 267.362 195.475 263.18 197.05C258.999 198.624 254.437 198.886 250.103 197.8C245.769 196.714 241.869 194.332 238.924 190.972H196.241L190.269 202.02L184.297 190.972H178.843V161.994H238.931C241.878 158.637 245.779 156.259 250.112 155.175C254.446 154.092 259.006 154.355 263.186 155.93C267.366 157.505 270.967 160.316 273.508 163.99C276.05 167.663 277.411 172.024 277.411 176.49L277.404 176.483Z" fill="white"/>
<path id="Vector_140" d="M277.404 176.483C277.376 178.703 277.047 180.908 276.427 183.039C275.743 185.139 274.767 187.132 273.526 188.959C270.974 192.646 267.361 195.469 263.166 197.055C262.651 197.264 262.125 197.447 261.59 197.603L259.977 198.017C259.437 198.128 258.882 198.195 258.334 198.291C257.786 198.38 257.232 198.431 256.677 198.446C254.452 198.604 252.216 198.407 250.054 197.862C245.693 196.781 241.764 194.399 238.791 191.031L238.902 191.083L196.211 191.202L196.441 191.061L190.521 202.124L190.262 202.612L190.003 202.124L184.001 191.091L184.29 191.268H178.836H178.488V190.92C178.488 186.088 178.488 181.263 178.488 176.431L178.533 161.942V161.631H178.843L238.931 161.794L238.783 161.942V161.89L238.82 161.846C241.811 158.492 245.753 156.13 250.12 155.075C252.283 154.53 254.519 154.332 256.743 154.49C257.299 154.505 257.852 154.557 258.401 154.646C258.948 154.742 259.503 154.808 260.044 154.919L261.657 155.334C262.191 155.49 262.717 155.672 263.233 155.881C267.427 157.464 271.04 160.285 273.593 163.97C274.832 165.811 275.808 167.816 276.494 169.927C277.091 172.061 277.398 174.266 277.404 176.483ZM277.404 176.483C277.364 174.267 277.023 172.066 276.39 169.941C275.689 167.838 274.692 165.845 273.43 164.021C270.883 160.37 267.285 157.58 263.115 156.022C262.605 155.817 262.083 155.642 261.553 155.497L259.947 155.09C259.407 154.979 258.852 154.919 258.312 154.831C257.766 154.74 257.215 154.691 256.662 154.683C254.458 154.536 252.245 154.741 250.105 155.289C245.811 156.374 241.946 158.735 239.02 162.06L239.057 161.964V162.112H238.909L178.821 162.275L179.132 161.964L179.176 176.453C179.176 181.286 179.176 186.11 179.176 190.943L178.829 190.595H184.282H184.482L184.571 190.772L190.491 201.835H189.973L195.974 190.802L196.048 190.661H196.204L238.894 190.78H239.02L239.065 190.832C241.984 194.179 245.857 196.554 250.165 197.64C252.303 198.195 254.517 198.402 256.721 198.254C257.274 198.245 257.826 198.196 258.371 198.106C258.911 198.024 259.466 197.958 260.007 197.854L261.605 197.44C262.138 197.296 262.662 197.12 263.174 196.914C267.347 195.357 270.947 192.567 273.497 188.915C274.744 187.089 275.728 185.096 276.42 182.995C277.04 180.879 277.371 178.688 277.404 176.483Z" fill="#263238"/>
<path id="Vector_141" d="M264.535 193.343C273.852 188.32 277.333 176.695 272.31 167.377C267.287 158.06 255.662 154.579 246.345 159.602C237.027 164.625 233.546 176.25 238.569 185.568C243.592 194.885 255.218 198.366 264.535 193.343Z" fill="#FA9B0D"/>
<path id="Vector_142" d="M195.05 173.708C194.798 171.207 193.074 168.721 190.047 168.721C187.021 168.721 185.304 171.207 185.052 173.708C184.675 177.564 187.272 181.064 190.047 184.253C192.83 181.064 195.434 177.601 195.05 173.708ZM190.047 176.483C189.506 176.482 188.977 176.32 188.528 176.018C188.079 175.717 187.729 175.288 187.523 174.788C187.317 174.288 187.264 173.737 187.37 173.207C187.477 172.676 187.738 172.189 188.121 171.807C188.504 171.424 188.992 171.164 189.523 171.059C190.054 170.954 190.604 171.009 191.104 171.216C191.604 171.424 192.031 171.775 192.332 172.225C192.632 172.675 192.793 173.204 192.793 173.745C192.794 174.106 192.723 174.463 192.586 174.796C192.448 175.129 192.246 175.432 191.99 175.686C191.735 175.941 191.432 176.142 191.098 176.279C190.765 176.416 190.408 176.485 190.047 176.483Z" fill="#FA9B0D"/>
<path id="Vector_143" d="M230.784 171.014H200.503V171.924H230.784V171.014Z" fill="#A6A6A6"/>
<path id="Vector_144" d="M226.026 173.545H200.503V174.455H226.026V173.545Z" fill="#A6A6A6"/>
<path id="Vector_145" d="M229.289 176.076H200.503V176.986H229.289V176.076Z" fill="#A6A6A6"/>
<path id="Vector_146" d="M217.694 178.607H200.503V179.518H217.694V178.607Z" fill="#A6A6A6"/>
<path id="Vector_147" d="M268.421 190.55C264.885 193.819 260.249 195.64 255.434 195.649C254.567 195.648 253.701 195.584 252.844 195.456C252.273 195.391 251.707 195.292 251.149 195.16C251.845 192.917 252.711 190.73 253.739 188.619C253.82 188.441 253.924 188.271 254.005 188.123C254.139 187.901 254.285 187.686 254.442 187.479C255.182 186.561 257.032 186.11 259.052 186.073C259.93 186.053 260.808 186.1 261.679 186.214C262.378 186.298 263.069 186.441 263.744 186.643L263.87 186.68H263.944L264.425 186.857L264.846 187.05C264.863 187.045 264.881 187.045 264.898 187.05C265.134 187.158 265.355 187.294 265.557 187.457C265.69 187.568 265.838 187.694 265.979 187.827C266.88 188.652 267.698 189.564 268.421 190.55Z" fill="#EBEBEB"/>
<path id="Vector_148" d="M268.739 190.253C268.638 190.358 268.532 190.456 268.421 190.549C266.95 191.919 265.268 193.043 263.44 193.879C263.988 190.179 264.41 187.316 264.469 186.849C264.472 186.825 264.472 186.8 264.469 186.775C264.609 186.857 264.745 186.946 264.876 187.042C264.893 187.037 264.911 187.037 264.928 187.042C265.187 187.212 265.557 187.471 266.008 187.819C266.974 188.566 267.887 189.379 268.739 190.253Z" fill="#37474F"/>
<path id="Vector_149" d="M254.16 187.221L254.02 188.116C254.02 188.338 253.938 188.597 253.901 188.856C253.864 189.115 253.827 189.315 253.776 189.596C253.539 191.076 253.206 193.185 252.843 195.449C252.273 195.384 251.707 195.286 251.149 195.154L250.949 195.109C251.664 192.646 252.58 190.245 253.687 187.931C253.829 187.684 253.988 187.447 254.16 187.221Z" fill="#37474F"/>
<path id="Vector_150" d="M256.417 193.812C258.637 194.064 262.811 190.993 263.973 187.737C264.054 187.515 263.396 185.399 262.722 182.787C262.315 181.203 261.901 179.427 261.642 177.784C261.59 177.444 251.711 181.921 251.711 181.921C252.625 183.886 253.296 185.957 253.709 188.085C253.73 188.314 253.73 188.544 253.709 188.773V188.884C253.746 190.179 254.057 193.539 256.417 193.812Z" fill="#D3766A"/>
<path id="Vector_151" d="M253.746 188.774C253.742 188.81 253.742 188.848 253.746 188.885C254.103 188.874 254.46 188.837 254.812 188.774C260.865 187.678 261.264 179.82 261.264 177.844C259.474 178.399 251.704 181.921 251.704 181.921C252.619 183.889 253.29 185.962 253.702 188.093C253.734 188.318 253.749 188.546 253.746 188.774Z" fill="#263238"/>
<path id="Vector_152" d="M261.531 164.665C263.115 168.202 262.508 179.065 260.192 181.766C256.832 185.673 250.668 186.783 247.175 182.595C243.793 178.532 244.829 164.384 247.478 161.875C251.386 158.153 259.185 159.44 261.531 164.665Z" fill="#D3766A"/>
<path id="Vector_153" d="M254.005 172.332C254.005 172.332 254.057 172.369 254.057 172.399C253.998 173.139 254.057 173.975 254.701 174.249C254.701 174.249 254.701 174.3 254.701 174.293C253.887 174.138 253.82 173.013 254.005 172.332Z" fill="#263238"/>
<path id="Vector_154" d="M254.693 171.6C255.877 171.6 255.848 173.938 254.753 173.96C253.657 173.982 253.702 171.622 254.693 171.6Z" fill="#263238"/>
<path id="Vector_155" d="M249.521 172.42C249.521 172.42 249.462 172.42 249.462 172.487C249.462 173.227 249.373 174.063 248.722 174.3C248.722 174.3 248.722 174.344 248.722 174.337C249.521 174.211 249.654 173.093 249.521 172.42Z" fill="#263238"/>
<path id="Vector_156" d="M248.877 171.628C247.693 171.525 247.575 173.885 248.67 173.982C249.765 174.078 249.861 171.68 248.877 171.628Z" fill="#263238"/>
<path id="Vector_157" d="M255.641 170.525C255.331 170.431 255.027 170.32 254.731 170.192C254.393 170.12 254.088 169.937 253.865 169.674C253.809 169.577 253.788 169.465 253.804 169.355C253.82 169.245 253.873 169.143 253.954 169.067C254.133 168.938 254.344 168.86 254.564 168.841C254.784 168.821 255.005 168.861 255.204 168.956C255.637 169.088 256.007 169.372 256.248 169.755C256.294 169.847 256.313 169.95 256.303 170.053C256.293 170.155 256.254 170.253 256.19 170.334C256.126 170.415 256.04 170.475 255.943 170.509C255.846 170.543 255.741 170.549 255.641 170.525Z" fill="#263238"/>
<path id="Vector_158" d="M247.974 170.421C248.3 170.369 248.596 170.273 248.914 170.192C249.257 170.154 249.579 170.006 249.832 169.77C249.899 169.682 249.936 169.574 249.936 169.463C249.936 169.352 249.899 169.244 249.832 169.156C249.668 169.009 249.467 168.908 249.251 168.865C249.035 168.822 248.811 168.838 248.603 168.912C248.157 168.991 247.756 169.234 247.478 169.592C247.422 169.676 247.39 169.775 247.387 169.876C247.384 169.978 247.41 170.078 247.462 170.165C247.514 170.252 247.59 170.322 247.681 170.368C247.772 170.413 247.873 170.432 247.974 170.421Z" fill="#263238"/>
<path id="Vector_159" d="M253.332 176.935C253.145 177.224 252.899 177.47 252.611 177.659C252.323 177.847 251.999 177.974 251.659 178.03C251.36 178.071 251.056 178.071 250.757 178.03C250.7 178.038 250.643 178.038 250.586 178.03H250.424C250.342 178.03 250.298 177.948 250.283 177.867C250.28 177.842 250.28 177.818 250.283 177.793V177.734C250.283 177.164 250.342 176.306 250.342 176.306C250.135 176.409 249.077 176.868 249.099 176.579C249.191 174.034 249.543 171.505 250.15 169.031C250.15 169.014 250.157 168.997 250.169 168.984C250.182 168.972 250.199 168.965 250.216 168.965C250.234 168.965 250.251 168.972 250.263 168.984C250.276 168.997 250.283 169.014 250.283 169.031C250.209 171.385 249.721 173.708 249.61 176.061C249.987 175.896 250.386 175.782 250.794 175.721C250.875 175.721 250.638 177.379 250.66 177.63C251.122 177.681 251.589 177.638 252.034 177.504C252.479 177.371 252.893 177.149 253.25 176.853C253.324 176.861 253.376 176.861 253.332 176.935Z" fill="#263238"/>
<path id="Vector_160" d="M251.097 177.778C251.401 178.184 251.803 178.505 252.266 178.711C252.525 178.812 252.809 178.833 253.08 178.77C253.665 178.622 253.687 178.082 253.584 177.623C253.528 177.379 253.443 177.143 253.332 176.92C252.696 177.434 251.914 177.735 251.097 177.778Z" fill="#263238"/>
<path id="Vector_161" d="M252.266 178.711C252.525 178.812 252.809 178.833 253.08 178.77C253.665 178.622 253.687 178.082 253.583 177.623C253.274 177.631 252.976 177.742 252.737 177.939C252.498 178.137 252.332 178.408 252.266 178.711Z" fill="#FF9ABB"/>
<path id="Vector_162" d="M245.873 165.443C246.287 164.518 246.761 163.585 247.353 163.408C247.945 163.23 249.062 164.888 250.313 164.984C252.029 165.117 253.184 163.2 255.589 163.052C257.994 162.904 259.437 165.813 259.474 170.711C259.474 175.092 262.145 175.529 262.145 175.529C262.145 175.529 263.847 165.909 261.154 162.668C258.46 159.426 252.274 157.969 248.019 160.973C246.472 162.061 245.873 165.443 245.873 165.443Z" fill="#263238"/>
<path id="Vector_163" d="M259.947 173.781C259.947 173.781 261.99 170.081 263.647 170.777C265.305 171.472 264.017 176.652 262.256 177.533C262.038 177.66 261.796 177.742 261.545 177.773C261.294 177.805 261.04 177.786 260.796 177.717C260.553 177.648 260.326 177.53 260.13 177.371C259.933 177.213 259.77 177.016 259.651 176.793L259.947 173.781Z" fill="#D3766A"/>
<path id="Vector_164" d="M263.24 172.258C263.24 172.258 263.24 172.258 263.24 172.302C262.005 172.961 261.457 174.226 261.109 175.506C261.172 175.371 261.264 175.25 261.377 175.152C261.491 175.055 261.623 174.983 261.767 174.941C261.911 174.899 262.062 174.888 262.21 174.909C262.358 174.93 262.5 174.982 262.626 175.062C262.626 175.062 262.626 175.144 262.626 175.136C262.393 175.087 262.149 175.112 261.93 175.207C261.712 175.303 261.528 175.464 261.405 175.669C261.2 176.012 261.034 176.377 260.909 176.757C260.858 176.875 260.643 176.838 260.673 176.698C260.48 175.033 261.494 172.606 263.24 172.258Z" fill="#263238"/>
</g>
<g id="freepik--character-1--inject-1">
<path id="Vector_165" d="M62.8485 89.2225C65.1869 90.4435 65.6383 94.6615 73.0679 94.4025C74.1261 94.4025 74.9845 93.9511 75.9613 94.3063C77.3747 94.8317 78.4995 95.9639 79.7649 96.7927C80.7822 97.4712 81.9371 97.916 83.1467 98.0951C85.4772 98.3726 87.8316 97.831 89.8067 96.5633C91.0203 95.8233 92.0267 94.7799 93.2181 93.9659C94.4095 93.1519 101.499 91.4425 102.69 87.4539C103.43 84.9157 103.334 82.0297 100.322 78.3223C99.6257 77.6634 99.1501 76.8053 98.9605 75.8655C98.9657 75.0398 99.1553 74.2257 99.5155 73.4827C99.9322 72.6371 100.082 71.6848 99.9447 70.7521C99.6092 69.8645 99.0692 69.0684 98.3685 68.4285C97.2585 67.0891 97.4657 65.1429 98.3685 62.7527C98.7212 61.7402 98.8379 60.6605 98.7096 59.596C98.5814 58.5316 98.2116 57.5105 97.6285 56.6107C96.8973 55.5755 96.0341 54.6401 95.0607 53.8283C93.7065 52.5407 93.4549 51.3419 92.8407 49.5289C91.6937 46.0287 89.8807 44.4599 87.7569 43.3869C85.8477 42.4175 85.9143 42.7875 83.8571 43.0983C81.7799 41.8347 79.3355 41.3129 76.9233 41.6183C74.7033 41.8995 72.8311 43.4091 71.1365 44.8447C69.6565 46.1323 68.2431 47.5161 68.1765 49.6843C68.1321 50.9349 68.4355 52.1707 68.3763 53.3843C68.3023 54.9753 67.4143 55.9817 66.3561 56.9807C64.7852 58.3205 63.7005 60.1414 63.2703 62.1607C62.9965 63.8553 64.6541 66.4749 62.7079 68.9835C60.9837 71.2035 57.9571 73.7343 57.1653 76.5241C54.7159 85.2191 60.5989 88.0607 62.8485 89.2225Z" fill="#263238"/>
<path id="Vector_166" d="M91.5902 93.8764C95.0016 93.3658 100.241 94.0022 102.054 90.1764C102.771 89.591 103.338 88.8434 103.708 87.9954C104.079 87.1474 104.242 86.2234 104.185 85.2998C104.081 83.287 102.905 81.5406 101.61 80.1198C100.773 79.3369 100.043 78.446 99.4416 77.4706C99.2491 76.7114 99.1082 75.94 99.0198 75.1618C99.1647 74.1662 99.4383 73.1935 99.8338 72.2684C99.8338 72.2314 99.8338 72.2684 99.8338 72.2684C99.0938 73.8372 98.3982 75.5836 99.0938 77.33C99.1916 77.586 99.3105 77.8335 99.449 78.07C99.6946 78.9904 100.034 79.8831 100.463 80.734C101.588 82.954 102.609 84.9742 102.461 87.5716C102.43 88.4387 102.221 89.2902 101.847 90.0728C100.372 91.3657 98.5295 92.1652 96.5778 92.3594C96.5334 92.3594 96.526 92.4482 96.5778 92.4408C98.3436 92.2615 100.037 91.6462 101.506 90.65C99.523 93.4842 94.9276 93.1068 91.5976 93.758C91.4866 93.7802 91.5236 93.8912 91.5902 93.8764ZM102.313 89.54V89.466C102.895 87.3697 102.743 85.1375 101.884 83.139C101.343 81.8144 100.537 80.623 100.004 79.291C99.9152 79.0616 99.8264 78.8248 99.7524 78.5954C100.492 79.6314 101.543 80.4972 102.283 81.511C103.911 83.731 104.385 86.358 102.875 88.7482C102.706 89.0243 102.518 89.2888 102.313 89.54Z" fill="#263238"/>
<path id="Vector_167" d="M55.5005 85.1004C55.5449 85.1744 55.6485 85.1004 55.6115 85.0338C54.1315 82.5326 54.5755 79.9648 55.7299 77.6708C55.1749 81.097 55.8483 84.9376 58.9859 86.7802C59.0377 86.7802 59.0821 86.7284 59.0303 86.6988C55.7891 84.7526 55.3303 80.32 56.1739 76.8568C56.8922 75.6741 57.733 74.5704 58.6825 73.5638C60.1625 71.9654 62.0273 70.3818 63.1225 68.3838C62.8971 69.543 62.2415 70.574 61.2873 71.2698C61.2281 71.3142 61.2873 71.4104 61.3391 71.3734C62.3724 70.6773 63.1107 69.6226 63.4111 68.4134C63.4585 68.1694 63.4858 67.9219 63.4925 67.6734C63.7734 67.0311 63.9555 66.35 64.0327 65.6532C63.944 66.2752 63.7722 66.8825 63.5221 67.4588C63.3929 66.3815 63.1447 65.3218 62.7821 64.299C61.9829 61.339 63.4777 59.5704 65.3203 57.9794C65.4683 57.8832 65.6163 57.787 65.7717 57.6982C66.778 57.1728 67.6261 56.3886 68.2285 55.4264C68.3543 55.2932 68.4801 55.16 68.5985 55.0194C68.5985 55.0194 68.3987 55.2192 68.3025 55.3154C68.4334 55.0407 68.5351 54.753 68.6059 54.457C68.6059 54.457 68.6059 54.457 68.6059 54.457C68.4108 54.9572 68.1276 55.4184 67.7697 55.8186C67.0297 56.4328 66.2231 56.9952 65.4461 57.5872C63.9661 58.4752 62.5379 59.3188 61.9755 61.0874C61.4131 62.856 61.8571 64.5802 61.9755 66.2674C62.1827 68.9166 61.2355 71.1292 58.8231 72.1874C58.8231 72.1874 58.7787 72.2466 58.8231 72.2318C59.0068 72.1813 59.1872 72.1195 59.3633 72.0468C57.8801 73.1222 56.7454 74.6095 56.0999 76.324C54.4127 78.9214 53.7023 82.281 55.5005 85.1004ZM61.6795 70.1968L60.8655 70.8258C61.25 70.3747 61.5507 69.8584 61.7535 69.3014C62.4195 67.4218 61.8645 65.3794 61.8201 63.448C61.7542 62.6377 61.8854 61.8235 62.2024 61.0748C62.5194 60.3261 63.0128 59.6653 63.6405 59.1486C63.0882 59.7669 62.6744 60.496 62.4269 61.2872C62.0051 62.7154 62.4269 64.04 62.8561 65.409C63.1422 66.2713 63.2504 67.1826 63.1743 68.0878C62.7516 68.8369 62.2505 69.5389 61.6795 70.182V70.1968ZM56.6919 75.3768C57.5337 73.8602 58.6952 72.5446 60.0959 71.5214L60.3771 71.2846C60.7619 70.9738 61.1171 70.663 61.5167 70.3448C59.9405 72.1134 58.0239 73.66 56.6919 75.3916V75.3768Z" fill="#263238"/>
<path id="Vector_168" d="M94.6169 53.3398C95.8885 54.4449 97.0989 55.6183 98.2429 56.8548C99.0428 57.6618 99.5216 58.7324 99.5897 59.8666C99.6213 61.0103 99.2609 62.1304 98.5685 63.0412C98.3095 63.426 98.0579 63.8182 97.8285 64.2178C97.775 64.9571 97.8914 65.6988 98.1689 66.386C98.7239 67.6958 99.9597 68.5024 100.537 69.827C101.462 71.973 100.433 73.7342 99.5305 75.6582C100.182 74.0894 101.099 72.5354 100.596 70.7594C100.182 69.2794 99.1161 68.5394 98.3169 67.3332C97.827 66.5836 97.5554 65.7124 97.5325 64.8172C96.7925 66.2972 96.5705 67.7772 97.8285 69.3016C97.8877 69.3756 97.8285 69.4718 97.7397 69.4052C96.1413 67.7846 96.5631 65.8236 97.5399 64.1142C97.6006 63.0988 97.8229 62.0996 98.1985 61.1542C98.2429 61.058 98.3835 61.1542 98.3613 61.2282C98.2207 61.9682 98.0357 62.7082 97.9321 63.4482L98.0949 63.204C99.3751 61.3836 99.8635 59.2672 98.4057 57.284C97.3105 55.804 95.8157 54.6866 94.5947 53.3472C94.6011 53.3424 94.6089 53.3398 94.6169 53.3398Z" fill="#263238"/>
<path id="Vector_169" d="M136.789 307.1C135.095 307.633 85.5297 306.56 83.7241 305.354C83.0285 304.903 87.2687 257.957 87.2687 257.957L118.704 258.556L115.13 289.962C115.13 289.962 133.415 298.627 135.272 300.167C137.13 301.706 138.491 306.568 136.789 307.1Z" fill="#AD6359"/>
<path id="Vector_170" d="M136.789 307.1C135.095 307.625 85.5295 306.56 83.7239 305.346C83.5019 305.213 83.4353 300.447 84.2271 294.246C93.2107 295.726 125.297 300.677 127.791 299.204C129.53 298.183 127.991 296.584 126.562 295.504C130.662 297.546 134.48 299.515 135.272 300.174C137.107 301.691 138.484 306.567 136.789 307.1Z" fill="#263238"/>
<path id="Vector_171" d="M116.018 282.429L85.1596 281.992C85.1596 281.992 91.272 208.081 91.013 206.66C90.6948 204.84 68.813 118.992 68.813 118.992H98.265C98.265 118.992 121.486 199.008 122.322 206.719C123.654 219.166 116.018 282.429 116.018 282.429Z" fill="#37474F"/>
<path id="Vector_172" d="M87.9346 275.021C89.755 274.896 91.6346 274.918 93.4254 274.888C95.2162 274.859 97.0884 274.888 98.9162 274.888C102.616 274.925 106.235 274.977 109.89 275.081C110.897 275.081 111.896 275.14 112.895 275.184C113.894 275.229 115.033 275.421 116.099 275.458C116.18 275.458 116.18 275.591 116.099 275.591C115.196 275.591 114.301 275.732 113.398 275.754C112.495 275.776 111.533 275.791 110.601 275.791C108.773 275.791 106.901 275.791 105.11 275.791C101.454 275.791 97.7914 275.71 94.1358 275.562C92.0712 275.473 89.9844 275.451 87.9272 275.243C87.8977 275.242 87.8699 275.23 87.8498 275.208C87.8297 275.187 87.8189 275.158 87.8199 275.129C87.8209 275.099 87.8335 275.071 87.855 275.051C87.8765 275.031 87.9051 275.02 87.9346 275.021Z" fill="#263238"/>
<path id="Vector_173" d="M75.2732 125.927C77.9076 135.258 80.32 144.671 82.6732 154.047C85.0264 163.422 87.387 172.872 89.7328 182.285L93.2404 196.441C94.38 201.022 95.7046 205.632 95.9932 210.368C96.2818 215.104 95.6676 220.032 95.2532 224.828C94.8388 229.623 94.4392 234.448 94.0174 239.28C93.1738 248.9 92.3672 258.564 91.3164 268.184C91.1832 269.39 91.0574 270.597 90.9316 271.795C90.9316 271.899 90.7614 271.899 90.7688 271.795C91.4126 262.175 92.0786 252.511 92.8482 242.876C93.233 238.061 93.6252 233.241 94.0248 228.417C94.417 223.607 94.9794 218.797 95.1274 213.957C95.2754 209.117 94.3874 204.426 93.2182 199.727C92.049 195.028 90.9094 190.514 89.755 185.904C87.4018 176.496 85.0511 167.083 82.7028 157.665C80.0906 147.128 77.4784 136.56 75.1696 125.949C75.1667 125.935 75.1693 125.921 75.177 125.909C75.1846 125.897 75.1966 125.889 75.2103 125.886C75.2241 125.883 75.2384 125.886 75.2502 125.893C75.262 125.901 75.2703 125.913 75.2732 125.927Z" fill="#263238"/>
<path id="Vector_174" d="M68.8203 118.992C68.8203 118.992 78.2109 155.822 84.7821 181.752L97.3177 118.992H68.8203Z" fill="#263238"/>
<path id="Vector_175" d="M99.7818 307.205C98.0798 307.737 48.522 306.664 46.709 305.458C46.0134 305.014 48.6034 258.039 48.6034 258.039L79.6168 258.638L78.1368 290.074C78.1368 290.074 96.4296 298.732 98.2796 300.271C100.13 301.81 101.476 306.687 99.7818 307.205Z" fill="#AD6359"/>
<path id="Vector_176" d="M99.782 307.204C98.0874 307.737 48.5148 306.664 46.7092 305.457C46.4872 305.317 46.539 300.677 46.7092 294.357C55.6928 295.837 88.275 300.795 90.7688 299.323C92.5152 298.302 90.9686 296.696 89.5478 295.623C93.64 297.665 97.4584 299.626 98.2502 300.285C100.093 301.802 101.477 306.686 99.782 307.204Z" fill="#263238"/>
<path id="Vector_177" d="M97.2953 118.985C97.2953 118.985 96.4369 133.045 93.0773 144.182C92.8035 145.1 92.5149 146.01 92.1967 146.876C89.2266 148.032 86.3682 149.456 83.6571 151.131C83.6571 151.131 81.5333 204.996 81.5703 208.341C81.7109 220.854 78.5141 281.808 78.5141 281.808L47.4341 281.512C47.4341 281.512 50.6605 212.581 50.6753 208C50.6753 203.56 52.7917 175.596 54.6639 151.346C54.6639 151.346 51.8963 143.598 52.2071 139.691C52.9471 130.204 57.2021 118.971 57.2021 118.971L97.2953 118.985Z" fill="#37474F"/>
<path id="Vector_178" d="M90.5023 137.899C90.6133 137.114 90.7317 136.337 90.8501 135.56C91.0721 134.132 91.3607 132.711 91.5901 131.291C92.1599 128.064 92.7519 124.823 93.4697 121.626C93.4697 121.552 93.6177 121.567 93.6103 121.626C93.4771 122.921 93.3291 124.209 93.1515 125.489C92.9739 126.769 92.8407 128.072 92.6557 129.359C92.3005 131.905 91.9157 134.458 91.5087 136.996C91.3385 137.973 90.7687 139.727 92.1377 140.03C93.2551 140.274 94.0691 139.179 94.4021 138.261C94.7449 137.11 94.9924 135.932 95.1421 134.739C95.3715 133.451 95.5713 132.156 95.7563 130.869C96.1559 128.047 96.5876 125.233 97.0513 122.425C97.0513 122.351 97.1919 122.374 97.1845 122.425C97.1255 125.31 96.918 128.19 96.5629 131.054C96.3853 132.43 96.1781 133.799 95.9413 135.161C95.8047 136.473 95.4885 137.76 95.0015 138.987C94.8007 139.468 94.4819 139.891 94.0745 140.217C93.6672 140.543 93.1843 140.761 92.6705 140.851H92.6039C92.6187 140.859 92.6309 140.871 92.6388 140.885C92.6468 140.9 92.6501 140.916 92.6483 140.933C92.6483 141.384 92.6483 141.85 92.5965 142.302C92.5447 142.753 92.4559 143.205 92.3671 143.649C92.2887 144.104 92.1724 144.552 92.0193 144.988C91.9501 145.2 91.8686 145.407 91.7751 145.61C91.6715 145.817 91.5309 145.98 91.4125 146.172C91.4048 146.19 91.3906 146.205 91.3727 146.214C91.3547 146.222 91.3343 146.224 91.3151 146.219C91.296 146.213 91.2795 146.201 91.2688 146.184C91.2582 146.167 91.254 146.147 91.2571 146.128C91.2571 146.054 91.2571 145.98 91.2571 145.906V145.861C91.2497 145.728 91.2497 145.595 91.2571 145.462C91.2571 145.24 91.3459 145.025 91.3903 144.81C91.4865 144.374 91.6049 143.945 91.7233 143.515C91.8417 143.086 91.9305 142.65 92.0415 142.22C92.1525 141.791 92.3005 141.34 92.4041 140.896C92.4006 140.881 92.4006 140.866 92.4041 140.851C91.9908 140.872 91.581 140.766 91.2303 140.546C90.8796 140.326 90.6048 140.004 90.4431 139.623C90.3174 139.053 90.3378 138.459 90.5023 137.899Z" fill="#263238"/>
<path id="Vector_179" d="M81.1415 152.204C82.0676 151.49 83.0445 150.845 84.0645 150.273C85.1401 149.627 86.2547 149.049 87.4019 148.541C89.6219 147.565 91.9751 146.899 94.2987 146.129C94.3653 146.129 94.4171 146.225 94.3431 146.247C92.1231 147.143 89.9401 148.334 87.7645 149.4C86.6989 149.918 85.6111 150.421 84.5233 150.88C83.4355 151.339 82.3477 151.923 81.2229 152.36C81.1415 152.389 81.0749 152.256 81.1415 152.204Z" fill="#263238"/>
<path id="Vector_180" d="M63.5736 132.586C65.1579 132.571 66.7341 132.357 68.2652 131.95C69.0052 131.772 69.6712 131.543 70.3594 131.321C71.0467 131.128 71.6901 130.804 72.2538 130.366C73.3194 129.449 73.8152 127.998 74.2814 126.718C74.7865 125.266 75.1968 123.783 75.5098 122.278C75.5098 122.204 75.6356 122.226 75.6356 122.278C75.6722 123.978 75.4578 125.673 74.9992 127.31C74.6144 128.701 74.1038 130.27 72.979 131.232C71.7307 132.165 70.2355 132.711 68.6796 132.801C66.9791 132.998 65.2602 132.973 63.5662 132.727C63.5543 132.719 63.5446 132.708 63.5381 132.696C63.5317 132.683 63.5287 132.669 63.5294 132.654C63.5302 132.64 63.5346 132.626 63.5424 132.614C63.5501 132.602 63.5609 132.593 63.5736 132.586Z" fill="#263238"/>
<path id="Vector_181" d="M48.7736 275.481C50.594 275.348 52.4736 275.37 54.2644 275.348C56.0552 275.326 57.9644 275.348 59.7552 275.348C63.4206 275.377 67.0812 275.441 70.7368 275.54C71.7358 275.54 72.7348 275.599 73.6968 275.644C74.6588 275.688 75.8354 275.873 76.901 275.918C76.911 275.914 76.9217 275.913 76.9323 275.915C76.9428 275.916 76.9528 275.92 76.9615 275.926C76.9701 275.932 76.9772 275.94 76.9821 275.95C76.9869 275.959 76.9895 275.97 76.9895 275.98C76.9895 275.991 76.9869 276.002 76.9821 276.011C76.9772 276.02 76.9701 276.029 76.9615 276.035C76.9528 276.041 76.9428 276.045 76.9323 276.046C76.9217 276.048 76.911 276.047 76.901 276.043C76.0056 276.043 75.1028 276.191 74.2 276.214C73.2972 276.236 72.3352 276.251 71.4028 276.251H65.912C62.2564 276.251 58.5934 276.169 54.9378 276.014C52.8732 275.932 50.7864 275.903 48.7292 275.703C48.6997 275.697 48.6738 275.68 48.6572 275.655C48.6405 275.63 48.6345 275.599 48.6404 275.57C48.6463 275.54 48.6636 275.514 48.6886 275.498C48.7136 275.481 48.7441 275.475 48.7736 275.481Z" fill="#263238"/>
<path id="Vector_182" d="M52.5405 271.433C52.4912 271.431 52.4428 271.419 52.3981 271.398C52.3535 271.378 52.3134 271.348 52.2803 271.312C52.2472 271.275 52.2218 271.232 52.2055 271.186C52.1891 271.139 52.1823 271.09 52.1853 271.041L59.2079 150.421C59.1191 149.895 57.1359 143.154 56.9879 139.713C56.8029 136.079 60.5695 121.901 60.6879 121.294C60.7155 121.198 60.7797 121.116 60.8668 121.066C60.9539 121.017 61.057 121.003 61.1541 121.028C61.2023 121.041 61.2476 121.063 61.2871 121.093C61.3267 121.124 61.3599 121.162 61.3846 121.205C61.4094 121.249 61.4253 121.297 61.4315 121.346C61.4376 121.396 61.4339 121.446 61.4205 121.494C61.4205 121.635 57.5281 136.153 57.7205 139.676C57.9129 143.198 59.9405 150.28 59.9405 150.339C59.9405 150.398 52.9179 271.078 52.9179 271.078C52.9105 271.173 52.8677 271.263 52.7979 271.328C52.7281 271.394 52.6363 271.431 52.5405 271.433Z" fill="#263238"/>
<path id="Vector_183" d="M87.6755 76.9609C102.86 90.3179 116.92 105 118.127 112.562C119.755 123.026 113.339 126.008 110.453 126.067C102.587 126.23 87.9345 94.5137 82.8285 82.4073C77.8705 70.6339 84.3603 74.0009 87.6755 76.9609Z" fill="#FA9B0D"/>
<path id="Vector_184" d="M98.0722 118.985L95.9558 105.665C95.9558 105.665 101.217 100.212 98.5014 94.5063C97.125 91.6129 87.764 77.4863 82.769 73.9639C78.0848 70.6413 72.5274 73.4015 70.4406 76.9979C65.194 86.0777 60.199 96.5117 57.165 118.978L98.0722 118.985Z" fill="#FA9B0D"/>
<path id="Vector_185" d="M89.7107 103.963C87.5858 104.194 85.4809 104.582 83.4133 105.125C82.3847 105.413 81.3857 105.739 80.3793 106.094C79.8835 106.272 79.3803 106.427 78.8993 106.582C78.3752 106.762 77.8309 106.877 77.2787 106.923C77.2689 106.923 77.2595 106.927 77.2525 106.934C77.2456 106.941 77.2417 106.95 77.2417 106.96C77.2417 106.97 77.2456 106.979 77.2525 106.986C77.2595 106.993 77.2689 106.997 77.2787 106.997C77.7999 107.014 78.3217 106.994 78.8401 106.938C79.3404 106.87 79.835 106.767 80.3201 106.627C81.3635 106.353 82.3847 106.02 83.4281 105.731C85.5223 105.154 87.6165 104.57 89.7477 104.14C89.7713 104.136 89.7919 104.121 89.8051 104.101C89.8183 104.081 89.8229 104.057 89.818 104.033C89.8131 104.01 89.799 103.989 89.7789 103.976C89.7588 103.963 89.7343 103.958 89.7107 103.963Z" fill="#263238"/>
<path id="Vector_186" d="M95.0163 105.747C93.257 105.595 91.4903 105.545 89.7253 105.599C88.8447 105.599 87.9715 105.703 87.0909 105.807L85.8403 105.969C85.3815 106.043 84.9301 106.169 84.4713 106.228C84.4269 106.228 84.4269 106.31 84.4713 106.31C84.9079 106.265 85.3519 106.31 85.7885 106.31L87.1057 106.243L89.7475 106.132C91.5013 106.036 93.2551 105.962 95.0163 105.925C95.0398 105.925 95.0624 105.916 95.0791 105.899C95.0957 105.882 95.1051 105.86 95.1051 105.836C95.1051 105.813 95.0957 105.79 95.0791 105.773C95.0624 105.757 95.0398 105.747 95.0163 105.747Z" fill="#263238"/>
<path id="Vector_187" d="M69.908 75.6366C55.7814 86.7366 41.8916 105.925 41.788 116.647C41.6918 127.237 45.377 126.216 46.4278 126.142C52.8214 125.727 67.8878 96.253 72.4758 84.2354C77.0638 72.2178 73.4008 72.8912 69.908 75.6366Z" fill="#FA9B0D"/>
<path id="Vector_188" d="M54.9307 117.869C55.6707 116.537 56.4107 115.22 57.1507 113.873L59.3707 109.862C60.8507 107.191 62.3307 104.519 63.7145 101.818C65.0983 99.1172 66.5783 96.4458 67.9769 93.7374C68.6823 92.3857 69.3656 91.0241 70.0267 89.6526C70.7149 88.291 71.3439 86.9072 71.9877 85.5234C70.9716 88.405 69.7982 91.2287 68.4727 93.9816C67.1777 96.7492 65.7643 99.4576 64.3509 102.159C62.9375 104.86 61.3909 107.516 59.8517 110.136C58.3125 112.755 56.6845 115.368 54.9307 117.869Z" fill="#263238"/>
<path id="Vector_189" d="M70.478 89.0753C70.7379 88.595 71.0296 88.1327 71.3512 87.6915C71.514 87.4695 71.662 87.2475 71.8322 87.0403C71.994 86.8171 72.1669 86.6023 72.3502 86.3965C72.2169 86.9304 71.9807 87.4332 71.6546 87.8765C71.3401 88.3455 70.9411 88.752 70.478 89.0753Z" fill="#263238"/>
<path id="Vector_190" d="M113.701 97.0523C112.961 92.0869 111.481 85.1531 109.676 83.7323C107.87 82.3115 100.951 77.1981 98.99 76.5395C97.029 75.8809 88.2526 72.6545 86.6542 73.5795C85.3814 74.3195 86.9428 77.6939 91.0942 79.2701C93.3575 80.1804 95.5642 81.2257 97.7024 82.4003C98.7754 82.8443 101.402 86.2705 100.662 87.8023C100.263 88.7051 97.6506 89.7929 96.0152 89.0751C94.3798 88.3573 93.9432 85.1383 92.071 83.6361C90.1988 82.1339 86.891 82.3559 86.7356 83.2439C86.5802 84.1319 87.6458 84.5389 89.3552 87.5285C90.4578 89.4525 90.5762 94.0997 93.0552 97.4001C94.3262 99.3575 95.4754 101.391 96.4962 103.49L113.701 97.0523Z" fill="#AD6359"/>
<path id="Vector_191" d="M90.3689 82.2891C89.765 82.2013 89.1981 81.9448 88.7335 81.5491C88.5497 81.3683 88.4191 81.1405 88.3561 80.8905C88.3376 80.753 88.3376 80.6136 88.3561 80.4761C88.3601 80.3289 88.415 80.1877 88.5115 80.0765C88.5115 80.0099 88.5115 80.0765 88.5115 80.0765C88.4664 80.1461 88.4169 80.2128 88.3635 80.2763C88.3242 80.3339 88.2919 80.396 88.2673 80.4613C88.223 80.5924 88.2005 80.7299 88.2007 80.8683C88.2191 81.1746 88.3388 81.4662 88.5411 81.6971C88.7814 81.9432 89.0756 82.1302 89.4005 82.2432C89.7254 82.3562 90.0721 82.3922 90.4133 82.3483C90.4133 82.3483 90.3985 82.2965 90.3689 82.2891Z" fill="#263238"/>
<path id="Vector_192" d="M109.676 83.7176C108.07 81.246 103.97 76.8134 99.9447 75.3112C97.2215 74.3048 87.9346 78.9446 88.2306 80.728C88.5266 82.5114 90.1101 82.4966 92.4707 82.208C93.3291 82.097 97.858 80.4098 98.6424 81.357C99.7746 82.7186 101.24 87.388 101.24 87.388L109.676 83.7176Z" fill="#AD6359"/>
<path id="Vector_193" d="M88.4524 80.0247C89.5846 78.1081 92.1081 77.0647 94.6241 76.2285C94.6241 76.2285 94.6833 76.2729 94.6241 76.2877C93.9803 76.5023 89.8954 78.4337 88.4598 80.0543C88.4672 80.0765 88.4376 80.0469 88.4524 80.0247Z" fill="#263238"/>
<path id="Vector_194" d="M109.676 83.7166C108.07 81.245 103.97 76.8124 99.9446 75.3102C97.2214 74.3038 89.9028 80.1942 90.1914 81.9702C90.48 83.7462 92.774 83.8646 95.2974 82.9618C96.1114 82.6658 98.8346 80.7047 99.619 81.6519C100.744 83.0135 103.497 86.388 103.497 86.388L109.676 83.7166Z" fill="#AD6359"/>
<path id="Vector_195" d="M101.905 84.3016C101.654 83.9168 101.565 83.7762 101.299 83.3914C101.032 83.0066 100.758 82.6514 100.47 82.2666C100.241 81.9287 99.956 81.6332 99.6262 81.3934C99.2852 81.2 98.889 81.127 98.5014 81.1862C97.6321 81.3754 96.8126 81.7461 96.0964 82.274C94.9381 83.0036 93.6023 83.4028 92.2336 83.4284C91.8709 83.4084 91.516 83.3153 91.1902 83.1546C90.9441 83.045 90.7283 82.8775 90.5612 82.6662C89.9766 81.6968 90.6796 80.5794 91.4048 79.7876C92.8298 78.3479 94.5048 77.1794 96.348 76.3392L97.6578 75.7028C98.1515 75.4345 98.6961 75.2731 99.2562 75.2292C100.174 75.2292 101.683 76.132 102.157 76.4058C102.157 76.4058 102.216 76.3688 102.157 76.3466C101.595 76.0062 100.181 74.8666 98.7012 74.9628C98.1627 75.0511 97.6441 75.234 97.1694 75.503C96.6514 75.725 96.1482 75.9766 95.645 76.243C94.6677 76.7373 93.7301 77.3063 92.8404 77.945C91.9494 78.537 91.1765 79.2899 90.5612 80.165C90.3014 80.5518 90.1517 81.002 90.1283 81.4674C90.1048 81.9328 90.2084 82.3958 90.428 82.8068C90.6263 83.0648 90.8788 83.2762 91.1678 83.4258C91.4569 83.5754 91.7752 83.6597 92.1004 83.6726C92.4884 83.7241 92.8816 83.7241 93.2696 83.6726C94.1274 83.4868 94.9707 83.2395 95.793 82.9326C96.5922 82.607 97.31 82.0594 98.1388 81.8004C98.3328 81.7302 98.539 81.6999 98.745 81.7113C98.951 81.7228 99.1526 81.7757 99.3376 81.867C99.6757 82.0911 99.9797 82.3628 100.24 82.6736C100.786 83.2119 101.282 83.7989 101.72 84.4274C101.898 84.5236 102.016 84.4644 101.905 84.3016Z" fill="#263238"/>
<path id="Vector_196" d="M110.874 85.84C110.282 84.6634 109.246 79.8016 108.292 78.3216C107.337 76.8416 102.986 71.7135 100.988 71.9577C98.472 72.2611 101.143 76.7751 102.468 78.6177C103.793 80.4603 103.615 83.6571 103.615 83.6571L110.874 85.84Z" fill="#AD6359"/>
<path id="Vector_197" d="M100.64 75.5852C101.109 76.1865 101.546 76.8113 101.95 77.4574C102.376 78.0437 102.759 78.6595 103.097 79.3C103.383 79.967 103.553 80.6777 103.6 81.4016C103.637 81.7568 103.652 82.1416 103.66 82.4598C103.667 82.778 103.66 83.1998 103.66 83.6142C103.66 83.6512 103.593 83.6586 103.593 83.6142C103.538 82.9131 103.439 82.2162 103.297 81.5274C103.165 80.813 102.946 80.1172 102.646 79.4554C102.039 78.1456 101.166 76.9764 100.552 75.6666C100.5 75.5778 100.574 75.5408 100.64 75.5852Z" fill="#263238"/>
<path id="Vector_198" d="M103.6 84.2344C103.699 85.4505 103.49 86.672 102.993 87.7864C102.765 88.3507 102.501 88.8994 102.201 89.4292C101.887 89.9419 101.544 90.436 101.173 90.9092C99.6815 92.7254 98.7348 94.9266 98.4423 97.2584C98.3412 96.0494 98.4795 94.8323 98.8493 93.6768C99.2412 92.5185 99.8267 91.4351 100.581 90.4726C101.301 89.553 101.923 88.561 102.438 87.5126C103.003 86.4912 103.396 85.3836 103.6 84.2344Z" fill="#263238"/>
<path id="Vector_199" d="M109.72 125.705C104.807 125.039 101.58 116.825 95.9859 102.38C95.0017 99.8419 107.826 84.2575 109.587 86.5811C111.807 89.5411 117.727 105.821 118.327 110.261C119.555 119.037 115.441 126.474 109.72 125.705Z" fill="#AD6359"/>
<path id="Vector_200" d="M98.9531 110.437L114.782 95.0527C114.782 95.0527 119.281 108.291 118.859 113.841C118.437 119.391 116.506 125.681 109.824 126.066C104.821 126.325 98.9531 110.437 98.9531 110.437Z" fill="#FA9B0D"/>
<path id="Vector_201" d="M104.067 121.086C103.497 120.28 102.986 119.429 102.49 118.578C101.995 117.727 101.536 116.846 101.084 115.965C100.633 115.085 100.233 114.189 99.8633 113.264C99.4781 112.35 99.1736 111.404 98.9531 110.438C99.3675 111.333 99.8115 112.214 100.256 113.087L101.588 115.721C102.017 116.602 102.453 117.482 102.868 118.378C103.282 119.273 103.697 120.168 104.067 121.086Z" fill="#263238"/>
<path id="Vector_202" d="M102.357 113.125C103.097 112.282 103.97 111.497 104.784 110.698C105.598 109.899 106.427 109.115 107.263 108.338C108.936 106.774 110.618 105.23 112.31 103.705C112.776 103.291 113.242 102.869 113.716 102.462C114.19 102.055 114.782 101.648 115.277 101.211C115.286 101.207 115.295 101.206 115.304 101.208C115.313 101.209 115.321 101.214 115.328 101.22C115.334 101.227 115.339 101.235 115.34 101.244C115.342 101.253 115.34 101.262 115.337 101.271C114.93 101.655 114.597 102.107 114.182 102.506C113.768 102.906 113.353 103.32 112.932 103.72L110.445 106.073C108.773 107.627 107.1 109.181 105.384 110.683C104.414 111.534 103.46 112.415 102.424 113.207C102.413 113.209 102.402 113.208 102.392 113.205C102.381 113.201 102.372 113.195 102.365 113.186C102.359 113.178 102.354 113.168 102.353 113.157C102.351 113.146 102.353 113.135 102.357 113.125Z" fill="#263238"/>
<path id="Vector_203" d="M73.438 73.9344C73.438 73.9344 76.3092 81.2382 77.2564 82.0744C78.2036 82.9106 86.2622 82.4444 86.4398 81.7784C86.6174 81.1124 83.0432 74.4672 83.0432 74.4672C81.2826 73.63 79.3894 73.1066 77.4488 72.9206C76.0353 72.7907 74.62 73.1485 73.438 73.9344Z" fill="#AD6359"/>
<path id="Vector_204" d="M74.1114 74.416C74.2298 75.23 77.5672 80.78 81.985 80.5062C84.5602 80.3508 82.8064 75.2226 82.8064 75.2226L85.0264 68.2148L76.546 61.7324C76.546 61.7324 74.067 74.0756 74.1114 74.416Z" fill="#AD6359"/>
<path id="Vector_205" d="M75.6431 66.3426C76.2116 68.1823 77.1519 69.8856 78.4057 71.3469C79.6595 72.8082 81.2002 73.9964 82.9321 74.8378L85.0337 68.2148L76.5533 61.7324C76.5533 61.7324 76.1389 63.8192 75.6431 66.3426Z" fill="#263238"/>
<path id="Vector_206" d="M95.0235 58.365C95.2751 70.4122 88.0897 71.9218 85.4923 71.9736C83.1317 72.0254 75.1323 71.8774 73.6005 59.919C72.0687 47.9606 77.6261 44.0386 83.0133 43.639C88.4005 43.2394 94.7719 46.3104 95.0235 58.365Z" fill="#AD6359"/>
<path id="Vector_207" d="M92.1967 57.3942C91.9265 57.3314 91.6598 57.2548 91.3975 57.1648C91.115 57.117 90.8555 56.9795 90.6575 56.7726C90.6066 56.6922 90.5834 56.5973 90.5914 56.5024C90.5994 56.4076 90.6382 56.318 90.7019 56.2472C90.8475 56.1279 91.0221 56.0493 91.208 56.0194C91.3939 55.9895 91.5844 56.0094 91.7601 56.077C92.1406 56.1625 92.4757 56.3868 92.6999 56.706C92.7487 56.7838 92.7731 56.8744 92.7698 56.9662C92.7666 57.0579 92.7359 57.1466 92.6817 57.2208C92.6275 57.2949 92.5523 57.351 92.4658 57.382C92.3793 57.4129 92.2856 57.4171 92.1967 57.3942Z" fill="#263238"/>
<path id="Vector_208" d="M83.946 57.0254C84.222 57.0066 84.4964 56.9695 84.7674 56.9144C85.064 56.9166 85.3529 56.8203 85.5888 56.6406C85.6464 56.5666 85.6777 56.4754 85.6777 56.3816C85.6777 56.2878 85.6464 56.1966 85.5888 56.1226C85.4623 55.9811 85.3001 55.8762 85.1191 55.8189C84.9382 55.7616 84.7451 55.754 84.5602 55.797C84.2053 55.8327 83.8735 55.9895 83.6204 56.241C83.5558 56.3052 83.5117 56.3871 83.4938 56.4764C83.4759 56.5658 83.485 56.6584 83.5199 56.7425C83.5548 56.8266 83.614 56.8985 83.6899 56.9488C83.7658 56.9992 83.8549 57.0259 83.946 57.0254Z" fill="#263238"/>
<path id="Vector_209" d="M85.4409 60.1934C85.4409 60.1934 85.3743 60.1934 85.3743 60.26C85.3743 61.0814 85.1967 62.0212 84.4419 62.258V62.3024C85.3595 62.221 85.5519 60.9778 85.4409 60.1934Z" fill="#263238"/>
<path id="Vector_210" d="M84.7526 59.2963C83.4354 59.1335 83.1986 61.7679 84.4122 61.9233C85.6258 62.0787 85.8404 59.4369 84.7526 59.2963Z" fill="#263238"/>
<path id="Vector_211" d="M84.2197 59.3927C83.9755 59.5185 83.7239 59.7627 83.4797 59.7627C83.2355 59.7627 82.9395 59.4667 82.7397 59.1855C82.7397 59.1855 82.6953 59.1855 82.6879 59.1855C82.6361 59.6887 82.7841 60.2216 83.3169 60.3474C83.8497 60.4732 84.2049 60.044 84.3751 59.5482C84.3603 59.489 84.3159 59.3409 84.2197 59.3927Z" fill="#263238"/>
<path id="Vector_212" d="M90.3912 60.2734C90.3912 60.2734 90.4504 60.3178 90.4504 60.3548C90.3394 61.1688 90.3542 62.116 91.072 62.4638C91.072 62.4638 91.072 62.5156 91.072 62.5082C90.1692 62.2936 90.1618 61.0282 90.3912 60.2734Z" fill="#263238"/>
<path id="Vector_213" d="M91.2051 59.4963C92.5297 59.4963 92.3743 62.1677 91.1459 62.1381C89.9175 62.1085 90.0951 59.4667 91.2051 59.4963Z" fill="#263238"/>
<path id="Vector_214" d="M91.7602 59.7041C91.96 59.8521 92.1524 60.1185 92.404 60.1481C92.6556 60.1777 92.922 59.9113 93.144 59.6523C93.144 59.6523 93.1884 59.6523 93.181 59.6523C93.181 60.1555 92.9738 60.6735 92.441 60.7401C91.9082 60.8067 91.701 60.3553 91.6048 59.8447C91.5826 59.7781 91.664 59.6375 91.7602 59.7041Z" fill="#263238"/>
<path id="Vector_215" d="M89.0818 63.8033C89.0818 63.8033 89.1484 65.0391 89.0818 65.6163C89.0818 65.6681 88.9412 65.6829 88.7414 65.6829C88.2391 65.7319 87.733 65.6427 87.2778 65.4249C86.8226 65.207 86.4357 64.8689 86.1588 64.4471C86.1218 64.3879 86.2032 64.3361 86.255 64.3731C86.9479 64.9357 87.805 65.2578 88.697 65.2907C88.7488 65.1353 88.5046 63.1743 88.5934 63.1743C89.0378 63.2523 89.4704 63.3866 89.881 63.5739C89.7996 60.9987 89.3112 58.4531 89.2742 55.8853C89.2793 55.8687 89.2897 55.8542 89.3036 55.8439C89.3176 55.8337 89.3345 55.8281 89.3519 55.8281C89.3692 55.8281 89.3861 55.8337 89.4001 55.8439C89.4141 55.8542 89.4244 55.8687 89.4296 55.8853C90.0359 58.5958 90.373 61.3595 90.436 64.1363C90.4508 64.4471 89.3038 63.9217 89.0818 63.8033Z" fill="#263238"/>
<path id="Vector_216" d="M88.4008 65.3436C88.0777 65.7337 87.6598 66.0343 87.1872 66.2168C86.9226 66.3022 86.6378 66.3022 86.3732 66.2168C85.796 66.0466 85.796 65.4768 85.9218 65.0476C85.9921 64.8081 86.0889 64.5773 86.2104 64.3594C86.8157 64.9145 87.5838 65.2596 88.4008 65.3436Z" fill="#263238"/>
<path id="Vector_217" d="M87.1872 66.2161C86.9226 66.3015 86.6378 66.3015 86.3732 66.2161C85.796 66.0459 85.796 65.4761 85.9218 65.0469C86.2334 65.0713 86.5277 65.1999 86.7573 65.412C86.9869 65.6241 87.1383 65.9074 87.1872 66.2161Z" fill="#FF9ABB"/>
<path id="Vector_218" d="M73.5044 60.1333C74.8364 60.1333 78.5068 56.6405 78.9508 50.2099C78.9508 50.2099 78.1516 55.9597 77.6706 56.7811C77.1896 57.6025 79.7204 54.8201 80.157 49.6401C81.7288 50.8991 83.4733 51.9258 85.337 52.6889C87.7494 53.5029 89.2516 53.5621 89.4366 53.4289C89.6216 53.2957 86.0696 51.9489 85.1594 50.7575C85.1594 50.7575 91.516 54.1393 94.5056 54.5315C94.8534 54.5759 95.6526 47.4497 91.1682 44.1715C86.6838 40.8933 79.1506 43.7719 77.1082 45.5775C77.1082 45.5775 74.7624 45.7847 72.054 49.0851C69.3456 52.3855 72.0614 60.1407 73.5044 60.1333Z" fill="#263238"/>
<path id="Vector_219" d="M80.3274 48.9821C80.3274 48.8341 80.0906 48.8341 80.098 48.9821C80.1408 51.3361 79.6896 53.673 78.7734 55.8419C78.7734 55.8419 78.8178 55.8937 78.8326 55.8419C79.9204 53.6441 80.6604 51.4759 80.3274 48.9821Z" fill="#263238"/>
<path id="Vector_220" d="M88.4819 53.7329C85.0113 53.1335 82.0661 51.8755 79.8757 49.0265C79.8313 48.9673 79.7277 49.0265 79.7721 49.0857C81.5333 52.1641 85.0631 53.5775 88.4671 53.8661C88.5337 53.8735 88.5559 53.7477 88.4819 53.7329Z" fill="#263238"/>
<path id="Vector_221" d="M75.643 59.985C75.643 59.985 73.2676 56.0556 71.499 56.8844C69.7304 57.7132 71.3509 63.278 73.3045 64.1512C73.5467 64.2813 73.8127 64.361 74.0865 64.3856C74.3603 64.4101 74.6362 64.3788 74.8976 64.2938C75.1591 64.2087 75.4005 64.0716 75.6075 63.8906C75.8144 63.7097 75.9826 63.4887 76.1017 63.241L75.643 59.985Z" fill="#AD6359"/>
<path id="Vector_222" d="M72.0024 58.4609C72.0024 58.4609 72.0024 58.4979 72.0024 58.5127C73.3714 59.1713 74.0226 60.5181 74.4518 61.9019C74.3795 61.7556 74.2761 61.6268 74.1489 61.5244C74.0217 61.422 73.8737 61.3486 73.7153 61.3092C73.5569 61.2697 73.3918 61.2652 73.2314 61.2961C73.0711 61.3269 72.9194 61.3922 72.7868 61.4875C72.7868 61.4875 72.7868 61.5689 72.7868 61.5615C73.0381 61.5 73.3022 61.5174 73.5432 61.6115C73.7843 61.7055 73.9904 61.8715 74.1336 62.0869C74.3693 62.4523 74.5653 62.8418 74.7182 63.2487C74.7774 63.3745 75.0068 63.3227 74.9698 63.1747C75.1326 61.3691 73.9116 58.7717 72.0024 58.4609Z" fill="#263238"/>
<path id="Vector_223" d="M86.0921 80.0759L79.4321 100.744C79.1657 101.343 79.4321 101.869 80.0463 101.906L90.8873 102.646C91.22 102.644 91.5451 102.546 91.8244 102.365C92.1036 102.184 92.3253 101.927 92.4635 101.625L99.1235 80.9639C99.2033 80.8519 99.2503 80.7199 99.2593 80.5827C99.2682 80.4455 99.2388 80.3085 99.1743 80.1871C99.1097 80.0657 99.0126 79.9646 98.8938 79.8953C98.7751 79.826 98.6394 79.7912 98.5019 79.7947L87.6609 79.0547C87.3301 79.0611 87.0076 79.1602 86.7303 79.3407C86.453 79.5212 86.2319 79.776 86.0921 80.0759Z" fill="#37474F"/>
<path id="Vector_224" d="M87.3797 80.1501L80.7197 100.818C80.4533 101.418 80.7197 101.943 81.3339 101.98L92.1749 102.72C92.5072 102.716 92.8316 102.618 93.1105 102.437C93.3894 102.256 93.6115 102 93.7511 101.699L100.411 81.0307C100.488 80.9193 100.534 80.7887 100.542 80.6533C100.55 80.518 100.521 80.3829 100.457 80.263C100.394 80.1431 100.299 80.0429 100.182 79.9734C100.066 79.9039 99.9325 79.8678 99.7969 79.8689L88.9485 79.1289C88.6176 79.1353 88.2952 79.2344 88.0179 79.4149C87.7406 79.5955 87.5195 79.8502 87.3797 80.1501Z" fill="#455A64"/>
<path id="Vector_225" d="M90.2805 81.305C90.2638 81.4854 90.194 81.6568 90.08 81.7977C89.9661 81.9385 89.8129 82.0424 89.64 82.0963C89.467 82.1503 89.2819 82.1518 89.1081 82.1007C88.9343 82.0496 88.7795 81.9482 88.6632 81.8093C88.5469 81.6704 88.4743 81.5001 88.4547 81.32C88.435 81.1399 88.469 80.958 88.5526 80.7972C88.6361 80.6365 88.7654 80.504 88.9241 80.4166C89.0828 80.3292 89.2638 80.2907 89.4443 80.306C89.565 80.3162 89.6824 80.3502 89.7899 80.4061C89.8974 80.4619 89.9927 80.5385 90.0705 80.6314C90.1482 80.7242 90.2068 80.8316 90.2428 80.9472C90.2789 81.0628 90.2917 81.1844 90.2805 81.305Z" fill="#263238"/>
<path id="Vector_226" d="M44.9553 126.12C49.6913 126.771 55.5891 123.093 70.8923 111.919C73.0161 110.38 66.1267 92.4941 63.7735 94.0333C60.8135 95.9647 49.7727 104.105 49.0401 104.8C42.8611 110.683 41.7437 125.683 44.9553 126.12Z" fill="#AD6359"/>
<path id="Vector_227" d="M58.3125 99.442C58.3125 99.442 62.6711 93.3222 65.9567 90.821C69.4282 88.3059 73.4581 86.6706 77.7005 86.0553C82.2811 85.3819 93.8399 86.9212 93.9805 90.3252C94.0989 93.411 82.3699 91.2428 82.3699 91.2428C82.3699 91.2428 94.6983 91.4796 94.1655 95.2166C93.6327 98.9536 80.1573 95.6606 80.1573 95.6606C80.1573 95.6606 92.8187 96.1934 91.6569 99.96C90.7837 102.809 78.4035 100.515 78.4035 100.515C78.4035 100.515 89.2889 101.048 88.5119 104.015C87.6535 107.293 76.1021 105.895 76.1021 105.895C72.8609 113.102 68.2137 115.137 64.8393 116.255C64.0549 116.529 58.3125 99.442 58.3125 99.442Z" fill="#AD6359"/>
<path id="Vector_228" d="M78.1369 90.8879C79.6169 90.8879 81.0525 90.8287 82.5029 90.9323C83.9533 91.0359 85.3963 91.1913 86.8245 91.4281C88.7002 91.7115 90.5374 92.2081 92.3005 92.9081C89.0815 91.9091 83.9089 91.4281 82.4585 91.3467C81.0081 91.2653 79.5799 91.0655 78.1369 90.9619C78.0999 90.9397 78.1073 90.8879 78.1369 90.8879Z" fill="#263238"/>
<path id="Vector_229" d="M77.7001 96.0977C79.5501 96.1495 81.4001 96.0977 83.2427 96.2605C85.0853 96.4233 86.8169 96.6749 88.6447 96.9339C88.7853 96.9339 88.7261 97.0227 88.5855 97.0079C86.7503 96.8229 85.0409 96.7933 83.1983 96.6305C81.3557 96.4677 79.4983 96.2383 77.6927 96.1421C77.6335 96.1421 77.6409 96.0977 77.7001 96.0977Z" fill="#263238"/>
<path id="Vector_230" d="M76.4572 100.5C79.2992 100.505 82.1334 100.8 84.9154 101.381C85.056 101.381 84.9672 101.492 84.8266 101.469C82.022 101.122 79.8242 100.826 76.4572 100.589C76.4054 100.596 76.398 100.507 76.4572 100.5Z" fill="#263238"/>
<path id="Vector_231" d="M58.312 97.0078L64.38 118.986C64.38 118.986 48.1962 128.51 44.622 125.986C41.0478 123.463 43.3862 110.779 47.434 105.94C49.0842 103.927 58.312 97.0078 58.312 97.0078Z" fill="#FA9B0D"/>
<path id="Vector_232" d="M58.512 97.7407L58.2752 97.0007H58.3344C56.8026 98.2513 55.2708 99.4871 53.7612 100.745C52.2516 102.003 50.7346 103.261 49.3212 104.593C48.5915 105.239 47.9044 105.931 47.264 106.665C46.6543 107.419 46.1097 108.224 45.636 109.07C44.6869 110.806 44.02 112.682 43.6602 114.628C43.8165 112.639 44.3542 110.7 45.2438 108.915C45.6907 108.017 46.2315 107.168 46.857 106.384C47.4978 105.617 48.1901 104.896 48.929 104.223C50.409 102.891 51.889 101.648 53.4874 100.434C55.0858 99.2207 56.6546 98.0737 58.2974 96.9785H58.3418V97.0303L58.512 97.7407Z" fill="#263238"/>
<path id="Vector_233" d="M54.7601 102.462C55.1301 103.542 55.4039 104.682 55.7147 105.755C56.0255 106.828 56.3141 107.975 56.5953 109.063C57.1503 111.283 57.6979 113.503 58.2233 115.723C58.3639 116.329 58.5045 116.944 58.6377 117.55C58.7709 118.157 58.8375 118.875 58.9781 119.526C58.9781 119.531 58.9772 119.536 58.9753 119.54C58.9734 119.545 58.9707 119.549 58.9673 119.552C58.9638 119.556 58.9598 119.559 58.9553 119.56C58.9508 119.562 58.946 119.563 58.9411 119.563C58.9363 119.563 58.9315 119.562 58.927 119.56C58.9225 119.559 58.9184 119.556 58.915 119.552C58.9115 119.549 58.9088 119.545 58.9069 119.54C58.9051 119.536 58.9041 119.531 58.9041 119.526C58.7561 118.986 58.5267 118.461 58.3713 117.928C58.2159 117.395 58.0531 116.803 57.9051 116.241C57.6165 115.138 57.3279 114.021 57.0467 112.925C56.4843 110.705 55.9293 108.485 55.4409 106.265C55.1597 105 54.8489 103.742 54.6417 102.469C54.6407 102.454 54.646 102.438 54.6564 102.426C54.6668 102.415 54.6815 102.407 54.6972 102.406C54.7129 102.405 54.7284 102.411 54.7402 102.421C54.752 102.431 54.7591 102.446 54.7601 102.462Z" fill="#263238"/>
<path id="Vector_234" d="M64.3803 118.986C64.4839 119.193 64.4765 118.986 64.4543 118.89C64.4321 118.794 64.1805 117.699 63.9511 117.033C63.9511 116.966 63.8253 116.848 63.8623 117.084C63.9998 117.727 64.1727 118.362 64.3803 118.986Z" fill="#263238"/>
</g>
</g>
</g>
<defs>
<clipPath id="clip0_224_12559">
<rect width="370" height="307" fill="white"/>
</clipPath>
</defs>
</svg>
